<svg xmlns="http://www.w3.org/2000/svg" xmlns:xlink="http://www.w3.org/1999/xlink" width="1680" height="900" version="1.1">
<style type="text/css">
.l0{
 fill: #000000;
  stroke: #000000;
  stroke-linecap:round;
  stroke-linejoin:round;
  stroke-width: 0.24288;
}
.l1{
 fill: #00ccee;
  stroke: #00ccee;
  stroke-linecap:round;
  stroke-linejoin:round;
  stroke-width: 0.24288;
}
.l2{
  fill: none;
  stroke: #3f3f3f;
  stroke-linecap:round;
  stroke-linejoin:round;
  stroke-width: 0.24288;
}
.l3{
 fill: #cccccc; fill-opacity: 0.5;
  stroke: #cccccc;
  stroke-linecap:round;
  stroke-linejoin:round;
  stroke-width: 0.24288;
}
.l4{
 fill: #88dd00;
  stroke: #88dd00;
  stroke-linecap:round;
  stroke-linejoin:round;
  stroke-width: 0.24288;
}
.l5{
 fill: #bb2200;
  stroke: #bb2200;
  stroke-linecap:round;
  stroke-linejoin:round;
  stroke-width: 0.24288;
}
.l6{
 fill: #00ccee; fill-opacity: 0.5;
  stroke: #00ccee;
  stroke-linecap:round;
  stroke-linejoin:round;
  stroke-width: 0.24288;
}
.l7{
 fill: #ff0000; fill-opacity: 0.5;
  stroke: #ff0000;
  stroke-linecap:round;
  stroke-linejoin:round;
  stroke-width: 0.24288;
}
.l8{
 fill: #ffff00; fill-opacity: 0.5;
  stroke: #ffff00;
  stroke-linecap:round;
  stroke-linejoin:round;
  stroke-width: 0.24288;
}
.l9{
 fill: #ffffff; fill-opacity: 0.5;
  stroke: #ffffff;
  stroke-linecap:round;
  stroke-linejoin:round;
  stroke-width: 0.24288;
}
.l10{
 fill: #ff00ff;
  stroke: #ff00ff;
  stroke-linecap:round;
  stroke-linejoin:round;
  stroke-width: 0.24288;
}
.l11{
 fill: #00ff00; fill-opacity: 0.5;
  stroke: #00ff00;
  stroke-linecap:round;
  stroke-linejoin:round;
  stroke-width: 0.24288;
}
.l12{
 fill: #0044dd; fill-opacity: 0.5;
  stroke: #0044dd;
  stroke-linecap:round;
  stroke-linejoin:round;
  stroke-width: 0.24288;
}
.l13{
 fill: #aaaa00; fill-opacity: 0.5;
  stroke: #aaaa00;
  stroke-linecap:round;
  stroke-linejoin:round;
  stroke-width: 0.24288;
}
.l14{
  fill: none;
  stroke: #aaccaa;
  stroke-linecap:round;
  stroke-linejoin:round;
  stroke-width: 0.24288;
}
.l15{
 fill: #ff7777; fill-opacity: 0.5;
  stroke: #ff7777;
  stroke-linecap:round;
  stroke-linejoin:round;
  stroke-width: 0.24288;
}
.l16{
 fill: #bfff81; fill-opacity: 0.5;
  stroke: #bfff81;
  stroke-linecap:round;
  stroke-linejoin:round;
  stroke-width: 0.24288;
}
.l17{
  fill: none;
  stroke: #00ffcc;
  stroke-linecap:round;
  stroke-linejoin:round;
  stroke-width: 0.24288;
}
.l18{
 fill: #ce0097; fill-opacity: 0.5;
  stroke: #ce0097;
  stroke-linecap:round;
  stroke-linejoin:round;
  stroke-width: 0.24288;
}
.l19{
  fill: none;
  stroke: #d2d46b;
  stroke-linecap:round;
  stroke-linejoin:round;
  stroke-width: 0.24288;
}
.l20{
  fill: none;
  stroke: #ef6158;
  stroke-linecap:round;
  stroke-linejoin:round;
  stroke-width: 0.24288;
}
.l21{
  fill: none;
  stroke: #fdb200;
  stroke-linecap:round;
  stroke-linejoin:round;
  stroke-width: 0.24288;
}
text {font-family: Sans-Serif;}
</style>
<rect class="l0" x="0" y="0" width="1680" height="900"/>
<text fill="#00ccee"  xml:space="preserve" font-size="3.85909" transform="translate(899.085, 147.542)" >CKP</text>
<text fill="#00ccee"  xml:space="preserve" font-size="3.85909" transform="translate(883.343, 385.924)" >CKN</text>
<text fill="#00ccee"  xml:space="preserve" font-size="3.85909" transform="translate(779.182, 69.5787) rotate(270)" >VP</text>
<text fill="#00ccee"  xml:space="preserve" font-size="3.85909" transform="translate(749.946, 62.8321) rotate(270)" >V_bias</text>
<text fill="#00ccee"  xml:space="preserve" font-size="3.85909" transform="translate(563.531, 233)" >X</text>
<text fill="#00ccee"  xml:space="preserve" font-size="3.85909" transform="translate(778.691, 471.312) rotate(270)" >VN</text>
<text fill="#aaaa00"  xml:space="preserve" font-size="2.33884" transform="translate(746.879, 176.117) rotate(270)" >1</text>
<text fill="#aaaa00"  xml:space="preserve" font-size="2.33884" transform="translate(756.437, 176.117) rotate(270)" >2</text>
<text fill="#cccccc"  xml:space="preserve" font-size="2.33884" transform="translate(748.566, 169.619) rotate(270)" >C1</text>
<text fill="#cccccc"  xml:space="preserve" font-size="2.33884" transform="translate(751.377, 169.619) rotate(270)" >100f</text>
<text fill="#cccccc"  xml:space="preserve" font-size="2.33884" transform="translate(754.188, 169.619) rotate(270)" >m=1</text>
<text fill="#cccccc"  xml:space="preserve" font-size="2.33884" transform="translate(767.526, 121.143)" >M1</text>
<text fill="#ff0000"  xml:space="preserve" font-size="1.75413" transform="translate(761.59, 131.294)" >D</text>
<text fill="#ff0000"  xml:space="preserve" font-size="1.75413" transform="translate(761.59, 121.411)" >S</text>
<text fill="#ff0000"  xml:space="preserve" font-size="1.75413" transform="translate(762.152, 125.11)" >B</text>
<text fill="#ff0000"  xml:space="preserve" font-size="1.75413" transform="translate(770.899, 125.11)" >G</text>
<text fill="#cccccc"  xml:space="preserve" font-size="2.33884" transform="translate(751.903, 123.239)" >pfet_01v8</text>
<text fill="#aaaa00"  xml:space="preserve" font-size="2.33884" transform="translate(745.622, 130.982)" >1 x 0.42 / 0.15</text>
<text fill="#aaaa00"  xml:space="preserve" font-size="2.33884" transform="translate(755.622, 128.171)" >nf=1</text>
<text fill="#cccccc"  xml:space="preserve" font-size="2.33884" transform="translate(756.779, 202.103)" >M3</text>
<text fill="#ff0000"  xml:space="preserve" font-size="1.75413" transform="translate(764.714, 212.254)" >D</text>
<text fill="#ff0000"  xml:space="preserve" font-size="1.75413" transform="translate(764.714, 202.371)" >S</text>
<text fill="#ff0000"  xml:space="preserve" font-size="1.75413" transform="translate(764.152, 206.07)" >B</text>
<text fill="#ff0000"  xml:space="preserve" font-size="1.75413" transform="translate(755.406, 206.07)" >G</text>
<text fill="#cccccc"  xml:space="preserve" font-size="2.33884" transform="translate(766.401, 204.199)" >pfet_01v8</text>
<text fill="#aaaa00"  xml:space="preserve" font-size="2.33884" transform="translate(766.682, 211.942)" >1 x 0.42 / 0.15</text>
<text fill="#aaaa00"  xml:space="preserve" font-size="2.33884" transform="translate(766.682, 209.13)" >nf=1</text>
<text fill="#cccccc"  xml:space="preserve" font-size="2.33884" transform="translate(756.779, 235.836)" >M4</text>
<text fill="#ff0000"  xml:space="preserve" font-size="1.75413" transform="translate(764.714, 245.987)" >S</text>
<text fill="#ff0000"  xml:space="preserve" font-size="1.75413" transform="translate(764.714, 236.104)" >D</text>
<text fill="#ff0000"  xml:space="preserve" font-size="1.75413" transform="translate(764.152, 239.803)" >B</text>
<text fill="#ff0000"  xml:space="preserve" font-size="1.75413" transform="translate(755.406, 239.803)" >G</text>
<text fill="#cccccc"  xml:space="preserve" font-size="2.33884" transform="translate(766.401, 237.932)" >nfet_01v8</text>
<text fill="#aaaa00"  xml:space="preserve" font-size="2.33884" transform="translate(766.682, 245.675)" >1 x 2 / 0.15</text>
<text fill="#aaaa00"  xml:space="preserve" font-size="2.33884" transform="translate(766.682, 242.864)" >nf=1</text>
<text fill="#cccccc"  xml:space="preserve" font-size="2.33884" transform="translate(859.73, 132.387)" >M2</text>
<text fill="#ff0000"  xml:space="preserve" font-size="1.75413" transform="translate(853.794, 142.538)" >D</text>
<text fill="#ff0000"  xml:space="preserve" font-size="1.75413" transform="translate(853.794, 132.655)" >S</text>
<text fill="#ff0000"  xml:space="preserve" font-size="1.75413" transform="translate(854.357, 136.354)" >B</text>
<text fill="#ff0000"  xml:space="preserve" font-size="1.75413" transform="translate(863.103, 136.354)" >G</text>
<text fill="#cccccc"  xml:space="preserve" font-size="2.33884" transform="translate(844.108, 134.483)" >pfet_01v8</text>
<text fill="#aaaa00"  xml:space="preserve" font-size="2.33884" transform="translate(837.827, 142.226)" >1 x 0.42 / 0.15</text>
<text fill="#aaaa00"  xml:space="preserve" font-size="2.33884" transform="translate(847.827, 139.415)" >nf=1</text>
<text fill="#cccccc"  xml:space="preserve" font-size="2.33884" transform="translate(848.983, 199.854)" >M5</text>
<text fill="#ff0000"  xml:space="preserve" font-size="1.75413" transform="translate(856.919, 210.005)" >D</text>
<text fill="#ff0000"  xml:space="preserve" font-size="1.75413" transform="translate(856.919, 200.122)" >S</text>
<text fill="#ff0000"  xml:space="preserve" font-size="1.75413" transform="translate(856.357, 203.821)" >B</text>
<text fill="#ff0000"  xml:space="preserve" font-size="1.75413" transform="translate(847.61, 203.821)" >G</text>
<text fill="#cccccc"  xml:space="preserve" font-size="2.33884" transform="translate(858.605, 201.95)" >pfet_01v8</text>
<text fill="#aaaa00"  xml:space="preserve" font-size="2.33884" transform="translate(858.887, 209.693)" >1 x 0.42 / 0.15</text>
<text fill="#aaaa00"  xml:space="preserve" font-size="2.33884" transform="translate(858.887, 206.882)" >nf=1</text>
<text fill="#cccccc"  xml:space="preserve" font-size="2.33884" transform="translate(848.983, 226.84)" >M6</text>
<text fill="#ff0000"  xml:space="preserve" font-size="1.75413" transform="translate(856.919, 236.992)" >S</text>
<text fill="#ff0000"  xml:space="preserve" font-size="1.75413" transform="translate(856.919, 227.109)" >D</text>
<text fill="#ff0000"  xml:space="preserve" font-size="1.75413" transform="translate(856.357, 230.807)" >B</text>
<text fill="#ff0000"  xml:space="preserve" font-size="1.75413" transform="translate(847.61, 230.807)" >G</text>
<text fill="#cccccc"  xml:space="preserve" font-size="2.33884" transform="translate(858.605, 228.937)" >nfet_01v8</text>
<text fill="#aaaa00"  xml:space="preserve" font-size="2.33884" transform="translate(858.887, 236.679)" >1 x 1.26 / 0.15</text>
<text fill="#aaaa00"  xml:space="preserve" font-size="2.33884" transform="translate(858.887, 233.868)" >nf=1</text>
<text fill="#aaaa00"  xml:space="preserve" font-size="2.33884" transform="translate(760.373, 389.761) rotate(270)" >1</text>
<text fill="#aaaa00"  xml:space="preserve" font-size="2.33884" transform="translate(769.93, 389.761) rotate(270)" >2</text>
<text fill="#cccccc"  xml:space="preserve" font-size="2.33884" transform="translate(762.059, 383.263) rotate(270)" >C3</text>
<text fill="#cccccc"  xml:space="preserve" font-size="2.33884" transform="translate(764.87, 383.263) rotate(270)" >100f</text>
<text fill="#cccccc"  xml:space="preserve" font-size="2.33884" transform="translate(767.681, 383.263) rotate(270)" >m=1</text>
<text fill="#cccccc"  xml:space="preserve" font-size="2.33884" transform="translate(770.272, 395.507)" >M8</text>
<text fill="#ff0000"  xml:space="preserve" font-size="1.75413" transform="translate(778.208, 405.658)" >D</text>
<text fill="#ff0000"  xml:space="preserve" font-size="1.75413" transform="translate(778.208, 395.775)" >S</text>
<text fill="#ff0000"  xml:space="preserve" font-size="1.75413" transform="translate(777.645, 399.474)" >B</text>
<text fill="#ff0000"  xml:space="preserve" font-size="1.75413" transform="translate(768.899, 399.474)" >G</text>
<text fill="#cccccc"  xml:space="preserve" font-size="2.33884" transform="translate(779.894, 397.603)" >pfet_01v8</text>
<text fill="#aaaa00"  xml:space="preserve" font-size="2.33884" transform="translate(780.175, 405.346)" >1 x 0.42 / 0.15</text>
<text fill="#aaaa00"  xml:space="preserve" font-size="2.33884" transform="translate(780.175, 402.535)" >nf=1</text>
<text fill="#cccccc"  xml:space="preserve" font-size="2.33884" transform="translate(770.272, 435.987)" >M9</text>
<text fill="#ff0000"  xml:space="preserve" font-size="1.75413" transform="translate(778.208, 446.138)" >S</text>
<text fill="#ff0000"  xml:space="preserve" font-size="1.75413" transform="translate(778.208, 436.255)" >D</text>
<text fill="#ff0000"  xml:space="preserve" font-size="1.75413" transform="translate(777.645, 439.954)" >B</text>
<text fill="#ff0000"  xml:space="preserve" font-size="1.75413" transform="translate(768.899, 439.954)" >G</text>
<text fill="#cccccc"  xml:space="preserve" font-size="2.33884" transform="translate(779.894, 438.083)" >nfet_01v8</text>
<text fill="#aaaa00"  xml:space="preserve" font-size="2.33884" transform="translate(780.175, 445.826)" >1 x 2 / 0.15</text>
<text fill="#aaaa00"  xml:space="preserve" font-size="2.33884" transform="translate(780.175, 443.015)" >nf=1</text>
<text fill="#cccccc"  xml:space="preserve" font-size="2.33884" transform="translate(843.988, 366.271)" >M10</text>
<text fill="#ff0000"  xml:space="preserve" font-size="1.75413" transform="translate(838.052, 376.423)" >D</text>
<text fill="#ff0000"  xml:space="preserve" font-size="1.75413" transform="translate(838.052, 366.54)" >S</text>
<text fill="#ff0000"  xml:space="preserve" font-size="1.75413" transform="translate(838.614, 370.238)" >B</text>
<text fill="#ff0000"  xml:space="preserve" font-size="1.75413" transform="translate(847.361, 370.238)" >G</text>
<text fill="#cccccc"  xml:space="preserve" font-size="2.33884" transform="translate(828.365, 368.368)" >pfet_01v8</text>
<text fill="#aaaa00"  xml:space="preserve" font-size="2.33884" transform="translate(822.084, 376.11)" >1 x 0.42 / 0.15</text>
<text fill="#aaaa00"  xml:space="preserve" font-size="2.33884" transform="translate(832.084, 373.299)" >nf=1</text>
<text fill="#cccccc"  xml:space="preserve" font-size="2.33884" transform="translate(832.241, 395.507)" >M11</text>
<text fill="#ff0000"  xml:space="preserve" font-size="1.75413" transform="translate(841.177, 405.658)" >D</text>
<text fill="#ff0000"  xml:space="preserve" font-size="1.75413" transform="translate(841.177, 395.775)" >S</text>
<text fill="#ff0000"  xml:space="preserve" font-size="1.75413" transform="translate(840.614, 399.474)" >B</text>
<text fill="#ff0000"  xml:space="preserve" font-size="1.75413" transform="translate(831.868, 399.474)" >G</text>
<text fill="#cccccc"  xml:space="preserve" font-size="2.33884" transform="translate(842.863, 397.603)" >pfet_01v8</text>
<text fill="#aaaa00"  xml:space="preserve" font-size="2.33884" transform="translate(843.144, 405.346)" >1 x 0.42 / 0.15</text>
<text fill="#aaaa00"  xml:space="preserve" font-size="2.33884" transform="translate(843.144, 402.535)" >nf=1</text>
<text fill="#cccccc"  xml:space="preserve" font-size="2.33884" transform="translate(832.241, 435.987)" >M12</text>
<text fill="#ff0000"  xml:space="preserve" font-size="1.75413" transform="translate(841.177, 446.138)" >S</text>
<text fill="#ff0000"  xml:space="preserve" font-size="1.75413" transform="translate(841.177, 436.255)" >D</text>
<text fill="#ff0000"  xml:space="preserve" font-size="1.75413" transform="translate(840.614, 439.954)" >B</text>
<text fill="#ff0000"  xml:space="preserve" font-size="1.75413" transform="translate(831.868, 439.954)" >G</text>
<text fill="#cccccc"  xml:space="preserve" font-size="2.33884" transform="translate(842.863, 438.083)" >nfet_01v8</text>
<text fill="#aaaa00"  xml:space="preserve" font-size="2.33884" transform="translate(843.144, 445.826)" >1 x 1.26 / 0.15</text>
<text fill="#aaaa00"  xml:space="preserve" font-size="2.33884" transform="translate(843.144, 443.015)" >nf=1</text>
<text fill="#aaaa00"  xml:space="preserve" font-size="2.33884" transform="translate(812.097, 389.761) rotate(270)" >1</text>
<text fill="#aaaa00"  xml:space="preserve" font-size="2.33884" transform="translate(821.655, 389.761) rotate(270)" >2</text>
<text fill="#cccccc"  xml:space="preserve" font-size="2.33884" transform="translate(813.784, 383.263) rotate(270)" >C4</text>
<text fill="#cccccc"  xml:space="preserve" font-size="2.33884" transform="translate(816.595, 383.263) rotate(270)" >100f</text>
<text fill="#cccccc"  xml:space="preserve" font-size="2.33884" transform="translate(819.406, 383.263) rotate(270)" >m=1</text>
<text fill="#cccccc"  xml:space="preserve" font-size="2.33884" transform="translate(781.019, 368.52)" >M7</text>
<text fill="#ff0000"  xml:space="preserve" font-size="1.75413" transform="translate(775.083, 378.672)" >D</text>
<text fill="#ff0000"  xml:space="preserve" font-size="1.75413" transform="translate(775.083, 368.788)" >S</text>
<text fill="#ff0000"  xml:space="preserve" font-size="1.75413" transform="translate(775.645, 372.487)" >B</text>
<text fill="#ff0000"  xml:space="preserve" font-size="1.75413" transform="translate(784.392, 372.487)" >G</text>
<text fill="#cccccc"  xml:space="preserve" font-size="2.33884" transform="translate(765.397, 370.616)" >pfet_01v8</text>
<text fill="#aaaa00"  xml:space="preserve" font-size="2.33884" transform="translate(759.115, 378.359)" >1 x 0.42 / 0.15</text>
<text fill="#aaaa00"  xml:space="preserve" font-size="2.33884" transform="translate(769.115, 375.548)" >nf=1</text>
<text fill="#cccccc"  xml:space="preserve" font-size="1.16942" transform="translate(732.668, 167.308)" >x4</text>
<text fill="#cccccc"  xml:space="preserve" font-size="1.16942" transform="translate(611.228, 225.779)" >x1</text>
<text fill="#cccccc"  xml:space="preserve" font-size="1.16942" transform="translate(647.21, 225.779)" >x2</text>
<text fill="#cccccc"  xml:space="preserve" font-size="1.16942" transform="translate(676.446, 225.779)" >x15</text>
<text fill="#cccccc"  xml:space="preserve" font-size="1.16942" transform="translate(705.681, 380.952)" >x22</text>
<text fill="#cccccc"  xml:space="preserve" font-size="1.16942" transform="translate(734.917, 380.952)" >x23</text>
<text fill="#cccccc"  xml:space="preserve" font-size="2.33884" transform="translate(767.526, 143.632)" >M18</text>
<text fill="#ff0000"  xml:space="preserve" font-size="1.75413" transform="translate(761.59, 153.783)" >D</text>
<text fill="#ff0000"  xml:space="preserve" font-size="1.75413" transform="translate(761.59, 143.9)" >S</text>
<text fill="#ff0000"  xml:space="preserve" font-size="1.75413" transform="translate(762.152, 147.598)" >B</text>
<text fill="#ff0000"  xml:space="preserve" font-size="1.75413" transform="translate(770.899, 147.598)" >G</text>
<text fill="#cccccc"  xml:space="preserve" font-size="2.33884" transform="translate(751.903, 145.728)" >pfet_01v8</text>
<text fill="#aaaa00"  xml:space="preserve" font-size="2.33884" transform="translate(745.622, 153.47)" >1 x 0.42 / 0.15</text>
<text fill="#aaaa00"  xml:space="preserve" font-size="2.33884" transform="translate(755.622, 150.659)" >nf=1</text>
<text fill="#cccccc"  xml:space="preserve" font-size="2.33884" transform="translate(859.73, 150.378)" >M21</text>
<text fill="#ff0000"  xml:space="preserve" font-size="1.75413" transform="translate(853.794, 160.53)" >D</text>
<text fill="#ff0000"  xml:space="preserve" font-size="1.75413" transform="translate(853.794, 150.646)" >S</text>
<text fill="#ff0000"  xml:space="preserve" font-size="1.75413" transform="translate(854.357, 154.345)" >B</text>
<text fill="#ff0000"  xml:space="preserve" font-size="1.75413" transform="translate(863.103, 154.345)" >G</text>
<text fill="#cccccc"  xml:space="preserve" font-size="2.33884" transform="translate(844.108, 152.475)" >pfet_01v8</text>
<text fill="#aaaa00"  xml:space="preserve" font-size="2.33884" transform="translate(837.827, 160.217)" >1 x 0.42 / 0.15</text>
<text fill="#aaaa00"  xml:space="preserve" font-size="2.33884" transform="translate(847.827, 157.406)" >nf=1</text>
<text fill="#aaaa00"  xml:space="preserve" font-size="2.33884" transform="translate(809.848, 160.375) rotate(270)" >1</text>
<text fill="#aaaa00"  xml:space="preserve" font-size="2.33884" transform="translate(819.406, 160.375) rotate(270)" >2</text>
<text fill="#cccccc"  xml:space="preserve" font-size="2.33884" transform="translate(811.535, 153.877) rotate(270)" >C2</text>
<text fill="#cccccc"  xml:space="preserve" font-size="2.33884" transform="translate(814.346, 153.877) rotate(270)" >100f</text>
<text fill="#cccccc"  xml:space="preserve" font-size="2.33884" transform="translate(817.157, 153.877) rotate(270)" >m=1</text>
<text fill="#cccccc"  xml:space="preserve" font-size="2.33884" transform="translate(767.526, 98.6539)" >M19</text>
<text fill="#ff0000"  xml:space="preserve" font-size="1.75413" transform="translate(761.59, 108.805)" >D</text>
<text fill="#ff0000"  xml:space="preserve" font-size="1.75413" transform="translate(761.59, 98.9221)" >S</text>
<text fill="#ff0000"  xml:space="preserve" font-size="1.75413" transform="translate(762.152, 102.621)" >B</text>
<text fill="#ff0000"  xml:space="preserve" font-size="1.75413" transform="translate(770.899, 102.621)" >G</text>
<text fill="#cccccc"  xml:space="preserve" font-size="2.33884" transform="translate(751.903, 100.75)" >pfet_01v8</text>
<text fill="#aaaa00"  xml:space="preserve" font-size="2.33884" transform="translate(745.622, 108.493)" >1 x 0.42 / 0.15</text>
<text fill="#aaaa00"  xml:space="preserve" font-size="2.33884" transform="translate(755.622, 105.682)" >nf=1</text>
<text fill="#cccccc"  xml:space="preserve" font-size="2.33884" transform="translate(859.73, 114.396)" >M20</text>
<text fill="#ff0000"  xml:space="preserve" font-size="1.75413" transform="translate(853.794, 124.547)" >D</text>
<text fill="#ff0000"  xml:space="preserve" font-size="1.75413" transform="translate(853.794, 114.664)" >S</text>
<text fill="#ff0000"  xml:space="preserve" font-size="1.75413" transform="translate(854.357, 118.363)" >B</text>
<text fill="#ff0000"  xml:space="preserve" font-size="1.75413" transform="translate(863.103, 118.363)" >G</text>
<text fill="#cccccc"  xml:space="preserve" font-size="2.33884" transform="translate(844.108, 116.492)" >pfet_01v8</text>
<text fill="#aaaa00"  xml:space="preserve" font-size="2.33884" transform="translate(837.827, 124.235)" >1 x 0.42 / 0.15</text>
<text fill="#aaaa00"  xml:space="preserve" font-size="2.33884" transform="translate(847.827, 121.424)" >nf=1</text>
<text fill="#cccccc"  xml:space="preserve" font-size="2.33884" transform="translate(847.983, 186.36)" >M22</text>
<text fill="#ff0000"  xml:space="preserve" font-size="1.75413" transform="translate(856.919, 196.512)" >D</text>
<text fill="#ff0000"  xml:space="preserve" font-size="1.75413" transform="translate(856.919, 186.629)" >S</text>
<text fill="#ff0000"  xml:space="preserve" font-size="1.75413" transform="translate(856.357, 190.327)" >B</text>
<text fill="#ff0000"  xml:space="preserve" font-size="1.75413" transform="translate(847.61, 190.327)" >G</text>
<text fill="#cccccc"  xml:space="preserve" font-size="2.33884" transform="translate(858.605, 188.457)" >pfet_01v8</text>
<text fill="#aaaa00"  xml:space="preserve" font-size="2.33884" transform="translate(858.887, 196.199)" >1 x 0.42 / 0.15</text>
<text fill="#aaaa00"  xml:space="preserve" font-size="2.33884" transform="translate(858.887, 193.388)" >nf=1</text>
<text fill="#cccccc"  xml:space="preserve" font-size="2.33884" transform="translate(755.779, 188.609)" >M23</text>
<text fill="#ff0000"  xml:space="preserve" font-size="1.75413" transform="translate(764.714, 198.761)" >D</text>
<text fill="#ff0000"  xml:space="preserve" font-size="1.75413" transform="translate(764.714, 188.878)" >S</text>
<text fill="#ff0000"  xml:space="preserve" font-size="1.75413" transform="translate(764.152, 192.576)" >B</text>
<text fill="#ff0000"  xml:space="preserve" font-size="1.75413" transform="translate(755.406, 192.576)" >G</text>
<text fill="#cccccc"  xml:space="preserve" font-size="2.33884" transform="translate(766.401, 190.706)" >pfet_01v8</text>
<text fill="#aaaa00"  xml:space="preserve" font-size="2.33884" transform="translate(766.682, 198.448)" >1 x 0.42 / 0.15</text>
<text fill="#aaaa00"  xml:space="preserve" font-size="2.33884" transform="translate(766.682, 195.637)" >nf=1</text>
<text fill="#cccccc"  xml:space="preserve" font-size="2.33884" transform="translate(781.019, 350.529)" >M24</text>
<text fill="#ff0000"  xml:space="preserve" font-size="1.75413" transform="translate(775.083, 360.68)" >D</text>
<text fill="#ff0000"  xml:space="preserve" font-size="1.75413" transform="translate(775.083, 350.797)" >S</text>
<text fill="#ff0000"  xml:space="preserve" font-size="1.75413" transform="translate(775.645, 354.496)" >B</text>
<text fill="#ff0000"  xml:space="preserve" font-size="1.75413" transform="translate(784.392, 354.496)" >G</text>
<text fill="#cccccc"  xml:space="preserve" font-size="2.33884" transform="translate(765.397, 352.625)" >pfet_01v8</text>
<text fill="#aaaa00"  xml:space="preserve" font-size="2.33884" transform="translate(759.115, 360.368)" >1 x 0.42 / 0.15</text>
<text fill="#aaaa00"  xml:space="preserve" font-size="2.33884" transform="translate(769.115, 357.557)" >nf=1</text>
<text fill="#cccccc"  xml:space="preserve" font-size="2.33884" transform="translate(781.019, 332.538)" >M25</text>
<text fill="#ff0000"  xml:space="preserve" font-size="1.75413" transform="translate(775.083, 342.689)" >D</text>
<text fill="#ff0000"  xml:space="preserve" font-size="1.75413" transform="translate(775.083, 332.806)" >S</text>
<text fill="#ff0000"  xml:space="preserve" font-size="1.75413" transform="translate(775.645, 336.505)" >B</text>
<text fill="#ff0000"  xml:space="preserve" font-size="1.75413" transform="translate(784.392, 336.505)" >G</text>
<text fill="#cccccc"  xml:space="preserve" font-size="2.33884" transform="translate(765.397, 334.634)" >pfet_01v8</text>
<text fill="#aaaa00"  xml:space="preserve" font-size="2.33884" transform="translate(759.115, 342.377)" >1 x 0.42 / 0.15</text>
<text fill="#aaaa00"  xml:space="preserve" font-size="2.33884" transform="translate(769.115, 339.566)" >nf=1</text>
<text fill="#cccccc"  xml:space="preserve" font-size="2.33884" transform="translate(843.988, 348.28)" >M26</text>
<text fill="#ff0000"  xml:space="preserve" font-size="1.75413" transform="translate(838.052, 358.432)" >D</text>
<text fill="#ff0000"  xml:space="preserve" font-size="1.75413" transform="translate(838.052, 348.548)" >S</text>
<text fill="#ff0000"  xml:space="preserve" font-size="1.75413" transform="translate(838.614, 352.247)" >B</text>
<text fill="#ff0000"  xml:space="preserve" font-size="1.75413" transform="translate(847.361, 352.247)" >G</text>
<text fill="#cccccc"  xml:space="preserve" font-size="2.33884" transform="translate(828.365, 350.376)" >pfet_01v8</text>
<text fill="#aaaa00"  xml:space="preserve" font-size="2.33884" transform="translate(822.084, 358.119)" >1 x 0.42 / 0.15</text>
<text fill="#aaaa00"  xml:space="preserve" font-size="2.33884" transform="translate(832.084, 355.308)" >nf=1</text>
<text fill="#cccccc"  xml:space="preserve" font-size="2.33884" transform="translate(843.988, 330.289)" >M27</text>
<text fill="#ff0000"  xml:space="preserve" font-size="1.75413" transform="translate(838.052, 340.44)" >D</text>
<text fill="#ff0000"  xml:space="preserve" font-size="1.75413" transform="translate(838.052, 330.557)" >S</text>
<text fill="#ff0000"  xml:space="preserve" font-size="1.75413" transform="translate(838.614, 334.256)" >B</text>
<text fill="#ff0000"  xml:space="preserve" font-size="1.75413" transform="translate(847.361, 334.256)" >G</text>
<text fill="#cccccc"  xml:space="preserve" font-size="2.33884" transform="translate(828.365, 332.385)" >pfet_01v8</text>
<text fill="#aaaa00"  xml:space="preserve" font-size="2.33884" transform="translate(822.084, 340.128)" >1 x 0.42 / 0.15</text>
<text fill="#aaaa00"  xml:space="preserve" font-size="2.33884" transform="translate(832.084, 337.317)" >nf=1</text>
<text fill="#cccccc"  xml:space="preserve" font-size="2.33884" transform="translate(769.272, 411.249)" >M28</text>
<text fill="#ff0000"  xml:space="preserve" font-size="1.75413" transform="translate(778.208, 421.4)" >D</text>
<text fill="#ff0000"  xml:space="preserve" font-size="1.75413" transform="translate(778.208, 411.517)" >S</text>
<text fill="#ff0000"  xml:space="preserve" font-size="1.75413" transform="translate(777.645, 415.216)" >B</text>
<text fill="#ff0000"  xml:space="preserve" font-size="1.75413" transform="translate(768.899, 415.216)" >G</text>
<text fill="#cccccc"  xml:space="preserve" font-size="2.33884" transform="translate(779.894, 413.345)" >pfet_01v8</text>
<text fill="#aaaa00"  xml:space="preserve" font-size="2.33884" transform="translate(780.175, 421.088)" >1 x 0.42 / 0.15</text>
<text fill="#aaaa00"  xml:space="preserve" font-size="2.33884" transform="translate(780.175, 418.277)" >nf=1</text>
<text fill="#cccccc"  xml:space="preserve" font-size="2.33884" transform="translate(832.241, 411.249)" >M29</text>
<text fill="#ff0000"  xml:space="preserve" font-size="1.75413" transform="translate(841.177, 421.4)" >D</text>
<text fill="#ff0000"  xml:space="preserve" font-size="1.75413" transform="translate(841.177, 411.517)" >S</text>
<text fill="#ff0000"  xml:space="preserve" font-size="1.75413" transform="translate(840.614, 415.216)" >B</text>
<text fill="#ff0000"  xml:space="preserve" font-size="1.75413" transform="translate(831.868, 415.216)" >G</text>
<text fill="#cccccc"  xml:space="preserve" font-size="2.33884" transform="translate(842.863, 413.345)" >pfet_01v8</text>
<text fill="#aaaa00"  xml:space="preserve" font-size="2.33884" transform="translate(843.144, 421.088)" >1 x 0.42 / 0.15</text>
<text fill="#aaaa00"  xml:space="preserve" font-size="2.33884" transform="translate(843.144, 418.277)" >nf=1</text>
<text fill="#cccccc"  xml:space="preserve" font-size="1.16942" transform="translate(674.197, 380.952)" >x9</text>
<path class="l4" d="M751.783 172.992L757.406 172.992"/>
<path class="l4" d="M743.912 172.992L749.534 172.992"/>
<path class="l4" d="M749.534 170.743L749.534 175.241"/>
<path class="l4" d="M751.783 170.743L751.783 175.241"/>
<path class="l4" d="M745.599 171.306L745.599 172.43"/>
<path class="l4" d="M745.037 171.868L746.161 171.868"/>
<path class="l4" d="M766.963 120.706L766.963 130.826"/>
<path class="l4" d="M764.152 119.019L764.152 121.83"/>
<path class="l4" d="M764.152 129.701L764.152 132.512"/>
<path class="l4" d="M768.088 122.392L768.088 129.139"/>
<path class="l4" d="M764.152 129.701L766.963 129.701"/>
<path class="l4" d="M764.152 121.83L765.839 121.83"/>
<path class="l4" d="M770.337 125.766L773.148 125.766"/>
<path class="l4" d="M765.839 121.268L766.963 121.83L765.839 122.392L765.839 121.268"/>
<circle class="l4" cx="769.212" cy="125.766" r="1.12444" style="fill:none;"/>
<path class="l4" d="M761.341 201.666L761.341 211.786"/>
<path class="l4" d="M764.152 199.979L764.152 202.79"/>
<path class="l4" d="M764.152 210.661L764.152 213.472"/>
<path class="l4" d="M760.217 203.352L760.217 210.099"/>
<path class="l4" d="M761.341 210.661L764.152 210.661"/>
<path class="l4" d="M762.466 202.79L764.152 202.79"/>
<path class="l4" d="M755.157 206.726L757.968 206.726"/>
<path class="l4" d="M762.466 202.228L761.341 202.79L762.466 203.352L762.466 202.228"/>
<circle class="l4" cx="759.092" cy="206.726" r="1.12444" style="fill:none;"/>
<path class="l4" d="M761.341 235.399L761.341 245.519"/>
<path class="l4" d="M755.157 240.459L760.217 240.459"/>
<path class="l4" d="M764.152 233.712L764.152 236.523"/>
<path class="l4" d="M764.152 244.394L764.152 247.206"/>
<path class="l4" d="M760.217 237.086L760.217 243.832"/>
<path class="l4" d="M761.341 236.523L764.152 236.523"/>
<path class="l4" d="M761.341 244.394L763.028 244.394"/>
<path class="l4" d="M763.028 243.832L764.152 244.394L763.028 244.957L763.028 243.832"/>
<path class="l4" d="M859.168 131.95L859.168 142.07"/>
<path class="l4" d="M856.357 130.264L856.357 133.075"/>
<path class="l4" d="M856.357 140.946L856.357 143.757"/>
<path class="l4" d="M860.292 133.637L860.292 140.384"/>
<path class="l4" d="M856.357 140.946L859.168 140.946"/>
<path class="l4" d="M856.357 133.075L858.043 133.075"/>
<path class="l4" d="M862.541 137.01L865.352 137.01"/>
<path class="l4" d="M858.043 132.512L859.168 133.075L858.043 133.637L858.043 132.512"/>
<circle class="l4" cx="861.417" cy="137.01" r="1.12444" style="fill:none;"/>
<path class="l4" d="M853.545 199.417L853.545 209.537"/>
<path class="l4" d="M856.357 197.73L856.357 200.541"/>
<path class="l4" d="M856.357 208.412L856.357 211.223"/>
<path class="l4" d="M852.421 201.103L852.421 207.85"/>
<path class="l4" d="M853.545 208.412L856.357 208.412"/>
<path class="l4" d="M854.67 200.541L856.357 200.541"/>
<path class="l4" d="M847.361 204.477L850.172 204.477"/>
<path class="l4" d="M854.67 199.979L853.545 200.541L854.67 201.103L854.67 199.979"/>
<circle class="l4" cx="851.297" cy="204.477" r="1.12444" style="fill:none;"/>
<path class="l4" d="M853.545 226.403L853.545 236.523"/>
<path class="l4" d="M847.361 231.463L852.421 231.463"/>
<path class="l4" d="M856.357 224.717L856.357 227.528"/>
<path class="l4" d="M856.357 235.399L856.357 238.21"/>
<path class="l4" d="M852.421 228.09L852.421 234.837"/>
<path class="l4" d="M853.545 227.528L856.357 227.528"/>
<path class="l4" d="M853.545 235.399L855.232 235.399"/>
<path class="l4" d="M855.232 234.837L856.357 235.399L855.232 235.961L855.232 234.837"/>
<path class="l4" d="M765.277 386.637L770.899 386.637"/>
<path class="l4" d="M757.406 386.637L763.028 386.637"/>
<path class="l4" d="M763.028 384.388L763.028 388.885"/>
<path class="l4" d="M765.277 384.388L765.277 388.885"/>
<path class="l4" d="M759.092 384.95L759.092 386.074"/>
<path class="l4" d="M758.53 385.512L759.654 385.512"/>
<path class="l4" d="M774.834 395.07L774.834 405.19"/>
<path class="l4" d="M777.645 393.383L777.645 396.194"/>
<path class="l4" d="M777.645 404.065L777.645 406.877"/>
<path class="l4" d="M773.71 396.757L773.71 403.503"/>
<path class="l4" d="M774.834 404.065L777.645 404.065"/>
<path class="l4" d="M775.959 396.194L777.645 396.194"/>
<path class="l4" d="M768.65 400.13L771.461 400.13"/>
<path class="l4" d="M775.959 395.632L774.834 396.194L775.959 396.757L775.959 395.632"/>
<circle class="l4" cx="772.585" cy="400.13" r="1.12444" style="fill:none;"/>
<path class="l4" d="M774.834 435.55L774.834 445.67"/>
<path class="l4" d="M768.65 440.61L773.71 440.61"/>
<path class="l4" d="M777.645 433.863L777.645 436.674"/>
<path class="l4" d="M777.645 444.545L777.645 447.356"/>
<path class="l4" d="M773.71 437.236L773.71 443.983"/>
<path class="l4" d="M774.834 436.674L777.645 436.674"/>
<path class="l4" d="M774.834 444.545L776.521 444.545"/>
<path class="l4" d="M776.521 443.983L777.645 444.545L776.521 445.108L776.521 443.983"/>
<path class="l4" d="M843.425 365.834L843.425 375.954"/>
<path class="l4" d="M840.614 364.148L840.614 366.959"/>
<path class="l4" d="M840.614 374.83L840.614 377.641"/>
<path class="l4" d="M844.55 367.521L844.55 374.268"/>
<path class="l4" d="M840.614 374.83L843.425 374.83"/>
<path class="l4" d="M840.614 366.959L842.301 366.959"/>
<path class="l4" d="M846.799 370.894L849.61 370.894"/>
<path class="l4" d="M842.301 366.397L843.425 366.959L842.301 367.521L842.301 366.397"/>
<circle class="l4" cx="845.674" cy="370.894" r="1.12444" style="fill:none;"/>
<path class="l4" d="M837.803 395.07L837.803 405.19"/>
<path class="l4" d="M840.614 393.383L840.614 396.194"/>
<path class="l4" d="M840.614 404.065L840.614 406.877"/>
<path class="l4" d="M836.679 396.757L836.679 403.503"/>
<path class="l4" d="M837.803 404.065L840.614 404.065"/>
<path class="l4" d="M838.928 396.194L840.614 396.194"/>
<path class="l4" d="M831.619 400.13L834.43 400.13"/>
<path class="l4" d="M838.928 395.632L837.803 396.194L838.928 396.757L838.928 395.632"/>
<circle class="l4" cx="835.554" cy="400.13" r="1.12444" style="fill:none;"/>
<path class="l4" d="M837.803 435.55L837.803 445.67"/>
<path class="l4" d="M831.619 440.61L836.679 440.61"/>
<path class="l4" d="M840.614 433.863L840.614 436.674"/>
<path class="l4" d="M840.614 444.545L840.614 447.356"/>
<path class="l4" d="M836.679 437.236L836.679 443.983"/>
<path class="l4" d="M837.803 436.674L840.614 436.674"/>
<path class="l4" d="M837.803 444.545L839.49 444.545"/>
<path class="l4" d="M839.49 443.983L840.614 444.545L839.49 445.108L839.49 443.983"/>
<path class="l4" d="M817.001 386.637L822.623 386.637"/>
<path class="l4" d="M809.13 386.637L814.752 386.637"/>
<path class="l4" d="M814.752 384.388L814.752 388.885"/>
<path class="l4" d="M817.001 384.388L817.001 388.885"/>
<path class="l4" d="M810.817 384.95L810.817 386.074"/>
<path class="l4" d="M810.254 385.512L811.379 385.512"/>
<path class="l4" d="M780.457 368.083L780.457 378.203"/>
<path class="l4" d="M777.645 366.397L777.645 369.208"/>
<path class="l4" d="M777.645 377.079L777.645 379.89"/>
<path class="l4" d="M781.581 369.77L781.581 376.517"/>
<path class="l4" d="M777.645 377.079L780.457 377.079"/>
<path class="l4" d="M777.645 369.208L779.332 369.208"/>
<path class="l4" d="M783.83 373.143L786.641 373.143"/>
<path class="l4" d="M779.332 368.645L780.457 369.208L779.332 369.77L779.332 368.645"/>
<circle class="l4" cx="782.705" cy="373.143" r="1.12444" style="fill:none;"/>
<path class="l4" d="M725.921 168.495L725.921 179.739"/>
<path class="l4" d="M725.921 179.739L737.166 172.992"/>
<path class="l4" d="M725.921 166.246L737.166 172.992"/>
<path class="l4" d="M725.921 166.246L725.921 168.495"/>
<path class="l4" d="M725.921 170.743L728.17 168.495"/>
<path class="l4" d="M725.921 170.743L728.17 172.992"/>
<path class="l4" d="M725.921 175.241L728.17 172.992"/>
<path class="l4" d="M725.921 175.241L728.17 177.49"/>
<path class="l4" d="M728.17 172.992L730.419 170.743"/>
<path class="l4" d="M728.17 172.992L730.419 175.241"/>
<path class="l4" d="M730.419 170.743L732.668 170.743"/>
<path class="l4" d="M730.419 175.241L732.668 175.241"/>
<path class="l4" d="M728.17 168.495L730.419 170.743"/>
<path class="l4" d="M728.17 177.49L730.419 175.241"/>
<path class="l4" d="M732.668 170.743L734.917 172.992"/>
<path class="l4" d="M732.668 175.241L734.917 172.992"/>
<path class="l4" d="M741.663 172.992L743.912 172.992"/>
<path class="l4" d="M730.419 163.997L730.419 168.495"/>
<path class="l4" d="M730.419 177.49L730.419 181.988"/>
<path class="l4" d="M721.423 172.992L725.921 172.992"/>
<path class="l4" d="M730.419 168.495L730.419 170.743"/>
<path class="l4" d="M730.419 175.241L730.419 177.49"/>
<circle class="l4" cx="739.414" cy="172.992" r="2.24889" style="fill:none;"/>
<path class="l4" d="M604.481 226.966L604.481 238.21"/>
<path class="l4" d="M604.481 238.21L615.726 231.463"/>
<path class="l4" d="M604.481 224.717L615.726 231.463"/>
<path class="l4" d="M604.481 224.717L604.481 226.966"/>
<path class="l4" d="M604.481 229.215L606.73 226.966"/>
<path class="l4" d="M604.481 229.215L606.73 231.463"/>
<path class="l4" d="M604.481 233.712L606.73 231.463"/>
<path class="l4" d="M604.481 233.712L606.73 235.961"/>
<path class="l4" d="M606.73 231.463L608.979 229.215"/>
<path class="l4" d="M606.73 231.463L608.979 233.712"/>
<path class="l4" d="M608.979 229.215L611.228 229.215"/>
<path class="l4" d="M608.979 233.712L611.228 233.712"/>
<path class="l4" d="M606.73 226.966L608.979 229.215"/>
<path class="l4" d="M606.73 235.961L608.979 233.712"/>
<path class="l4" d="M611.228 229.215L613.477 231.463"/>
<path class="l4" d="M611.228 233.712L613.477 231.463"/>
<path class="l4" d="M620.223 231.463L622.472 231.463"/>
<path class="l4" d="M608.979 222.468L608.979 226.966"/>
<path class="l4" d="M608.979 235.961L608.979 240.459"/>
<path class="l4" d="M599.983 231.463L604.481 231.463"/>
<path class="l4" d="M608.979 226.966L608.979 229.215"/>
<path class="l4" d="M608.979 233.712L608.979 235.961"/>
<circle class="l4" cx="617.975" cy="231.463" r="2.24889" style="fill:none;"/>
<path class="l4" d="M640.463 226.966L640.463 238.21"/>
<path class="l4" d="M640.463 238.21L651.708 231.463"/>
<path class="l4" d="M640.463 224.717L651.708 231.463"/>
<path class="l4" d="M640.463 224.717L640.463 226.966"/>
<path class="l4" d="M640.463 229.215L642.712 226.966"/>
<path class="l4" d="M640.463 229.215L642.712 231.463"/>
<path class="l4" d="M640.463 233.712L642.712 231.463"/>
<path class="l4" d="M640.463 233.712L642.712 235.961"/>
<path class="l4" d="M642.712 231.463L644.961 229.215"/>
<path class="l4" d="M642.712 231.463L644.961 233.712"/>
<path class="l4" d="M644.961 229.215L647.21 229.215"/>
<path class="l4" d="M644.961 233.712L647.21 233.712"/>
<path class="l4" d="M642.712 226.966L644.961 229.215"/>
<path class="l4" d="M642.712 235.961L644.961 233.712"/>
<path class="l4" d="M647.21 229.215L649.459 231.463"/>
<path class="l4" d="M647.21 233.712L649.459 231.463"/>
<path class="l4" d="M656.206 231.463L658.455 231.463"/>
<path class="l4" d="M644.961 222.468L644.961 226.966"/>
<path class="l4" d="M644.961 235.961L644.961 240.459"/>
<path class="l4" d="M635.966 231.463L640.463 231.463"/>
<path class="l4" d="M644.961 226.966L644.961 229.215"/>
<path class="l4" d="M644.961 233.712L644.961 235.961"/>
<circle class="l4" cx="653.957" cy="231.463" r="2.24889" style="fill:none;"/>
<path class="l4" d="M669.699 226.966L669.699 238.21"/>
<path class="l4" d="M669.699 238.21L680.943 231.463"/>
<path class="l4" d="M669.699 224.717L680.943 231.463"/>
<path class="l4" d="M669.699 224.717L669.699 226.966"/>
<path class="l4" d="M669.699 229.215L671.948 226.966"/>
<path class="l4" d="M669.699 229.215L671.948 231.463"/>
<path class="l4" d="M669.699 233.712L671.948 231.463"/>
<path class="l4" d="M669.699 233.712L671.948 235.961"/>
<path class="l4" d="M671.948 231.463L674.197 229.215"/>
<path class="l4" d="M671.948 231.463L674.197 233.712"/>
<path class="l4" d="M674.197 229.215L676.446 229.215"/>
<path class="l4" d="M674.197 233.712L676.446 233.712"/>
<path class="l4" d="M671.948 226.966L674.197 229.215"/>
<path class="l4" d="M671.948 235.961L674.197 233.712"/>
<path class="l4" d="M676.446 229.215L678.694 231.463"/>
<path class="l4" d="M676.446 233.712L678.694 231.463"/>
<path class="l4" d="M685.441 231.463L687.69 231.463"/>
<path class="l4" d="M674.197 222.468L674.197 226.966"/>
<path class="l4" d="M674.197 235.961L674.197 240.459"/>
<path class="l4" d="M665.201 231.463L669.699 231.463"/>
<path class="l4" d="M674.197 226.966L674.197 229.215"/>
<path class="l4" d="M674.197 233.712L674.197 235.961"/>
<circle class="l4" cx="683.192" cy="231.463" r="2.24889" style="fill:none;"/>
<path class="l4" d="M698.934 382.139L698.934 393.383"/>
<path class="l4" d="M698.934 393.383L710.179 386.637"/>
<path class="l4" d="M698.934 379.89L710.179 386.637"/>
<path class="l4" d="M698.934 379.89L698.934 382.139"/>
<path class="l4" d="M698.934 384.388L701.183 382.139"/>
<path class="l4" d="M698.934 384.388L701.183 386.637"/>
<path class="l4" d="M698.934 388.885L701.183 386.637"/>
<path class="l4" d="M698.934 388.885L701.183 391.134"/>
<path class="l4" d="M701.183 386.637L703.432 384.388"/>
<path class="l4" d="M701.183 386.637L703.432 388.885"/>
<path class="l4" d="M703.432 384.388L705.681 384.388"/>
<path class="l4" d="M703.432 388.885L705.681 388.885"/>
<path class="l4" d="M701.183 382.139L703.432 384.388"/>
<path class="l4" d="M701.183 391.134L703.432 388.885"/>
<path class="l4" d="M705.681 384.388L707.93 386.637"/>
<path class="l4" d="M705.681 388.885L707.93 386.637"/>
<path class="l4" d="M714.677 386.637L716.926 386.637"/>
<path class="l4" d="M703.432 377.641L703.432 382.139"/>
<path class="l4" d="M703.432 391.134L703.432 395.632"/>
<path class="l4" d="M694.437 386.637L698.934 386.637"/>
<path class="l4" d="M703.432 382.139L703.432 384.388"/>
<path class="l4" d="M703.432 388.885L703.432 391.134"/>
<circle class="l4" cx="712.428" cy="386.637" r="2.24889" style="fill:none;"/>
<path class="l4" d="M728.17 382.139L728.17 393.383"/>
<path class="l4" d="M728.17 393.383L739.414 386.637"/>
<path class="l4" d="M728.17 379.89L739.414 386.637"/>
<path class="l4" d="M728.17 379.89L728.17 382.139"/>
<path class="l4" d="M728.17 384.388L730.419 382.139"/>
<path class="l4" d="M728.17 384.388L730.419 386.637"/>
<path class="l4" d="M728.17 388.885L730.419 386.637"/>
<path class="l4" d="M728.17 388.885L730.419 391.134"/>
<path class="l4" d="M730.419 386.637L732.668 384.388"/>
<path class="l4" d="M730.419 386.637L732.668 388.885"/>
<path class="l4" d="M732.668 384.388L734.917 384.388"/>
<path class="l4" d="M732.668 388.885L734.917 388.885"/>
<path class="l4" d="M730.419 382.139L732.668 384.388"/>
<path class="l4" d="M730.419 391.134L732.668 388.885"/>
<path class="l4" d="M734.917 384.388L737.166 386.637"/>
<path class="l4" d="M734.917 388.885L737.166 386.637"/>
<path class="l4" d="M743.912 386.637L746.161 386.637"/>
<path class="l4" d="M732.668 377.641L732.668 382.139"/>
<path class="l4" d="M732.668 391.134L732.668 395.632"/>
<path class="l4" d="M723.672 386.637L728.17 386.637"/>
<path class="l4" d="M732.668 382.139L732.668 384.388"/>
<path class="l4" d="M732.668 388.885L732.668 391.134"/>
<circle class="l4" cx="741.663" cy="386.637" r="2.24889" style="fill:none;"/>
<path class="l4" d="M766.963 143.195L766.963 153.315"/>
<path class="l4" d="M764.152 141.508L764.152 144.319"/>
<path class="l4" d="M764.152 152.19L764.152 155.001"/>
<path class="l4" d="M768.088 144.881L768.088 151.628"/>
<path class="l4" d="M764.152 152.19L766.963 152.19"/>
<path class="l4" d="M764.152 144.319L765.839 144.319"/>
<path class="l4" d="M770.337 148.255L773.148 148.255"/>
<path class="l4" d="M765.839 143.757L766.963 144.319L765.839 144.881L765.839 143.757"/>
<circle class="l4" cx="769.212" cy="148.255" r="1.12444" style="fill:none;"/>
<path class="l4" d="M859.168 149.941L859.168 160.061"/>
<path class="l4" d="M856.357 148.255L856.357 151.066"/>
<path class="l4" d="M856.357 158.937L856.357 161.748"/>
<path class="l4" d="M860.292 151.628L860.292 158.375"/>
<path class="l4" d="M856.357 158.937L859.168 158.937"/>
<path class="l4" d="M856.357 151.066L858.043 151.066"/>
<path class="l4" d="M862.541 155.001L865.352 155.001"/>
<path class="l4" d="M858.043 150.503L859.168 151.066L858.043 151.628L858.043 150.503"/>
<circle class="l4" cx="861.417" cy="155.001" r="1.12444" style="fill:none;"/>
<path class="l4" d="M814.752 157.25L820.374 157.25"/>
<path class="l4" d="M806.881 157.25L812.503 157.25"/>
<path class="l4" d="M812.503 155.001L812.503 159.499"/>
<path class="l4" d="M814.752 155.001L814.752 159.499"/>
<path class="l4" d="M808.568 155.563L808.568 156.688"/>
<path class="l4" d="M808.005 156.126L809.13 156.126"/>
<path class="l4" d="M766.963 98.2169L766.963 108.337"/>
<path class="l4" d="M764.152 96.5302L764.152 99.3413"/>
<path class="l4" d="M764.152 107.212L764.152 110.024"/>
<path class="l4" d="M768.088 99.9035L768.088 106.65"/>
<path class="l4" d="M764.152 107.212L766.963 107.212"/>
<path class="l4" d="M764.152 99.3413L765.839 99.3413"/>
<path class="l4" d="M770.337 103.277L773.148 103.277"/>
<path class="l4" d="M765.839 98.7791L766.963 99.3413L765.839 99.9035L765.839 98.7791"/>
<circle class="l4" cx="769.212" cy="103.277" r="1.12444" style="fill:none;"/>
<path class="l4" d="M859.168 113.959L859.168 124.079"/>
<path class="l4" d="M856.357 112.272L856.357 115.084"/>
<path class="l4" d="M856.357 122.955L856.357 125.766"/>
<path class="l4" d="M860.292 115.646L860.292 122.392"/>
<path class="l4" d="M856.357 122.955L859.168 122.955"/>
<path class="l4" d="M856.357 115.084L858.043 115.084"/>
<path class="l4" d="M862.541 119.019L865.352 119.019"/>
<path class="l4" d="M858.043 114.521L859.168 115.084L858.043 115.646L858.043 114.521"/>
<circle class="l4" cx="861.417" cy="119.019" r="1.12444" style="fill:none;"/>
<path class="l4" d="M853.545 185.923L853.545 196.043"/>
<path class="l4" d="M856.357 184.237L856.357 187.048"/>
<path class="l4" d="M856.357 194.919L856.357 197.73"/>
<path class="l4" d="M852.421 187.61L852.421 194.357"/>
<path class="l4" d="M853.545 194.919L856.357 194.919"/>
<path class="l4" d="M854.67 187.048L856.357 187.048"/>
<path class="l4" d="M847.361 190.983L850.172 190.983"/>
<path class="l4" d="M854.67 186.486L853.545 187.048L854.67 187.61L854.67 186.486"/>
<circle class="l4" cx="851.297" cy="190.983" r="1.12444" style="fill:none;"/>
<path class="l4" d="M761.341 188.172L761.341 198.292"/>
<path class="l4" d="M764.152 186.486L764.152 189.297"/>
<path class="l4" d="M764.152 197.168L764.152 199.979"/>
<path class="l4" d="M760.217 189.859L760.217 196.606"/>
<path class="l4" d="M761.341 197.168L764.152 197.168"/>
<path class="l4" d="M762.466 189.297L764.152 189.297"/>
<path class="l4" d="M755.157 193.232L757.968 193.232"/>
<path class="l4" d="M762.466 188.735L761.341 189.297L762.466 189.859L762.466 188.735"/>
<circle class="l4" cx="759.092" cy="193.232" r="1.12444" style="fill:none;"/>
<path class="l4" d="M780.457 350.092L780.457 360.212"/>
<path class="l4" d="M777.645 348.405L777.645 351.217"/>
<path class="l4" d="M777.645 359.088L777.645 361.899"/>
<path class="l4" d="M781.581 351.779L781.581 358.525"/>
<path class="l4" d="M777.645 359.088L780.457 359.088"/>
<path class="l4" d="M777.645 351.217L779.332 351.217"/>
<path class="l4" d="M783.83 355.152L786.641 355.152"/>
<path class="l4" d="M779.332 350.654L780.457 351.217L779.332 351.779L779.332 350.654"/>
<circle class="l4" cx="782.705" cy="355.152" r="1.12444" style="fill:none;"/>
<path class="l4" d="M780.457 332.101L780.457 342.221"/>
<path class="l4" d="M777.645 330.414L777.645 333.225"/>
<path class="l4" d="M777.645 341.097L777.645 343.908"/>
<path class="l4" d="M781.581 333.788L781.581 340.534"/>
<path class="l4" d="M777.645 341.097L780.457 341.097"/>
<path class="l4" d="M777.645 333.225L779.332 333.225"/>
<path class="l4" d="M783.83 337.161L786.641 337.161"/>
<path class="l4" d="M779.332 332.663L780.457 333.225L779.332 333.788L779.332 332.663"/>
<circle class="l4" cx="782.705" cy="337.161" r="1.12444" style="fill:none;"/>
<path class="l4" d="M843.425 347.843L843.425 357.963"/>
<path class="l4" d="M840.614 346.157L840.614 348.968"/>
<path class="l4" d="M840.614 356.839L840.614 359.65"/>
<path class="l4" d="M844.55 349.53L844.55 356.277"/>
<path class="l4" d="M840.614 356.839L843.425 356.839"/>
<path class="l4" d="M840.614 348.968L842.301 348.968"/>
<path class="l4" d="M846.799 352.903L849.61 352.903"/>
<path class="l4" d="M842.301 348.405L843.425 348.968L842.301 349.53L842.301 348.405"/>
<circle class="l4" cx="845.674" cy="352.903" r="1.12444" style="fill:none;"/>
<path class="l4" d="M843.425 329.852L843.425 339.972"/>
<path class="l4" d="M840.614 328.166L840.614 330.977"/>
<path class="l4" d="M840.614 338.848L840.614 341.659"/>
<path class="l4" d="M844.55 331.539L844.55 338.285"/>
<path class="l4" d="M840.614 338.848L843.425 338.848"/>
<path class="l4" d="M840.614 330.977L842.301 330.977"/>
<path class="l4" d="M846.799 334.912L849.61 334.912"/>
<path class="l4" d="M842.301 330.414L843.425 330.977L842.301 331.539L842.301 330.414"/>
<circle class="l4" cx="845.674" cy="334.912" r="1.12444" style="fill:none;"/>
<path class="l4" d="M774.834 410.812L774.834 420.932"/>
<path class="l4" d="M777.645 409.125L777.645 411.937"/>
<path class="l4" d="M777.645 419.808L777.645 422.619"/>
<path class="l4" d="M773.71 412.499L773.71 419.245"/>
<path class="l4" d="M774.834 419.808L777.645 419.808"/>
<path class="l4" d="M775.959 411.937L777.645 411.937"/>
<path class="l4" d="M768.65 415.872L771.461 415.872"/>
<path class="l4" d="M775.959 411.374L774.834 411.937L775.959 412.499L775.959 411.374"/>
<circle class="l4" cx="772.585" cy="415.872" r="1.12444" style="fill:none;"/>
<path class="l4" d="M837.803 410.812L837.803 420.932"/>
<path class="l4" d="M840.614 409.125L840.614 411.937"/>
<path class="l4" d="M840.614 419.808L840.614 422.619"/>
<path class="l4" d="M836.679 412.499L836.679 419.245"/>
<path class="l4" d="M837.803 419.808L840.614 419.808"/>
<path class="l4" d="M838.928 411.937L840.614 411.937"/>
<path class="l4" d="M831.619 415.872L834.43 415.872"/>
<path class="l4" d="M838.928 411.374L837.803 411.937L838.928 412.499L838.928 411.374"/>
<circle class="l4" cx="835.554" cy="415.872" r="1.12444" style="fill:none;"/>
<path class="l4" d="M667.45 382.139L667.45 393.383"/>
<path class="l4" d="M667.45 393.383L678.694 386.637"/>
<path class="l4" d="M667.45 379.89L678.694 386.637"/>
<path class="l4" d="M667.45 379.89L667.45 382.139"/>
<path class="l4" d="M667.45 384.388L669.699 382.139"/>
<path class="l4" d="M667.45 384.388L669.699 386.637"/>
<path class="l4" d="M667.45 388.885L669.699 386.637"/>
<path class="l4" d="M667.45 388.885L669.699 391.134"/>
<path class="l4" d="M669.699 386.637L671.948 384.388"/>
<path class="l4" d="M669.699 386.637L671.948 388.885"/>
<path class="l4" d="M671.948 384.388L674.197 384.388"/>
<path class="l4" d="M671.948 388.885L674.197 388.885"/>
<path class="l4" d="M669.699 382.139L671.948 384.388"/>
<path class="l4" d="M669.699 391.134L671.948 388.885"/>
<path class="l4" d="M674.197 384.388L676.446 386.637"/>
<path class="l4" d="M674.197 388.885L676.446 386.637"/>
<path class="l4" d="M683.192 386.637L685.441 386.637"/>
<path class="l4" d="M671.948 377.641L671.948 382.139"/>
<path class="l4" d="M671.948 391.134L671.948 395.632"/>
<path class="l4" d="M662.952 386.637L667.45 386.637"/>
<path class="l4" d="M671.948 382.139L671.948 384.388"/>
<path class="l4" d="M671.948 388.885L671.948 391.134"/>
<circle class="l4" cx="680.943" cy="386.637" r="2.24889" style="fill:none;"/>
<path class="l5" d="M743.35 172.43L744.474 172.43L744.474 173.555L743.35 173.555L743.35 172.43z"/>
<path class="l5" d="M756.843 172.43L757.968 172.43L757.968 173.555L756.843 173.555L756.843 172.43z"/>
<path class="l5" d="M765.277 125.204L764.152 125.766L765.277 126.328L765.277 125.204"/>
<path class="l5" d="M763.59 131.95L764.714 131.95L764.714 133.075L763.59 133.075L763.59 131.95z"/>
<path class="l5" d="M772.585 125.204L773.71 125.204L773.71 126.328L772.585 126.328L772.585 125.204z"/>
<path class="l5" d="M763.59 118.457L764.714 118.457L764.714 119.581L763.59 119.581L763.59 118.457z"/>
<path class="l5" d="M764.135 125.748L764.17 125.748L764.17 125.783L764.135 125.783L764.135 125.748z"/>
<path class="l5" d="M763.028 206.163L764.152 206.726L763.028 207.288L763.028 206.163"/>
<path class="l5" d="M763.59 212.91L764.714 212.91L764.714 214.035L763.59 214.035L763.59 212.91z"/>
<path class="l5" d="M754.594 206.163L755.719 206.163L755.719 207.288L754.594 207.288L754.594 206.163z"/>
<path class="l5" d="M763.59 199.417L764.714 199.417L764.714 200.541L763.59 200.541L763.59 199.417z"/>
<path class="l5" d="M764.135 206.708L764.17 206.708L764.17 206.743L764.135 206.743L764.135 206.708z"/>
<path class="l5" d="M764.152 239.897L763.028 240.459L764.152 241.021L764.152 239.897"/>
<path class="l5" d="M763.59 233.15L764.714 233.15L764.714 234.275L763.59 234.275L763.59 233.15z"/>
<path class="l5" d="M754.594 239.897L755.719 239.897L755.719 241.021L754.594 241.021L754.594 239.897z"/>
<path class="l5" d="M763.59 246.643L764.714 246.643L764.714 247.768L763.59 247.768L763.59 246.643z"/>
<path class="l5" d="M764.135 240.441L764.17 240.441L764.17 240.477L764.135 240.477L764.135 240.441z"/>
<path class="l5" d="M857.481 136.448L856.357 137.01L857.481 137.572L857.481 136.448"/>
<path class="l5" d="M855.794 143.195L856.919 143.195L856.919 144.319L855.794 144.319L855.794 143.195z"/>
<path class="l5" d="M864.79 136.448L865.914 136.448L865.914 137.572L864.79 137.572L864.79 136.448z"/>
<path class="l5" d="M855.794 129.701L856.919 129.701L856.919 130.826L855.794 130.826L855.794 129.701z"/>
<path class="l5" d="M856.339 136.993L856.374 136.993L856.374 137.028L856.339 137.028L856.339 136.993z"/>
<path class="l5" d="M855.232 203.915L856.357 204.477L855.232 205.039L855.232 203.915"/>
<path class="l5" d="M855.794 210.661L856.919 210.661L856.919 211.786L855.794 211.786L855.794 210.661z"/>
<path class="l5" d="M846.799 203.915L847.923 203.915L847.923 205.039L846.799 205.039L846.799 203.915z"/>
<path class="l5" d="M855.794 197.168L856.919 197.168L856.919 198.292L855.794 198.292L855.794 197.168z"/>
<path class="l5" d="M856.339 204.459L856.374 204.459L856.374 204.494L856.339 204.494L856.339 204.459z"/>
<path class="l5" d="M856.357 230.901L855.232 231.463L856.357 232.026L856.357 230.901"/>
<path class="l5" d="M855.794 224.155L856.919 224.155L856.919 225.279L855.794 225.279L855.794 224.155z"/>
<path class="l5" d="M846.799 230.901L847.923 230.901L847.923 232.026L846.799 232.026L846.799 230.901z"/>
<path class="l5" d="M855.794 237.648L856.919 237.648L856.919 238.772L855.794 238.772L855.794 237.648z"/>
<path class="l5" d="M856.339 231.446L856.374 231.446L856.374 231.481L856.339 231.481L856.339 231.446z"/>
<path class="l5" d="M756.843 386.074L757.968 386.074L757.968 387.199L756.843 387.199L756.843 386.074z"/>
<path class="l5" d="M770.337 386.074L771.461 386.074L771.461 387.199L770.337 387.199L770.337 386.074z"/>
<path class="l5" d="M776.521 399.568L777.645 400.13L776.521 400.692L776.521 399.568"/>
<path class="l5" d="M777.083 406.314L778.208 406.314L778.208 407.439L777.083 407.439L777.083 406.314z"/>
<path class="l5" d="M768.088 399.568L769.212 399.568L769.212 400.692L768.088 400.692L768.088 399.568z"/>
<path class="l5" d="M777.083 392.821L778.208 392.821L778.208 393.945L777.083 393.945L777.083 392.821z"/>
<path class="l5" d="M777.628 400.112L777.663 400.112L777.663 400.147L777.628 400.147L777.628 400.112z"/>
<path class="l5" d="M777.645 440.048L776.521 440.61L777.645 441.172L777.645 440.048"/>
<path class="l5" d="M777.083 433.301L778.208 433.301L778.208 434.425L777.083 434.425L777.083 433.301z"/>
<path class="l5" d="M768.088 440.048L769.212 440.048L769.212 441.172L768.088 441.172L768.088 440.048z"/>
<path class="l5" d="M777.083 446.794L778.208 446.794L778.208 447.919L777.083 447.919L777.083 446.794z"/>
<path class="l5" d="M777.628 440.592L777.663 440.592L777.663 440.627L777.628 440.627L777.628 440.592z"/>
<path class="l5" d="M841.739 370.332L840.614 370.894L841.739 371.457L841.739 370.332"/>
<path class="l5" d="M840.052 377.079L841.177 377.079L841.177 378.203L840.052 378.203L840.052 377.079z"/>
<path class="l5" d="M849.048 370.332L850.172 370.332L850.172 371.457L849.048 371.457L849.048 370.332z"/>
<path class="l5" d="M840.052 363.585L841.177 363.585L841.177 364.71L840.052 364.71L840.052 363.585z"/>
<path class="l5" d="M840.597 370.877L840.632 370.877L840.632 370.912L840.597 370.912L840.597 370.877z"/>
<path class="l5" d="M839.49 399.568L840.614 400.13L839.49 400.692L839.49 399.568"/>
<path class="l5" d="M840.052 406.314L841.177 406.314L841.177 407.439L840.052 407.439L840.052 406.314z"/>
<path class="l5" d="M831.057 399.568L832.181 399.568L832.181 400.692L831.057 400.692L831.057 399.568z"/>
<path class="l5" d="M840.052 392.821L841.177 392.821L841.177 393.945L840.052 393.945L840.052 392.821z"/>
<path class="l5" d="M840.597 400.112L840.632 400.112L840.632 400.147L840.597 400.147L840.597 400.112z"/>
<path class="l5" d="M840.614 440.048L839.49 440.61L840.614 441.172L840.614 440.048"/>
<path class="l5" d="M840.052 433.301L841.177 433.301L841.177 434.425L840.052 434.425L840.052 433.301z"/>
<path class="l5" d="M831.057 440.048L832.181 440.048L832.181 441.172L831.057 441.172L831.057 440.048z"/>
<path class="l5" d="M840.052 446.794L841.177 446.794L841.177 447.919L840.052 447.919L840.052 446.794z"/>
<path class="l5" d="M840.597 440.592L840.632 440.592L840.632 440.627L840.597 440.627L840.597 440.592z"/>
<path class="l5" d="M808.568 386.074L809.692 386.074L809.692 387.199L808.568 387.199L808.568 386.074z"/>
<path class="l5" d="M822.061 386.074L823.185 386.074L823.185 387.199L822.061 387.199L822.061 386.074z"/>
<path class="l5" d="M894.588 144.881L894.588 147.13L896.415 147.13L897.82 146.006L896.415 144.881L894.588 144.881"/>
<path class="l5" d="M894.585 146.004L894.59 146.004L894.59 146.008L894.585 146.008L894.585 146.004z"/>
<path class="l5" d="M878.845 383.263L878.845 385.512L880.673 385.512L882.078 384.388L880.673 383.263L878.845 383.263"/>
<path class="l5" d="M878.843 384.385L878.848 384.385L878.848 384.39L878.843 384.39L878.843 384.385z"/>
<path class="l5" d="M778.77 372.581L777.645 373.143L778.77 373.705L778.77 372.581"/>
<path class="l5" d="M777.083 379.328L778.208 379.328L778.208 380.452L777.083 380.452L777.083 379.328z"/>
<path class="l5" d="M786.079 372.581L787.203 372.581L787.203 373.705L786.079 373.705L786.079 372.581z"/>
<path class="l5" d="M777.083 365.834L778.208 365.834L778.208 366.959L777.083 366.959L777.083 365.834z"/>
<path class="l5" d="M777.628 373.126L777.663 373.126L777.663 373.161L777.628 373.161L777.628 373.126z"/>
<path class="l5" d="M720.861 172.43L721.986 172.43L721.986 173.555L720.861 173.555L720.861 172.43z"/>
<path class="l5" d="M743.35 172.43L744.474 172.43L744.474 173.555L743.35 173.555L743.35 172.43z"/>
<path class="l5" d="M729.857 163.435L730.981 163.435L730.981 164.559L729.857 164.559L729.857 163.435z"/>
<path class="l5" d="M729.857 181.426L730.981 181.426L730.981 182.55L729.857 182.55L729.857 181.426z"/>
<path class="l5" d="M599.421 230.901L600.546 230.901L600.546 232.026L599.421 232.026L599.421 230.901z"/>
<path class="l5" d="M621.91 230.901L623.035 230.901L623.035 232.026L621.91 232.026L621.91 230.901z"/>
<path class="l5" d="M608.417 221.906L609.541 221.906L609.541 223.03L608.417 223.03L608.417 221.906z"/>
<path class="l5" d="M608.417 239.897L609.541 239.897L609.541 241.021L608.417 241.021L608.417 239.897z"/>
<path class="l5" d="M635.403 230.901L636.528 230.901L636.528 232.026L635.403 232.026L635.403 230.901z"/>
<path class="l5" d="M657.892 230.901L659.017 230.901L659.017 232.026L657.892 232.026L657.892 230.901z"/>
<path class="l5" d="M644.399 221.906L645.523 221.906L645.523 223.03L644.399 223.03L644.399 221.906z"/>
<path class="l5" d="M644.399 239.897L645.523 239.897L645.523 241.021L644.399 241.021L644.399 239.897z"/>
<path class="l5" d="M664.639 230.901L665.763 230.901L665.763 232.026L664.639 232.026L664.639 230.901z"/>
<path class="l5" d="M687.128 230.901L688.252 230.901L688.252 232.026L687.128 232.026L687.128 230.901z"/>
<path class="l5" d="M673.634 221.906L674.759 221.906L674.759 223.03L673.634 223.03L673.634 221.906z"/>
<path class="l5" d="M673.634 239.897L674.759 239.897L674.759 241.021L673.634 241.021L673.634 239.897z"/>
<path class="l5" d="M693.874 386.074L694.999 386.074L694.999 387.199L693.874 387.199L693.874 386.074z"/>
<path class="l5" d="M716.363 386.074L717.488 386.074L717.488 387.199L716.363 387.199L716.363 386.074z"/>
<path class="l5" d="M702.87 377.079L703.994 377.079L703.994 378.203L702.87 378.203L702.87 377.079z"/>
<path class="l5" d="M702.87 395.07L703.994 395.07L703.994 396.194L702.87 396.194L702.87 395.07z"/>
<path class="l5" d="M723.11 386.074L724.234 386.074L724.234 387.199L723.11 387.199L723.11 386.074z"/>
<path class="l5" d="M745.599 386.074L746.723 386.074L746.723 387.199L745.599 387.199L745.599 386.074z"/>
<path class="l5" d="M732.106 377.079L733.23 377.079L733.23 378.203L732.106 378.203L732.106 377.079z"/>
<path class="l5" d="M732.106 395.07L733.23 395.07L733.23 396.194L732.106 396.194L732.106 395.07z"/>
<path class="l5" d="M777.645 74.0414L776.556 72.7764L776.556 71.6168L777.645 70.3518L778.735 71.6168L778.735 72.7764L777.645 74.0414"/>
<path class="l5" d="M777.643 74.0392L777.648 74.0392L777.648 74.0436L777.643 74.0436L777.643 74.0392z"/>
<path class="l5" d="M765.277 147.692L764.152 148.255L765.277 148.817L765.277 147.692"/>
<path class="l5" d="M763.59 154.439L764.714 154.439L764.714 155.563L763.59 155.563L763.59 154.439z"/>
<path class="l5" d="M772.585 147.692L773.71 147.692L773.71 148.817L772.585 148.817L772.585 147.692z"/>
<path class="l5" d="M763.59 140.946L764.714 140.946L764.714 142.07L763.59 142.07L763.59 140.946z"/>
<path class="l5" d="M764.135 148.237L764.17 148.237L764.17 148.272L764.135 148.272L764.135 148.237z"/>
<path class="l5" d="M857.481 154.439L856.357 155.001L857.481 155.563L857.481 154.439"/>
<path class="l5" d="M855.794 161.186L856.919 161.186L856.919 162.31L855.794 162.31L855.794 161.186z"/>
<path class="l5" d="M864.79 154.439L865.914 154.439L865.914 155.563L864.79 155.563L864.79 154.439z"/>
<path class="l5" d="M855.794 147.692L856.919 147.692L856.919 148.817L855.794 148.817L855.794 147.692z"/>
<path class="l5" d="M856.339 154.984L856.374 154.984L856.374 155.019L856.339 155.019L856.339 154.984z"/>
<path class="l5" d="M806.319 156.688L807.443 156.688L807.443 157.812L806.319 157.812L806.319 156.688z"/>
<path class="l5" d="M819.812 156.688L820.937 156.688L820.937 157.812L819.812 157.812L819.812 156.688z"/>
<path class="l5" d="M765.277 102.715L764.152 103.277L765.277 103.839L765.277 102.715"/>
<path class="l5" d="M763.59 109.461L764.714 109.461L764.714 110.586L763.59 110.586L763.59 109.461z"/>
<path class="l5" d="M772.585 102.715L773.71 102.715L773.71 103.839L772.585 103.839L772.585 102.715z"/>
<path class="l5" d="M763.59 95.968L764.714 95.968L764.714 97.0924L763.59 97.0924L763.59 95.968z"/>
<path class="l5" d="M764.135 103.259L764.17 103.259L764.17 103.294L764.135 103.294L764.135 103.259z"/>
<path class="l5" d="M857.481 118.457L856.357 119.019L857.481 119.581L857.481 118.457"/>
<path class="l5" d="M855.794 125.204L856.919 125.204L856.919 126.328L855.794 126.328L855.794 125.204z"/>
<path class="l5" d="M864.79 118.457L865.914 118.457L865.914 119.581L864.79 119.581L864.79 118.457z"/>
<path class="l5" d="M855.794 111.71L856.919 111.71L856.919 112.835L855.794 112.835L855.794 111.71z"/>
<path class="l5" d="M856.339 119.002L856.374 119.002L856.374 119.037L856.339 119.037L856.339 119.002z"/>
<path class="l5" d="M855.232 190.421L856.357 190.983L855.232 191.546L855.232 190.421"/>
<path class="l5" d="M855.794 197.168L856.919 197.168L856.919 198.292L855.794 198.292L855.794 197.168z"/>
<path class="l5" d="M846.799 190.421L847.923 190.421L847.923 191.546L846.799 191.546L846.799 190.421z"/>
<path class="l5" d="M855.794 183.675L856.919 183.675L856.919 184.799L855.794 184.799L855.794 183.675z"/>
<path class="l5" d="M856.339 190.966L856.374 190.966L856.374 191.001L856.339 191.001L856.339 190.966z"/>
<path class="l5" d="M763.028 192.67L764.152 193.232L763.028 193.795L763.028 192.67"/>
<path class="l5" d="M763.59 199.417L764.714 199.417L764.714 200.541L763.59 200.541L763.59 199.417z"/>
<path class="l5" d="M754.594 192.67L755.719 192.67L755.719 193.795L754.594 193.795L754.594 192.67z"/>
<path class="l5" d="M763.59 185.923L764.714 185.923L764.714 187.048L763.59 187.048L763.59 185.923z"/>
<path class="l5" d="M764.135 193.215L764.17 193.215L764.17 193.25L764.135 193.25L764.135 193.215z"/>
<path class="l5" d="M778.77 354.59L777.645 355.152L778.77 355.714L778.77 354.59"/>
<path class="l5" d="M777.083 361.337L778.208 361.337L778.208 362.461L777.083 362.461L777.083 361.337z"/>
<path class="l5" d="M786.079 354.59L787.203 354.59L787.203 355.714L786.079 355.714L786.079 354.59z"/>
<path class="l5" d="M777.083 347.843L778.208 347.843L778.208 348.968L777.083 348.968L777.083 347.843z"/>
<path class="l5" d="M777.628 355.135L777.663 355.135L777.663 355.17L777.628 355.17L777.628 355.135z"/>
<path class="l5" d="M778.77 336.599L777.645 337.161L778.77 337.723L778.77 336.599"/>
<path class="l5" d="M777.083 343.345L778.208 343.345L778.208 344.47L777.083 344.47L777.083 343.345z"/>
<path class="l5" d="M786.079 336.599L787.203 336.599L787.203 337.723L786.079 337.723L786.079 336.599z"/>
<path class="l5" d="M777.083 329.852L778.208 329.852L778.208 330.977L777.083 330.977L777.083 329.852z"/>
<path class="l5" d="M777.628 337.143L777.663 337.143L777.663 337.179L777.628 337.179L777.628 337.143z"/>
<path class="l5" d="M841.739 352.341L840.614 352.903L841.739 353.465L841.739 352.341"/>
<path class="l5" d="M840.052 359.088L841.177 359.088L841.177 360.212L840.052 360.212L840.052 359.088z"/>
<path class="l5" d="M849.048 352.341L850.172 352.341L850.172 353.465L849.048 353.465L849.048 352.341z"/>
<path class="l5" d="M840.052 345.594L841.177 345.594L841.177 346.719L840.052 346.719L840.052 345.594z"/>
<path class="l5" d="M840.597 352.886L840.632 352.886L840.632 352.921L840.597 352.921L840.597 352.886z"/>
<path class="l5" d="M841.739 334.35L840.614 334.912L841.739 335.474L841.739 334.35"/>
<path class="l5" d="M840.052 341.097L841.177 341.097L841.177 342.221L840.052 342.221L840.052 341.097z"/>
<path class="l5" d="M849.048 334.35L850.172 334.35L850.172 335.474L849.048 335.474L849.048 334.35z"/>
<path class="l5" d="M840.052 327.603L841.177 327.603L841.177 328.728L840.052 328.728L840.052 327.603z"/>
<path class="l5" d="M840.597 334.895L840.632 334.895L840.632 334.93L840.597 334.93L840.597 334.895z"/>
<path class="l5" d="M776.521 415.31L777.645 415.872L776.521 416.434L776.521 415.31"/>
<path class="l5" d="M777.083 422.057L778.208 422.057L778.208 423.181L777.083 423.181L777.083 422.057z"/>
<path class="l5" d="M768.088 415.31L769.212 415.31L769.212 416.434L768.088 416.434L768.088 415.31z"/>
<path class="l5" d="M777.083 408.563L778.208 408.563L778.208 409.688L777.083 409.688L777.083 408.563z"/>
<path class="l5" d="M777.628 415.854L777.663 415.854L777.663 415.89L777.628 415.89L777.628 415.854z"/>
<path class="l5" d="M839.49 415.31L840.614 415.872L839.49 416.434L839.49 415.31"/>
<path class="l5" d="M840.052 422.057L841.177 422.057L841.177 423.181L840.052 423.181L840.052 422.057z"/>
<path class="l5" d="M831.057 415.31L832.181 415.31L832.181 416.434L831.057 416.434L831.057 415.31z"/>
<path class="l5" d="M840.052 408.563L841.177 408.563L841.177 409.688L840.052 409.688L840.052 408.563z"/>
<path class="l5" d="M840.597 415.854L840.632 415.854L840.632 415.89L840.597 415.89L840.597 415.854z"/>
<path class="l5" d="M662.39 386.074L663.515 386.074L663.515 387.199L662.39 387.199L662.39 386.074z"/>
<path class="l5" d="M684.879 386.074L686.003 386.074L686.003 387.199L684.879 387.199L684.879 386.074z"/>
<path class="l5" d="M671.386 377.079L672.51 377.079L672.51 378.203L671.386 378.203L671.386 377.079z"/>
<path class="l5" d="M671.386 395.07L672.51 395.07L672.51 396.194L671.386 396.194L671.386 395.07z"/>
<path class="l5" d="M748.41 67.2947L747.321 66.0297L747.321 64.8701L748.41 63.6051L749.499 64.8701L749.499 66.0297L748.41 67.2947"/>
<path class="l5" d="M748.408 67.2925L748.412 67.2925L748.412 67.2969L748.408 67.2969L748.408 67.2925z"/>
<path class="l5" d="M570.748 231.463L569.342 230.339L567.515 230.339L567.515 232.588L569.342 232.588L570.748 231.463"/>
<path class="l5" d="M570.746 231.461L570.75 231.461L570.75 231.466L570.746 231.466L570.746 231.461z"/>
<path class="l5" d="M777.645 460.85L778.735 462.115L778.735 463.274L777.645 464.539L776.556 463.274L776.556 462.115L777.645 460.85"/>
<path class="l5" d="M777.643 460.848L777.648 460.848L777.648 460.852L777.643 460.852L777.643 460.848z"/>
<path class="l1" d="M622.472 231.463L635.966 231.463"/>
<path class="l1" d="M658.455 231.463L665.201 231.463"/>
<path class="l1" d="M660.703 231.463L660.703 267.446"/>
<path class="l1" d="M685.441 386.637L694.437 386.637"/>
<path class="l1" d="M716.926 386.637L723.672 386.637"/>
<path class="l1" d="M714.677 231.463L721.423 231.463"/>
<path class="l1" d="M721.423 199.979L721.423 231.463"/>
<path class="l1" d="M746.161 213.472L746.161 231.463"/>
<path class="l1" d="M721.423 231.463L746.161 231.463"/>
<path class="l1" d="M764.152 220.219L764.152 224.717"/>
<path class="l1" d="M838.365 213.472L838.365 231.463"/>
<path class="l1" d="M838.365 231.463L847.361 231.463"/>
<path class="l1" d="M856.357 220.219L856.357 224.717"/>
<path class="l1" d="M773.148 125.766L784.392 125.766"/>
<path class="l1" d="M784.392 125.766L784.392 170.743"/>
<path class="l1" d="M876.596 146.006L894.588 146.006"/>
<path class="l1" d="M770.899 386.637L777.645 386.637"/>
<path class="l1" d="M777.645 386.637L777.645 393.383"/>
<path class="l1" d="M759.654 400.13L768.65 400.13"/>
<path class="l1" d="M833.868 386.637L840.614 386.637"/>
<path class="l1" d="M840.614 386.637L840.614 393.383"/>
<path class="l1" d="M822.623 400.13L831.619 400.13"/>
<path class="l1" d="M797.885 386.637L809.13 386.637"/>
<path class="l1" d="M822.623 386.637L833.868 386.637"/>
<path class="l1" d="M860.854 384.388L878.845 384.388"/>
<path class="l1" d="M746.161 386.637L757.406 386.637"/>
<path class="l1" d="M856.357 244.957L863.103 244.957"/>
<path class="l1" d="M863.103 231.463L863.103 244.957"/>
<path class="l1" d="M856.357 231.463L863.103 231.463"/>
<path class="l1" d="M764.152 224.717L764.152 233.712"/>
<path class="l1" d="M764.152 247.206L764.152 251.703"/>
<path class="l1" d="M764.152 251.703L770.899 251.703"/>
<path class="l1" d="M770.899 240.459L770.899 251.703"/>
<path class="l1" d="M764.152 240.459L770.899 240.459"/>
<path class="l1" d="M746.161 226.966L800.134 226.966"/>
<path class="l1" d="M764.152 251.703L764.152 253.952"/>
<path class="l1" d="M856.357 242.708L856.357 251.703"/>
<path class="l1" d="M721.423 386.637L721.423 418.121"/>
<path class="l1" d="M572.997 231.463L599.983 231.463"/>
<path class="l1" d="M764.152 114.521L764.152 119.019"/>
<path class="l1" d="M752.908 125.766L764.152 125.766"/>
<path class="l1" d="M770.899 373.143L777.645 373.143"/>
<path class="l1" d="M831.619 370.894L840.614 370.894"/>
<path class="l1" d="M777.645 400.13L784.392 400.13"/>
<path class="l1" d="M840.614 400.13L849.61 400.13"/>
<path class="l1" d="M797.885 373.143L797.885 379.89"/>
<path class="l1" d="M786.641 373.143L797.885 373.143"/>
<path class="l1" d="M797.885 379.89L797.885 409.125"/>
<path class="l1" d="M860.854 370.894L860.854 384.388"/>
<path class="l1" d="M851.859 370.894L860.854 370.894"/>
<path class="l1" d="M860.854 384.388L860.854 409.125"/>
<path class="l1" d="M849.61 370.894L851.859 370.894"/>
<path class="l1" d="M840.614 377.641L840.614 386.637"/>
<path class="l1" d="M777.645 379.89L777.645 384.388"/>
<path class="l1" d="M660.703 346.157L660.703 373.143"/>
<path class="l1" d="M660.703 373.143L660.703 386.637"/>
<path class="l1" d="M660.703 386.637L662.952 386.637"/>
<path class="l1" d="M671.948 355.152L671.948 377.641"/>
<path class="l1" d="M703.432 355.152L703.432 377.641"/>
<path class="l1" d="M732.668 355.152L732.668 377.641"/>
<path class="l1" d="M608.979 213.472L608.979 222.468"/>
<path class="l1" d="M608.979 213.472L674.197 213.472"/>
<path class="l1" d="M674.197 213.472L674.197 222.468"/>
<path class="l1" d="M644.961 213.472L644.961 222.468"/>
<path class="l1" d="M674.197 186.486L674.197 213.472"/>
<path class="l1" d="M674.197 186.486L703.432 186.486"/>
<path class="l1" d="M730.419 134.761L730.419 139.259"/>
<path class="l1" d="M730.419 110.024L730.419 134.761"/>
<path class="l1" d="M687.69 231.463L714.677 231.463"/>
<path class="l1" d="M703.432 186.486L703.432 276.441"/>
<path class="l1" d="M608.979 240.459L608.979 247.206"/>
<path class="l1" d="M608.979 247.206L674.197 247.206"/>
<path class="l1" d="M674.197 240.459L674.197 247.206"/>
<path class="l1" d="M644.961 240.459L644.961 247.206"/>
<path class="l1" d="M674.197 247.206L674.197 258.45"/>
<path class="l1" d="M674.197 258.45L764.152 258.45"/>
<path class="l1" d="M764.152 253.952L764.152 258.45"/>
<path class="l1" d="M764.152 258.45L827.121 258.45"/>
<path class="l1" d="M856.357 251.703L856.357 258.45"/>
<path class="l1" d="M644.961 247.206L644.961 321.419"/>
<path class="l1" d="M644.961 400.13L732.668 400.13"/>
<path class="l1" d="M732.668 395.632L732.668 400.13"/>
<path class="l1" d="M703.432 395.632L703.432 400.13"/>
<path class="l1" d="M671.948 395.632L671.948 400.13"/>
<path class="l1" d="M730.419 208.975L730.419 258.45"/>
<path class="l1" d="M732.668 400.13L732.668 449.605"/>
<path class="l1" d="M732.668 449.605L732.668 451.854"/>
<path class="l1" d="M732.668 451.854L840.614 451.854"/>
<path class="l1" d="M777.645 451.854L777.645 460.85"/>
<path class="l1" d="M777.645 384.388L777.645 386.637"/>
<path class="l1" d="M784.392 400.13L788.89 400.13"/>
<path class="l1" d="M849.61 400.13L854.108 400.13"/>
<path class="l1" d="M746.161 231.463L746.161 240.459"/>
<path class="l1" d="M746.161 240.459L755.157 240.459"/>
<path class="l1" d="M800.134 226.966L809.13 226.966"/>
<path class="l1" d="M856.357 238.21L856.357 242.708"/>
<path class="l1" d="M570.748 231.463L572.997 231.463"/>
<path class="l1" d="M809.13 226.966L838.365 226.966"/>
<path class="l1" d="M827.121 258.45L856.357 258.45"/>
<path class="l1" d="M784.392 157.25L806.881 157.25"/>
<path class="l1" d="M820.374 157.25L822.623 157.25"/>
<path class="l1" d="M838.365 204.477L847.361 204.477"/>
<path class="l1" d="M838.365 204.477L838.365 213.472"/>
<path class="l1" d="M856.357 213.472L856.357 220.219"/>
<path class="l1" d="M856.357 211.223L856.357 213.472"/>
<path class="l1" d="M746.161 208.975L746.161 213.472"/>
<path class="l1" d="M746.161 206.726L746.161 208.975"/>
<path class="l1" d="M746.161 206.726L755.157 206.726"/>
<path class="l1" d="M764.152 215.721L764.152 220.219"/>
<path class="l1" d="M764.152 213.472L764.152 215.721"/>
<path class="l1" d="M856.357 217.97L876.596 217.97"/>
<path class="l1" d="M876.596 170.743L876.596 217.97"/>
<path class="l1" d="M703.432 112.272L703.432 186.486"/>
<path class="l1" d="M703.432 110.024L703.432 112.272"/>
<path class="l1" d="M764.152 110.024L764.152 114.521"/>
<path class="l1" d="M784.392 170.743L784.392 206.726"/>
<path class="l1" d="M764.152 155.001L764.152 181.988"/>
<path class="l1" d="M773.148 103.277L784.392 103.277"/>
<path class="l1" d="M784.392 103.277L784.392 125.766"/>
<path class="l1" d="M764.152 222.468L784.392 222.468"/>
<path class="l1" d="M784.392 206.726L784.392 222.468"/>
<path class="l1" d="M703.432 92.0324L703.432 110.024"/>
<path class="l1" d="M703.432 92.0324L764.152 92.0324"/>
<path class="l1" d="M764.152 92.0324L764.152 96.5302"/>
<path class="l1" d="M730.419 92.0324L730.419 110.024"/>
<path class="l1" d="M748.41 125.766L752.908 125.766"/>
<path class="l1" d="M764.152 92.0324L777.645 92.0324"/>
<path class="l1" d="M764.152 206.726L775.397 206.726"/>
<path class="l1" d="M775.397 206.726L777.645 206.726"/>
<path class="l1" d="M777.645 92.0324L854.108 92.0324"/>
<path class="l1" d="M854.108 92.0324L856.357 92.0324"/>
<path class="l1" d="M865.352 119.019L874.348 119.019"/>
<path class="l1" d="M874.348 119.019L876.596 119.019"/>
<path class="l1" d="M876.596 119.019L876.596 170.743"/>
<path class="l1" d="M865.352 137.01L876.596 137.01"/>
<path class="l1" d="M856.357 125.766L856.357 130.264"/>
<path class="l1" d="M856.357 92.0324L856.357 112.272"/>
<path class="l1" d="M849.61 119.019L849.61 137.01"/>
<path class="l1" d="M849.61 137.01L856.357 137.01"/>
<path class="l1" d="M856.357 204.477L865.352 204.477"/>
<path class="l1" d="M869.85 92.0324L869.85 186.486"/>
<path class="l1" d="M773.148 148.255L784.392 148.255"/>
<path class="l1" d="M748.41 125.766L748.41 148.255"/>
<path class="l1" d="M748.41 148.255L764.152 148.255"/>
<path class="l1" d="M730.419 139.259L730.419 163.997"/>
<path class="l1" d="M721.423 172.992L721.423 199.979"/>
<path class="l1" d="M730.419 181.988L730.419 208.975"/>
<path class="l1" d="M757.406 172.992L764.152 172.992"/>
<path class="l1" d="M764.152 132.512L764.152 141.508"/>
<path class="l1" d="M748.41 83.0369L748.41 125.766"/>
<path class="l1" d="M748.41 67.2947L748.41 83.0369"/>
<path class="l1" d="M856.357 143.757L856.357 148.255"/>
<path class="l1" d="M849.61 137.01L849.61 155.001"/>
<path class="l1" d="M849.61 155.001L856.357 155.001"/>
<path class="l1" d="M822.623 157.25L827.121 157.25"/>
<path class="l1" d="M827.121 157.25L829.37 157.25"/>
<path class="l1" d="M829.37 157.25L829.37 168.495"/>
<path class="l1" d="M829.37 168.495L856.357 168.495"/>
<path class="l1" d="M856.357 161.748L856.357 168.495"/>
<path class="l1" d="M869.85 186.486L869.85 204.477"/>
<path class="l1" d="M865.352 204.477L869.85 204.477"/>
<path class="l1" d="M849.61 85.2858L849.61 119.019"/>
<path class="l1" d="M777.645 74.0414L777.645 92.0324"/>
<path class="l1" d="M748.41 85.2858L849.61 85.2858"/>
<path class="l1" d="M865.352 155.001L876.596 155.001"/>
<path class="l1" d="M777.645 186.486L777.645 206.726"/>
<path class="l1" d="M748.41 148.255L748.41 159.499"/>
<path class="l1" d="M748.41 159.499L775.397 159.499"/>
<path class="l1" d="M775.397 159.499L777.645 159.499"/>
<path class="l1" d="M849.61 85.2858L869.85 85.2858"/>
<path class="l1" d="M777.645 159.499L777.645 186.486"/>
<path class="l1" d="M869.85 85.2858L869.85 92.0324"/>
<path class="l1" d="M748.41 103.277L764.152 103.277"/>
<path class="l1" d="M849.61 119.019L856.357 119.019"/>
<path class="l1" d="M838.365 190.983L847.361 190.983"/>
<path class="l1" d="M838.365 190.983L838.365 204.477"/>
<path class="l1" d="M856.357 190.983L869.85 190.983"/>
<path class="l1" d="M764.152 181.988L764.152 186.486"/>
<path class="l1" d="M746.161 193.232L755.157 193.232"/>
<path class="l1" d="M746.161 193.232L746.161 206.726"/>
<path class="l1" d="M644.961 321.419L644.961 400.13"/>
<path class="l1" d="M660.703 267.446L660.703 346.157"/>
<path class="l1" d="M703.432 276.441L703.432 355.152"/>
<path class="l1" d="M856.357 168.495L856.357 170.743"/>
<path class="l1" d="M856.357 170.743L856.357 184.237"/>
<path class="l1" d="M764.152 193.232L777.645 193.232"/>
<path class="l1" d="M869.85 204.477L869.85 262.948"/>
<path class="l1" d="M849.61 334.912L860.854 334.912"/>
<path class="l1" d="M860.854 334.912L860.854 370.894"/>
<path class="l1" d="M849.61 352.903L860.854 352.903"/>
<path class="l1" d="M840.614 341.659L840.614 346.157"/>
<path class="l1" d="M840.614 359.65L840.614 364.148"/>
<path class="l1" d="M777.645 361.899L777.645 366.397"/>
<path class="l1" d="M777.645 343.908L777.645 348.405"/>
<path class="l1" d="M671.948 319.17L671.948 355.152"/>
<path class="l1" d="M838.365 319.17L840.614 319.17"/>
<path class="l1" d="M840.614 319.17L840.614 328.166"/>
<path class="l1" d="M777.645 319.17L777.645 330.414"/>
<path class="l1" d="M732.668 319.17L732.668 355.152"/>
<path class="l1" d="M770.899 307.926L770.899 373.143"/>
<path class="l1" d="M770.899 355.152L777.645 355.152"/>
<path class="l1" d="M770.899 337.161L777.645 337.161"/>
<path class="l1" d="M786.641 337.161L797.885 337.161"/>
<path class="l1" d="M797.885 337.161L797.885 373.143"/>
<path class="l1" d="M786.641 355.152L797.885 355.152"/>
<path class="l1" d="M831.619 305.677L831.619 370.894"/>
<path class="l1" d="M770.899 305.677L831.619 305.677"/>
<path class="l1" d="M770.899 305.677L770.899 307.926"/>
<path class="l1" d="M831.619 305.677L872.099 305.677"/>
<path class="l1" d="M872.099 262.948L872.099 305.677"/>
<path class="l1" d="M869.85 262.948L872.099 262.948"/>
<path class="l1" d="M831.619 352.903L840.614 352.903"/>
<path class="l1" d="M831.619 334.912L840.614 334.912"/>
<path class="l1" d="M854.108 305.677L854.108 400.13"/>
<path class="l1" d="M840.614 447.356L840.614 451.854"/>
<path class="l1" d="M777.645 447.356L777.645 451.854"/>
<path class="l1" d="M759.654 400.13L759.654 440.61"/>
<path class="l1" d="M759.654 440.61L768.65 440.61"/>
<path class="l1" d="M759.654 415.872L768.65 415.872"/>
<path class="l1" d="M777.645 422.619L777.645 433.863"/>
<path class="l1" d="M777.645 424.868L797.885 424.868"/>
<path class="l1" d="M797.885 409.125L797.885 424.868"/>
<path class="l1" d="M840.614 406.877L840.614 409.125"/>
<path class="l1" d="M840.614 415.872L854.108 415.872"/>
<path class="l1" d="M854.108 400.13L854.108 415.872"/>
<path class="l1" d="M822.623 400.13L822.623 440.61"/>
<path class="l1" d="M822.623 440.61L831.619 440.61"/>
<path class="l1" d="M840.614 422.619L840.614 433.863"/>
<path class="l1" d="M822.623 415.872L831.619 415.872"/>
<path class="l1" d="M860.854 409.125L860.854 429.365"/>
<path class="l1" d="M840.614 429.365L860.854 429.365"/>
<path class="l1" d="M777.645 415.872L788.89 415.872"/>
<path class="l1" d="M788.89 382.139L788.89 415.872"/>
<path class="l1" d="M770.899 382.139L788.89 382.139"/>
<path class="l1" d="M770.899 373.143L770.899 382.139"/>
<path class="l1" d="M777.645 406.877L777.645 409.125"/>
<path class="l1" d="M721.423 418.121L721.423 429.365"/>
<path class="l1" d="M721.423 429.365L759.654 429.365"/>
<path class="l1" d="M759.654 429.365L820.374 429.365"/>
<path class="l1" d="M820.374 429.365L822.623 429.365"/>
<path class="l1" d="M777.645 440.61L782.143 440.61"/>
<path class="l1" d="M782.143 440.61L782.143 451.854"/>
<path class="l1" d="M840.614 440.61L845.112 440.61"/>
<path class="l1" d="M845.112 440.61L845.112 451.854"/>
<path class="l1" d="M840.614 451.854L845.112 451.854"/>
<path class="l1" d="M671.948 319.17L703.432 319.17"/>
<path class="l1" d="M703.432 319.17L732.668 319.17"/>
<path class="l1" d="M732.668 319.17L777.645 319.17"/>
<path class="l1" d="M777.645 319.17L838.365 319.17"/>
<circle class="l1" cx="674.197" cy="247.206" r="0.899555"/>
<circle class="l1" cx="674.197" cy="213.472" r="0.899555"/>
<circle class="l1" cx="764.152" cy="92.0324" r="0.899555"/>
<circle class="l1" cx="703.432" cy="186.486" r="0.899555"/>
<circle class="l1" cx="703.432" cy="186.486" r="0.899555"/>
<circle class="l1" cx="703.432" cy="186.486" r="0.899555"/>
<circle class="l1" cx="674.197" cy="213.472" r="0.899555"/>
<circle class="l1" cx="644.961" cy="247.206" r="0.899555"/>
<circle class="l1" cx="764.152" cy="258.45" r="0.899555"/>
<circle class="l1" cx="674.197" cy="247.206" r="0.899555"/>
<circle class="l1" cx="644.961" cy="247.206" r="0.899555"/>
<circle class="l1" cx="674.197" cy="247.206" r="0.899555"/>
<circle class="l1" cx="644.961" cy="213.472" r="0.899555"/>
<circle class="l1" cx="674.197" cy="213.472" r="0.899555"/>
<circle class="l1" cx="660.703" cy="231.463" r="0.899555"/>
<circle class="l1" cx="703.432" cy="319.17" r="0.899555"/>
<circle class="l1" cx="732.668" cy="319.17" r="0.899555"/>
<circle class="l1" cx="703.432" cy="319.17" r="0.899555"/>
<circle class="l1" cx="671.948" cy="400.13" r="0.899555"/>
<circle class="l1" cx="703.432" cy="400.13" r="0.899555"/>
<circle class="l1" cx="732.668" cy="400.13" r="0.899555"/>
<circle class="l1" cx="748.41" cy="103.277" r="0.899555"/>
<circle class="l1" cx="748.41" cy="85.2858" r="0.899555"/>
<circle class="l1" cx="849.61" cy="85.2858" r="0.899555"/>
<circle class="l1" cx="777.645" cy="92.0324" r="0.899555"/>
<circle class="l1" cx="748.41" cy="125.766" r="0.899555"/>
<circle class="l1" cx="777.645" cy="92.0324" r="0.899555"/>
<circle class="l1" cx="764.152" cy="92.0324" r="0.899555"/>
<circle class="l1" cx="777.645" cy="92.0324" r="0.899555"/>
<circle class="l1" cx="730.419" cy="92.0324" r="0.899555"/>
<circle class="l1" cx="764.152" cy="92.0324" r="0.899555"/>
<circle class="l1" cx="784.392" cy="125.766" r="0.899555"/>
<circle class="l1" cx="777.645" cy="193.232" r="0.899555"/>
<circle class="l1" cx="746.161" cy="206.726" r="0.899555"/>
<circle class="l1" cx="748.41" cy="148.255" r="0.899555"/>
<circle class="l1" cx="764.152" cy="172.992" r="0.899555"/>
<circle class="l1" cx="748.41" cy="148.255" r="0.899555"/>
<circle class="l1" cx="748.41" cy="125.766" r="0.899555"/>
<circle class="l1" cx="748.41" cy="148.255" r="0.899555"/>
<circle class="l1" cx="784.392" cy="148.255" r="0.899555"/>
<circle class="l1" cx="748.41" cy="125.766" r="0.899555"/>
<circle class="l1" cx="746.161" cy="206.726" r="0.899555"/>
<circle class="l1" cx="746.161" cy="206.726" r="0.899555"/>
<circle class="l1" cx="784.392" cy="157.25" r="0.899555"/>
<circle class="l1" cx="730.419" cy="258.45" r="0.899555"/>
<circle class="l1" cx="784.392" cy="125.766" r="0.899555"/>
<circle class="l1" cx="784.392" cy="125.766" r="0.899555"/>
<circle class="l1" cx="721.423" cy="231.463" r="0.899555"/>
<circle class="l1" cx="764.152" cy="222.468" r="0.899555"/>
<circle class="l1" cx="746.161" cy="231.463" r="0.899555"/>
<circle class="l1" cx="764.152" cy="258.45" r="0.899555"/>
<circle class="l1" cx="764.152" cy="258.45" r="0.899555"/>
<circle class="l1" cx="764.152" cy="251.703" r="0.899555"/>
<circle class="l1" cx="746.161" cy="226.966" r="0.899555"/>
<circle class="l1" cx="764.152" cy="251.703" r="0.899555"/>
<circle class="l1" cx="764.152" cy="251.703" r="0.899555"/>
<circle class="l1" cx="721.423" cy="231.463" r="0.899555"/>
<circle class="l1" cx="746.161" cy="231.463" r="0.899555"/>
<circle class="l1" cx="746.161" cy="231.463" r="0.899555"/>
<circle class="l1" cx="721.423" cy="231.463" r="0.899555"/>
<circle class="l1" cx="777.645" cy="319.17" r="0.899555"/>
<circle class="l1" cx="732.668" cy="319.17" r="0.899555"/>
<circle class="l1" cx="777.645" cy="319.17" r="0.899555"/>
<circle class="l1" cx="770.899" cy="373.143" r="0.899555"/>
<circle class="l1" cx="831.619" cy="305.677" r="0.899555"/>
<circle class="l1" cx="797.885" cy="355.152" r="0.899555"/>
<circle class="l1" cx="797.885" cy="373.143" r="0.899555"/>
<circle class="l1" cx="770.899" cy="337.161" r="0.899555"/>
<circle class="l1" cx="770.899" cy="355.152" r="0.899555"/>
<circle class="l1" cx="770.899" cy="373.143" r="0.899555"/>
<circle class="l1" cx="732.668" cy="319.17" r="0.899555"/>
<circle class="l1" cx="777.645" cy="319.17" r="0.899555"/>
<circle class="l1" cx="777.645" cy="386.637" r="0.899555"/>
<circle class="l1" cx="797.885" cy="373.143" r="0.899555"/>
<circle class="l1" cx="797.885" cy="373.143" r="0.899555"/>
<circle class="l1" cx="770.899" cy="373.143" r="0.899555"/>
<circle class="l1" cx="721.423" cy="386.637" r="0.899555"/>
<circle class="l1" cx="797.885" cy="386.637" r="0.899555"/>
<circle class="l1" cx="777.645" cy="386.637" r="0.899555"/>
<circle class="l1" cx="777.645" cy="386.637" r="0.899555"/>
<circle class="l1" cx="782.143" cy="451.854" r="0.899555"/>
<circle class="l1" cx="759.654" cy="429.365" r="0.899555"/>
<circle class="l1" cx="759.654" cy="429.365" r="0.899555"/>
<circle class="l1" cx="777.645" cy="424.868" r="0.899555"/>
<circle class="l1" cx="759.654" cy="415.872" r="0.899555"/>
<circle class="l1" cx="777.645" cy="451.854" r="0.899555"/>
<circle class="l1" cx="788.89" cy="400.13" r="0.899555"/>
<circle class="l1" cx="777.645" cy="451.854" r="0.899555"/>
<circle class="l1" cx="840.614" cy="451.854" r="0.899555"/>
<circle class="l1" cx="732.668" cy="400.13" r="0.899555"/>
<circle class="l1" cx="732.668" cy="400.13" r="0.899555"/>
<circle class="l1" cx="849.61" cy="119.019" r="0.899555"/>
<circle class="l1" cx="849.61" cy="85.2858" r="0.899555"/>
<circle class="l1" cx="849.61" cy="85.2858" r="0.899555"/>
<circle class="l1" cx="849.61" cy="119.019" r="0.899555"/>
<circle class="l1" cx="849.61" cy="119.019" r="0.899555"/>
<circle class="l1" cx="849.61" cy="137.01" r="0.899555"/>
<circle class="l1" cx="869.85" cy="204.477" r="0.899555"/>
<circle class="l1" cx="856.357" cy="168.495" r="0.899555"/>
<circle class="l1" cx="869.85" cy="190.983" r="0.899555"/>
<circle class="l1" cx="838.365" cy="204.477" r="0.899555"/>
<circle class="l1" cx="876.596" cy="155.001" r="0.899555"/>
<circle class="l1" cx="869.85" cy="204.477" r="0.899555"/>
<circle class="l1" cx="869.85" cy="204.477" r="0.899555"/>
<circle class="l1" cx="856.357" cy="168.495" r="0.899555"/>
<circle class="l1" cx="856.357" cy="168.495" r="0.899555"/>
<circle class="l1" cx="849.61" cy="137.01" r="0.899555"/>
<circle class="l1" cx="849.61" cy="137.01" r="0.899555"/>
<circle class="l1" cx="876.596" cy="137.01" r="0.899555"/>
<circle class="l1" cx="838.365" cy="204.477" r="0.899555"/>
<circle class="l1" cx="838.365" cy="204.477" r="0.899555"/>
<circle class="l1" cx="876.596" cy="146.006" r="0.899555"/>
<circle class="l1" cx="856.357" cy="217.97" r="0.899555"/>
<circle class="l1" cx="838.365" cy="226.966" r="0.899555"/>
<circle class="l1" cx="856.357" cy="244.957" r="0.899555"/>
<circle class="l1" cx="854.108" cy="305.677" r="0.899555"/>
<circle class="l1" cx="854.108" cy="400.13" r="0.899555"/>
<circle class="l1" cx="831.619" cy="334.912" r="0.899555"/>
<circle class="l1" cx="831.619" cy="352.903" r="0.899555"/>
<circle class="l1" cx="831.619" cy="305.677" r="0.899555"/>
<circle class="l1" cx="831.619" cy="305.677" r="0.899555"/>
<circle class="l1" cx="860.854" cy="352.903" r="0.899555"/>
<circle class="l1" cx="860.854" cy="370.894" r="0.899555"/>
<circle class="l1" cx="840.614" cy="386.637" r="0.899555"/>
<circle class="l1" cx="860.854" cy="384.388" r="0.899555"/>
<circle class="l1" cx="860.854" cy="370.894" r="0.899555"/>
<circle class="l1" cx="860.854" cy="370.894" r="0.899555"/>
<circle class="l1" cx="860.854" cy="384.388" r="0.899555"/>
<circle class="l1" cx="860.854" cy="384.388" r="0.899555"/>
<circle class="l1" cx="840.614" cy="386.637" r="0.899555"/>
<circle class="l1" cx="840.614" cy="386.637" r="0.899555"/>
<circle class="l1" cx="840.614" cy="451.854" r="0.899555"/>
<circle class="l1" cx="822.623" cy="429.365" r="0.899555"/>
<circle class="l1" cx="840.614" cy="429.365" r="0.899555"/>
<circle class="l1" cx="822.623" cy="415.872" r="0.899555"/>
<circle class="l1" cx="854.108" cy="400.13" r="0.899555"/>
<circle class="l1" cx="840.614" cy="451.854" r="0.899555"/>
<circle class="l1" cx="854.108" cy="400.13" r="0.899555"/>
</svg>
