<svg xmlns="http://www.w3.org/2000/svg" xmlns:xlink="http://www.w3.org/1999/xlink" width="1680" height="900" version="1.1">
<style type="text/css">
.l0{
 fill: #000000;
  stroke: #000000;
  stroke-linecap:round;
  stroke-linejoin:round;
  stroke-width: 0.717842;
}
.l1{
 fill: #00ccee;
  stroke: #00ccee;
  stroke-linecap:round;
  stroke-linejoin:round;
  stroke-width: 0.717842;
}
.l2{
  fill: none;
  stroke: #3f3f3f;
  stroke-linecap:round;
  stroke-linejoin:round;
  stroke-width: 0.717842;
}
.l3{
 fill: #cccccc; fill-opacity: 0.5;
  stroke: #cccccc;
  stroke-linecap:round;
  stroke-linejoin:round;
  stroke-width: 0.717842;
}
.l4{
 fill: #88dd00;
  stroke: #88dd00;
  stroke-linecap:round;
  stroke-linejoin:round;
  stroke-width: 0.717842;
}
.l5{
 fill: #bb2200;
  stroke: #bb2200;
  stroke-linecap:round;
  stroke-linejoin:round;
  stroke-width: 0.717842;
}
.l6{
 fill: #00ccee; fill-opacity: 0.5;
  stroke: #00ccee;
  stroke-linecap:round;
  stroke-linejoin:round;
  stroke-width: 0.717842;
}
.l7{
 fill: #ff0000; fill-opacity: 0.5;
  stroke: #ff0000;
  stroke-linecap:round;
  stroke-linejoin:round;
  stroke-width: 0.717842;
}
.l8{
 fill: #ffff00; fill-opacity: 0.5;
  stroke: #ffff00;
  stroke-linecap:round;
  stroke-linejoin:round;
  stroke-width: 0.717842;
}
.l9{
 fill: #ffffff; fill-opacity: 0.5;
  stroke: #ffffff;
  stroke-linecap:round;
  stroke-linejoin:round;
  stroke-width: 0.717842;
}
.l10{
 fill: #ff00ff;
  stroke: #ff00ff;
  stroke-linecap:round;
  stroke-linejoin:round;
  stroke-width: 0.717842;
}
.l11{
 fill: #00ff00; fill-opacity: 0.5;
  stroke: #00ff00;
  stroke-linecap:round;
  stroke-linejoin:round;
  stroke-width: 0.717842;
}
.l12{
 fill: #0044dd; fill-opacity: 0.5;
  stroke: #0044dd;
  stroke-linecap:round;
  stroke-linejoin:round;
  stroke-width: 0.717842;
}
.l13{
 fill: #aaaa00; fill-opacity: 0.5;
  stroke: #aaaa00;
  stroke-linecap:round;
  stroke-linejoin:round;
  stroke-width: 0.717842;
}
.l14{
  fill: none;
  stroke: #aaccaa;
  stroke-linecap:round;
  stroke-linejoin:round;
  stroke-width: 0.717842;
}
.l15{
 fill: #ff7777; fill-opacity: 0.5;
  stroke: #ff7777;
  stroke-linecap:round;
  stroke-linejoin:round;
  stroke-width: 0.717842;
}
.l16{
 fill: #bfff81; fill-opacity: 0.5;
  stroke: #bfff81;
  stroke-linecap:round;
  stroke-linejoin:round;
  stroke-width: 0.717842;
}
.l17{
  fill: none;
  stroke: #00ffcc;
  stroke-linecap:round;
  stroke-linejoin:round;
  stroke-width: 0.717842;
}
.l18{
 fill: #ce0097; fill-opacity: 0.5;
  stroke: #ce0097;
  stroke-linecap:round;
  stroke-linejoin:round;
  stroke-width: 0.717842;
}
.l19{
  fill: none;
  stroke: #d2d46b;
  stroke-linecap:round;
  stroke-linejoin:round;
  stroke-width: 0.717842;
}
.l20{
  fill: none;
  stroke: #ef6158;
  stroke-linecap:round;
  stroke-linejoin:round;
  stroke-width: 0.717842;
}
.l21{
  fill: none;
  stroke: #fdb200;
  stroke-linecap:round;
  stroke-linejoin:round;
  stroke-width: 0.717842;
}
text {font-family: Sans-Serif;}
</style>
<rect class="l0" x="0" y="0" width="1680" height="900"/>
<text fill="#00ccee"  xml:space="preserve" font-size="11.4057" transform="translate(1029.54, 162.513)" >Q</text>
<text fill="#00ccee"  xml:space="preserve" font-size="11.4057" transform="translate(746.818, 626.843) rotate(270)" >VN</text>
<text fill="#00ccee"  xml:space="preserve" font-size="11.4057" transform="translate(307.818, 255.567)" >Clk</text>
<text fill="#00ccee"  xml:space="preserve" font-size="11.4057" transform="translate(330.112, 494.847)" >D</text>
<text fill="#00ccee"  xml:space="preserve" font-size="11.4057" transform="translate(449.168, 637.763) rotate(270)" >RST</text>
<text fill="#cccccc"  xml:space="preserve" font-size="5.18441" transform="translate(544.328, 3.15959)" >x1</text>
<text fill="#cccccc"  xml:space="preserve" font-size="5.18441" transform="translate(876.662, 142.74)" >x2</text>
<text fill="#cccccc"  xml:space="preserve" font-size="5.18441" transform="translate(544.328, 122.8)" >x3</text>
<text fill="#cccccc"  xml:space="preserve" font-size="5.18441" transform="translate(550.975, 315.554)" >x4</text>
<text fill="#cccccc"  xml:space="preserve" font-size="5.18441" transform="translate(550.975, 461.781)" >x5</text>
<text fill="#cccccc"  xml:space="preserve" font-size="5.18441" transform="translate(883.309, 315.554)" >x6</text>
<path class="l4" d="M517.741 11.7455L531.035 11.7455"/>
<path class="l4" d="M517.741 25.0389L531.035 25.0389"/>
<path class="l4" d="M531.035 5.09883L531.035 38.3322"/>
<path class="l4" d="M564.268 18.3922L570.915 18.3922"/>
<path class="l4" d="M537.681 0L537.681 5.09883"/>
<path class="l4" d="M537.681 38.3322L537.681 51.6256"/>
<path class="l4" style="fill:none;" d="M531.035 38.3322 A16.9458 16.9458 0 1 0 531.035 5.09883"/>
<circle class="l4" cx="557.621" cy="18.3922" r="6.64668" style="fill:none;"/>
<path class="l4" d="M850.075 151.326L863.369 151.326"/>
<path class="l4" d="M850.075 164.619L863.369 164.619"/>
<path class="l4" d="M863.369 144.679L863.369 177.913"/>
<path class="l4" d="M896.602 157.973L903.249 157.973"/>
<path class="l4" d="M870.015 131.386L870.015 144.679"/>
<path class="l4" d="M870.015 177.913L870.015 191.206"/>
<path class="l4" style="fill:none;" d="M863.369 177.913 A16.9458 16.9458 0 1 0 863.369 144.679"/>
<circle class="l4" cx="889.955" cy="157.973" r="6.64668" style="fill:none;"/>
<path class="l4" d="M524.388 124.739L524.388 177.913"/>
<path class="l4" d="M537.681 111.446L537.681 124.739"/>
<path class="l4" d="M570.915 151.326L584.208 151.326"/>
<path class="l4" d="M537.681 177.913L537.681 191.206"/>
<path class="l4" d="M504.448 171.266L524.388 171.266"/>
<path class="l4" d="M504.448 151.326L524.388 151.326"/>
<path class="l4" d="M504.448 131.386L524.388 131.386"/>
<path class="l4" style="fill:none;" d="M524.388 177.913 A26.7936 26.7936 0 1 0 524.388 124.739"/>
<circle class="l4" cx="564.268" cy="151.326" r="6.64668" style="fill:none;"/>
<path class="l4" d="M531.035 317.493L531.035 370.666"/>
<path class="l4" d="M544.328 304.2L544.328 317.493"/>
<path class="l4" d="M577.561 344.08L590.855 344.08"/>
<path class="l4" d="M544.328 370.666L544.328 383.96"/>
<path class="l4" d="M511.095 364.02L531.035 364.02"/>
<path class="l4" d="M511.095 344.08L531.035 344.08"/>
<path class="l4" d="M511.095 324.14L531.035 324.14"/>
<path class="l4" style="fill:none;" d="M531.035 370.666 A26.7936 26.7936 0 1 0 531.035 317.493"/>
<circle class="l4" cx="570.915" cy="344.08" r="6.64668" style="fill:none;"/>
<path class="l4" d="M531.035 463.72L531.035 516.893"/>
<path class="l4" d="M544.328 450.427L544.328 463.72"/>
<path class="l4" d="M577.561 490.307L590.855 490.307"/>
<path class="l4" d="M544.328 516.893L544.328 530.187"/>
<path class="l4" d="M511.095 510.247L531.035 510.247"/>
<path class="l4" d="M511.095 490.307L531.035 490.307"/>
<path class="l4" d="M511.095 470.367L531.035 470.367"/>
<path class="l4" style="fill:none;" d="M531.035 516.893 A26.7936 26.7936 0 1 0 531.035 463.72"/>
<circle class="l4" cx="570.915" cy="490.307" r="6.64668" style="fill:none;"/>
<path class="l4" d="M863.369 317.493L863.369 370.666"/>
<path class="l4" d="M876.662 304.2L876.662 317.493"/>
<path class="l4" d="M909.895 344.08L923.189 344.08"/>
<path class="l4" d="M876.662 370.666L876.662 383.96"/>
<path class="l4" d="M843.429 364.02L863.369 364.02"/>
<path class="l4" d="M843.429 344.08L863.369 344.08"/>
<path class="l4" d="M843.429 324.14L863.369 324.14"/>
<path class="l4" style="fill:none;" d="M863.369 370.666 A26.7936 26.7936 0 1 0 863.369 317.493"/>
<circle class="l4" cx="903.249" cy="344.08" r="6.64668" style="fill:none;"/>
<path class="l5" d="M1016.24 154.649L1016.24 161.296L1021.64 161.296L1025.8 157.973L1021.64 154.649L1016.24 154.649"/>
<path class="l5" d="M1016.24 157.966L1016.25 157.966L1016.25 157.979L1016.24 157.979L1016.24 157.966z"/>
<path class="l5" d="M743.728 596.654L746.948 600.392L746.948 603.819L743.728 607.558L740.509 603.819L740.509 600.392L743.728 596.654"/>
<path class="l5" d="M743.722 596.647L743.735 596.647L743.735 596.66L743.722 596.66L743.722 596.647z"/>
<path class="l5" d="M338.281 251.026L334.127 247.703L328.726 247.703L328.726 254.349L334.127 254.349L338.281 251.026"/>
<path class="l5" d="M338.274 251.02L338.287 251.02L338.287 251.033L338.274 251.033L338.274 251.02z"/>
<path class="l5" d="M351.574 490.307L347.42 486.983L342.02 486.983L342.02 493.63L347.42 493.63L351.574 490.307"/>
<path class="l5" d="M351.568 490.3L351.581 490.3L351.581 490.313L351.568 490.313L351.568 490.3z"/>
<path class="l5" d="M444.628 603.3L441.304 607.454L441.304 612.855L447.951 612.855L447.951 607.454L444.628 603.3"/>
<path class="l5" d="M444.621 603.294L444.634 603.294L444.634 603.307L444.621 603.307L444.621 603.294z"/>
<path class="l5" d="M516.08 23.3772L519.403 23.3772L519.403 26.7005L516.08 26.7005L516.08 23.3772z"/>
<path class="l5" d="M516.08 10.0838L519.403 10.0838L519.403 13.4072L516.08 13.4072L516.08 10.0838z"/>
<path class="l5" d="M569.253 16.7305L572.576 16.7305L572.576 20.0539L569.253 20.0539L569.253 16.7305z"/>
<path class="l5" d="M536.02 49.9639L539.343 49.9639L539.343 53.2873L536.02 53.2873L536.02 49.9639z"/>
<path class="l5" d="M848.414 162.958L851.737 162.958L851.737 166.281L848.414 166.281L848.414 162.958z"/>
<path class="l5" d="M848.414 149.664L851.737 149.664L851.737 152.987L848.414 152.987L848.414 149.664z"/>
<path class="l5" d="M901.587 156.311L904.91 156.311L904.91 159.634L901.587 159.634L901.587 156.311z"/>
<path class="l5" d="M868.354 129.724L871.677 129.724L871.677 133.047L868.354 133.047L868.354 129.724z"/>
<path class="l5" d="M868.354 189.544L871.677 189.544L871.677 192.868L868.354 192.868L868.354 189.544z"/>
<path class="l5" d="M502.786 129.724L506.11 129.724L506.11 133.047L502.786 133.047L502.786 129.724z"/>
<path class="l5" d="M502.786 149.664L506.11 149.664L506.11 152.987L502.786 152.987L502.786 149.664z"/>
<path class="l5" d="M502.786 169.604L506.11 169.604L506.11 172.928L502.786 172.928L502.786 169.604z"/>
<path class="l5" d="M536.02 109.784L539.343 109.784L539.343 113.107L536.02 113.107L536.02 109.784z"/>
<path class="l5" d="M536.02 189.544L539.343 189.544L539.343 192.868L536.02 192.868L536.02 189.544z"/>
<path class="l5" d="M582.546 149.664L585.87 149.664L585.87 152.987L582.546 152.987L582.546 149.664z"/>
<path class="l5" d="M509.433 322.478L512.756 322.478L512.756 325.801L509.433 325.801L509.433 322.478z"/>
<path class="l5" d="M509.433 342.418L512.756 342.418L512.756 345.741L509.433 345.741L509.433 342.418z"/>
<path class="l5" d="M509.433 362.358L512.756 362.358L512.756 365.681L509.433 365.681L509.433 362.358z"/>
<path class="l5" d="M542.666 302.538L545.99 302.538L545.99 305.861L542.666 305.861L542.666 302.538z"/>
<path class="l5" d="M542.666 382.298L545.99 382.298L545.99 385.621L542.666 385.621L542.666 382.298z"/>
<path class="l5" d="M589.193 342.418L592.516 342.418L592.516 345.741L589.193 345.741L589.193 342.418z"/>
<path class="l5" d="M509.433 468.705L512.756 468.705L512.756 472.028L509.433 472.028L509.433 468.705z"/>
<path class="l5" d="M509.433 488.645L512.756 488.645L512.756 491.968L509.433 491.968L509.433 488.645z"/>
<path class="l5" d="M509.433 508.585L512.756 508.585L512.756 511.908L509.433 511.908L509.433 508.585z"/>
<path class="l5" d="M542.666 448.765L545.99 448.765L545.99 452.088L542.666 452.088L542.666 448.765z"/>
<path class="l5" d="M542.666 528.525L545.99 528.525L545.99 531.848L542.666 531.848L542.666 528.525z"/>
<path class="l5" d="M589.193 488.645L592.516 488.645L592.516 491.968L589.193 491.968L589.193 488.645z"/>
<path class="l5" d="M841.767 322.478L845.09 322.478L845.09 325.801L841.767 325.801L841.767 322.478z"/>
<path class="l5" d="M841.767 342.418L845.09 342.418L845.09 345.741L841.767 345.741L841.767 342.418z"/>
<path class="l5" d="M841.767 362.358L845.09 362.358L845.09 365.681L841.767 365.681L841.767 362.358z"/>
<path class="l5" d="M875 302.538L878.324 302.538L878.324 305.861L875 305.861L875 302.538z"/>
<path class="l5" d="M875 382.298L878.324 382.298L878.324 385.621L875 385.621L875 382.298z"/>
<path class="l5" d="M921.527 342.418L924.85 342.418L924.85 345.741L921.527 345.741L921.527 342.418z"/>
<path class="l1" d="M590.855 344.08L843.429 344.08"/>
<path class="l1" d="M584.208 151.326L850.075 151.326"/>
<path class="l1" d="M810.195 164.619L850.075 164.619"/>
<path class="l1" d="M810.195 164.619L810.195 231.086"/>
<path class="l1" d="M810.195 231.086L929.835 231.086"/>
<path class="l1" d="M929.835 231.086L929.835 344.08"/>
<path class="l1" d="M923.189 344.08L929.835 344.08"/>
<path class="l1" d="M903.249 157.973L989.656 157.973"/>
<path class="l1" d="M949.776 157.973L949.776 244.379"/>
<path class="l1" d="M810.195 244.379L949.776 244.379"/>
<path class="l1" d="M810.195 244.379L810.195 324.14"/>
<path class="l1" d="M810.195 324.14L843.429 324.14"/>
<path class="l1" d="M570.915 18.3922L610.795 18.3922"/>
<path class="l1" d="M610.795 18.3922L610.795 64.919"/>
<path class="l1" d="M610.795 64.919L610.795 71.5656"/>
<path class="l1" d="M491.154 71.5656L610.795 71.5656"/>
<path class="l1" d="M491.154 71.5656L491.154 131.386"/>
<path class="l1" d="M491.154 131.386L504.448 131.386"/>
<path class="l1" d="M504.448 25.0389L517.741 25.0389"/>
<path class="l1" d="M504.448 25.0389L504.448 91.5057"/>
<path class="l1" d="M504.448 91.5057L610.795 91.5057"/>
<path class="l1" d="M610.795 91.5057L610.795 151.326"/>
<path class="l1" d="M617.441 344.08L617.441 410.546"/>
<path class="l1" d="M477.861 410.546L617.441 410.546"/>
<path class="l1" d="M477.861 410.546L477.861 463.72"/>
<path class="l1" d="M477.861 463.72L477.861 470.367"/>
<path class="l1" d="M477.861 470.367L511.095 470.367"/>
<path class="l1" d="M491.154 364.02L511.095 364.02"/>
<path class="l1" d="M491.154 364.02L491.154 423.84"/>
<path class="l1" d="M491.154 423.84L617.441 423.84"/>
<path class="l1" d="M617.441 423.84L617.441 490.307"/>
<path class="l1" d="M590.855 490.307L617.441 490.307"/>
<path class="l1" d="M989.656 157.973L1016.24 157.973"/>
<path class="l1" d="M870.015 0L870.015 131.386"/>
<path class="l1" d="M537.681 111.446L697.202 111.446"/>
<path class="l1" d="M697.202 0L697.202 111.446"/>
<path class="l1" d="M697.202 111.446L697.202 443.78"/>
<path class="l1" d="M544.328 304.2L697.202 304.2"/>
<path class="l1" d="M697.202 304.2L876.662 304.2"/>
<path class="l1" d="M537.681 51.6256L743.728 51.6256"/>
<path class="l1" d="M743.728 51.6256L743.728 556.773"/>
<path class="l1" d="M537.681 197.853L743.728 197.853"/>
<path class="l1" d="M537.681 191.206L537.681 197.853"/>
<path class="l1" d="M743.728 197.853L870.015 197.853"/>
<path class="l1" d="M870.015 191.206L870.015 197.853"/>
<path class="l1" d="M544.328 450.427L697.202 450.427"/>
<path class="l1" d="M697.202 443.78L697.202 450.427"/>
<path class="l1" d="M544.328 530.187L743.728 530.187"/>
<path class="l1" d="M743.728 383.96L876.662 383.96"/>
<path class="l1" d="M544.328 383.96L743.728 383.96"/>
<path class="l1" d="M491.154 171.266L491.154 324.14"/>
<path class="l1" d="M491.154 344.08L511.095 344.08"/>
<path class="l1" d="M338.281 251.026L491.154 251.026"/>
<path class="l1" d="M491.154 151.326L504.448 151.326"/>
<path class="l1" d="M491.154 151.326L491.154 171.266"/>
<path class="l1" d="M491.154 324.14L491.154 344.08"/>
<path class="l1" d="M511.095 251.026L511.095 324.14"/>
<path class="l1" d="M511.095 251.026L610.795 251.026"/>
<path class="l1" d="M610.795 151.326L610.795 251.026"/>
<path class="l1" d="M351.574 490.307L511.095 490.307"/>
<path class="l1" d="M444.628 191.206L444.628 516.893"/>
<path class="l1" d="M444.628 510.247L511.095 510.247"/>
<path class="l1" d="M444.628 516.893L444.628 550.127"/>
<path class="l1" d="M504.448 171.266L504.448 191.206"/>
<path class="l1" d="M444.628 191.206L504.448 191.206"/>
<path class="l1" d="M444.628 550.127L444.628 603.3"/>
<path class="l1" d="M743.728 556.773L743.728 596.654"/>
<path class="l1" d="M810.195 364.02L843.429 364.02"/>
<path class="l1" d="M810.195 364.02L810.195 550.127"/>
<path class="l1" d="M444.628 550.127L810.195 550.127"/>
<path class="l1" d="M617.441 490.307L617.441 570.067"/>
<path class="l1" d="M464.568 570.067L617.441 570.067"/>
<path class="l1" d="M464.568 11.7455L464.568 570.067"/>
<path class="l1" d="M464.568 11.7455L517.741 11.7455"/>
<circle class="l1" cx="491.154" cy="251.026" r="2.65867"/>
<circle class="l1" cx="743.728" cy="197.853" r="2.65867"/>
<circle class="l1" cx="697.202" cy="304.2" r="2.65867"/>
<circle class="l1" cx="697.202" cy="111.446" r="2.65867"/>
<circle class="l1" cx="444.628" cy="550.127" r="2.65867"/>
<circle class="l1" cx="444.628" cy="550.127" r="2.65867"/>
<circle class="l1" cx="444.628" cy="550.127" r="2.65867"/>
<circle class="l1" cx="444.628" cy="510.247" r="2.65867"/>
<circle class="l1" cx="743.728" cy="383.96" r="2.65867"/>
<circle class="l1" cx="743.728" cy="530.187" r="2.65867"/>
<circle class="l1" cx="617.441" cy="490.307" r="2.65867"/>
<circle class="l1" cx="697.202" cy="111.446" r="2.65867"/>
<circle class="l1" cx="610.795" cy="151.326" r="2.65867"/>
<circle class="l1" cx="743.728" cy="197.853" r="2.65867"/>
<circle class="l1" cx="697.202" cy="304.2" r="2.65867"/>
<circle class="l1" cx="697.202" cy="111.446" r="2.65867"/>
<circle class="l1" cx="610.795" cy="151.326" r="2.65867"/>
<circle class="l1" cx="617.441" cy="490.307" r="2.65867"/>
<circle class="l1" cx="743.728" cy="383.96" r="2.65867"/>
<circle class="l1" cx="617.441" cy="490.307" r="2.65867"/>
<circle class="l1" cx="617.441" cy="344.08" r="2.65867"/>
<circle class="l1" cx="949.776" cy="157.973" r="2.65867"/>
</svg>
