<svg xmlns="http://www.w3.org/2000/svg" xmlns:xlink="http://www.w3.org/1999/xlink" width="1680" height="900" version="1.1">
<style type="text/css">
.l0{
 fill: #000000;
  stroke: #000000;
  stroke-linecap:round;
  stroke-linejoin:round;
  stroke-width: 0.373372;
}
.l1{
 fill: #00ccee;
  stroke: #00ccee;
  stroke-linecap:round;
  stroke-linejoin:round;
  stroke-width: 0.373372;
}
.l2{
  fill: none;
  stroke: #3f3f3f;
  stroke-linecap:round;
  stroke-linejoin:round;
  stroke-width: 0.373372;
}
.l3{
 fill: #cccccc; fill-opacity: 0.5;
  stroke: #cccccc;
  stroke-linecap:round;
  stroke-linejoin:round;
  stroke-width: 0.373372;
}
.l4{
 fill: #88dd00;
  stroke: #88dd00;
  stroke-linecap:round;
  stroke-linejoin:round;
  stroke-width: 0.373372;
}
.l5{
 fill: #bb2200;
  stroke: #bb2200;
  stroke-linecap:round;
  stroke-linejoin:round;
  stroke-width: 0.373372;
}
.l6{
 fill: #00ccee; fill-opacity: 0.5;
  stroke: #00ccee;
  stroke-linecap:round;
  stroke-linejoin:round;
  stroke-width: 0.373372;
}
.l7{
 fill: #ff0000; fill-opacity: 0.5;
  stroke: #ff0000;
  stroke-linecap:round;
  stroke-linejoin:round;
  stroke-width: 0.373372;
}
.l8{
 fill: #ffff00; fill-opacity: 0.5;
  stroke: #ffff00;
  stroke-linecap:round;
  stroke-linejoin:round;
  stroke-width: 0.373372;
}
.l9{
 fill: #ffffff; fill-opacity: 0.5;
  stroke: #ffffff;
  stroke-linecap:round;
  stroke-linejoin:round;
  stroke-width: 0.373372;
}
.l10{
 fill: #ff00ff;
  stroke: #ff00ff;
  stroke-linecap:round;
  stroke-linejoin:round;
  stroke-width: 0.373372;
}
.l11{
 fill: #00ff00; fill-opacity: 0.5;
  stroke: #00ff00;
  stroke-linecap:round;
  stroke-linejoin:round;
  stroke-width: 0.373372;
}
.l12{
 fill: #0044dd; fill-opacity: 0.5;
  stroke: #0044dd;
  stroke-linecap:round;
  stroke-linejoin:round;
  stroke-width: 0.373372;
}
.l13{
 fill: #aaaa00; fill-opacity: 0.5;
  stroke: #aaaa00;
  stroke-linecap:round;
  stroke-linejoin:round;
  stroke-width: 0.373372;
}
.l14{
  fill: none;
  stroke: #aaccaa;
  stroke-linecap:round;
  stroke-linejoin:round;
  stroke-width: 0.373372;
}
.l15{
 fill: #ff7777; fill-opacity: 0.5;
  stroke: #ff7777;
  stroke-linecap:round;
  stroke-linejoin:round;
  stroke-width: 0.373372;
}
.l16{
 fill: #bfff81; fill-opacity: 0.5;
  stroke: #bfff81;
  stroke-linecap:round;
  stroke-linejoin:round;
  stroke-width: 0.373372;
}
.l17{
  fill: none;
  stroke: #00ffcc;
  stroke-linecap:round;
  stroke-linejoin:round;
  stroke-width: 0.373372;
}
.l18{
 fill: #ce0097; fill-opacity: 0.5;
  stroke: #ce0097;
  stroke-linecap:round;
  stroke-linejoin:round;
  stroke-width: 0.373372;
}
.l19{
  fill: none;
  stroke: #d2d46b;
  stroke-linecap:round;
  stroke-linejoin:round;
  stroke-width: 0.373372;
}
.l20{
  fill: none;
  stroke: #ef6158;
  stroke-linecap:round;
  stroke-linejoin:round;
  stroke-width: 0.373372;
}
.l21{
  fill: none;
  stroke: #fdb200;
  stroke-linecap:round;
  stroke-linejoin:round;
  stroke-width: 0.373372;
}
text {font-family: Sans-Serif;}
</style>
<rect class="l0" x="0" y="0" width="1680" height="900"/>
<text fill="#00ccee"  xml:space="preserve" font-size="5.93247" transform="translate(1147.94, 314.344)" >CKP</text>
<text fill="#00ccee"  xml:space="preserve" font-size="5.93247" transform="translate(1168.68, 480.287)" >CKN</text>
<text fill="#00ccee"  xml:space="preserve" font-size="3.59543" transform="translate(1008.79, 600.462)" >GND</text>
<text fill="#00ccee"  xml:space="preserve" font-size="5.93247" transform="translate(1028.33, 226.418) rotate(270)" >VS</text>
<text fill="#00ccee"  xml:space="preserve" font-size="5.93247" transform="translate(336.897, 295.561) rotate(270)" >Vs</text>
<text fill="#00ccee"  xml:space="preserve" font-size="3.59543" transform="translate(338.099, 323.89)" >GND</text>
<text fill="#00ccee"  xml:space="preserve" font-size="3.59543" transform="translate(493.67, 389.576)" >GND</text>
<text fill="#00ccee"  xml:space="preserve" font-size="5.93247" transform="translate(670.849, 335.087)" >Vout</text>
<text fill="#00ccee"  xml:space="preserve" font-size="5.93247" transform="translate(381.227, 293.817)" >Vs</text>
<text fill="#00ccee"  xml:space="preserve" font-size="3.59543" transform="translate(338.099, 379.204)" >GND</text>
<text fill="#00ccee"  xml:space="preserve" font-size="5.93247" transform="translate(345.013, 347.945)" >CKS_OFF</text>
<text fill="#00ccee"  xml:space="preserve" font-size="5.93247" transform="translate(361.227, 318.017)" >CKS_OFF</text>
<text fill="#00ccee"  xml:space="preserve" font-size="5.93247" transform="translate(961.25, 234.83)" >test1</text>
<text fill="#00ccee"  xml:space="preserve" font-size="5.93247" transform="translate(1044.22, 227.915)" >test2</text>
<text fill="#aaaa00"  xml:space="preserve" font-size="3.59543" transform="translate(958.897, 319.168) rotate(270)" >1</text>
<text fill="#aaaa00"  xml:space="preserve" font-size="3.59543" transform="translate(973.589, 319.168) rotate(270)" >2</text>
<text fill="#cccccc"  xml:space="preserve" font-size="3.59543" transform="translate(961.489, 310.254) rotate(270)" >C1</text>
<text fill="#cccccc"  xml:space="preserve" font-size="3.59543" transform="translate(965.811, 310.254) rotate(270)" >100f</text>
<text fill="#cccccc"  xml:space="preserve" font-size="3.59543" transform="translate(970.132, 310.254) rotate(270)" >m=1</text>
<text fill="#cccccc"  xml:space="preserve" font-size="3.59543" transform="translate(990.636, 273.761)" >M1</text>
<text fill="#ff0000"  xml:space="preserve" font-size="2.69658" transform="translate(982.586, 289.367)" >D</text>
<text fill="#ff0000"  xml:space="preserve" font-size="2.69658" transform="translate(982.586, 274.174)" >S</text>
<text fill="#ff0000"  xml:space="preserve" font-size="2.69658" transform="translate(983.45, 279.859)" >B</text>
<text fill="#ff0000"  xml:space="preserve" font-size="2.69658" transform="translate(995.821, 279.859)" >G</text>
<text fill="#cccccc"  xml:space="preserve" font-size="3.59543" transform="translate(964.993, 276.984)" >pfet_01v8</text>
<text fill="#aaaa00"  xml:space="preserve" font-size="3.59543" transform="translate(958.561, 288.886)" >1 x 1.68 / 0.15</text>
<text fill="#aaaa00"  xml:space="preserve" font-size="3.59543" transform="translate(973.561, 284.565)" >nf=1</text>
<text fill="#cccccc"  xml:space="preserve" font-size="3.59543" transform="translate(975.264, 329.076)" >M3</text>
<text fill="#ff0000"  xml:space="preserve" font-size="2.69658" transform="translate(986.314, 344.681)" >D</text>
<text fill="#ff0000"  xml:space="preserve" font-size="2.69658" transform="translate(986.314, 329.488)" >S</text>
<text fill="#ff0000"  xml:space="preserve" font-size="2.69658" transform="translate(985.45, 335.174)" >B</text>
<text fill="#ff0000"  xml:space="preserve" font-size="2.69658" transform="translate(973.078, 335.174)" >G</text>
<text fill="#cccccc"  xml:space="preserve" font-size="3.59543" transform="translate(988.907, 332.298)" >pfet_01v8</text>
<text fill="#aaaa00"  xml:space="preserve" font-size="3.59543" transform="translate(989.339, 344.201)" >1 x 0.84 / 0.15</text>
<text fill="#aaaa00"  xml:space="preserve" font-size="3.59543" transform="translate(989.339, 339.879)" >nf=1</text>
<text fill="#cccccc"  xml:space="preserve" font-size="3.59543" transform="translate(974.264, 370.561)" >M4</text>
<text fill="#ff0000"  xml:space="preserve" font-size="2.69658" transform="translate(986.314, 386.167)" >S</text>
<text fill="#ff0000"  xml:space="preserve" font-size="2.69658" transform="translate(986.314, 370.974)" >D</text>
<text fill="#ff0000"  xml:space="preserve" font-size="2.69658" transform="translate(985.45, 376.66)" >B</text>
<text fill="#ff0000"  xml:space="preserve" font-size="2.69658" transform="translate(973.078, 376.66)" >G</text>
<text fill="#cccccc"  xml:space="preserve" font-size="3.59543" transform="translate(988.907, 373.784)" >nfet_01v8</text>
<text fill="#aaaa00"  xml:space="preserve" font-size="3.59543" transform="translate(989.339, 385.686)" >1 x 0.42 / 0.15</text>
<text fill="#aaaa00"  xml:space="preserve" font-size="3.59543" transform="translate(989.339, 381.365)" >nf=1</text>
<text fill="#cccccc"  xml:space="preserve" font-size="3.59543" transform="translate(1087.44, 273.761)" >M2</text>
<text fill="#ff0000"  xml:space="preserve" font-size="2.69658" transform="translate(1079.39, 289.367)" >D</text>
<text fill="#ff0000"  xml:space="preserve" font-size="2.69658" transform="translate(1079.39, 274.174)" >S</text>
<text fill="#ff0000"  xml:space="preserve" font-size="2.69658" transform="translate(1080.25, 279.859)" >B</text>
<text fill="#ff0000"  xml:space="preserve" font-size="2.69658" transform="translate(1092.62, 279.859)" >G</text>
<text fill="#cccccc"  xml:space="preserve" font-size="3.59543" transform="translate(1061.79, 276.984)" >pfet_01v8</text>
<text fill="#aaaa00"  xml:space="preserve" font-size="3.59543" transform="translate(1055.36, 288.886)" >1 x 0.84 / 0.15</text>
<text fill="#aaaa00"  xml:space="preserve" font-size="3.59543" transform="translate(1070.36, 284.565)" >nf=1</text>
<text fill="#cccccc"  xml:space="preserve" font-size="3.59543" transform="translate(1072.06, 329.076)" >M5</text>
<text fill="#ff0000"  xml:space="preserve" font-size="2.69658" transform="translate(1083.11, 344.681)" >D</text>
<text fill="#ff0000"  xml:space="preserve" font-size="2.69658" transform="translate(1083.11, 329.488)" >S</text>
<text fill="#ff0000"  xml:space="preserve" font-size="2.69658" transform="translate(1082.25, 335.174)" >B</text>
<text fill="#ff0000"  xml:space="preserve" font-size="2.69658" transform="translate(1069.88, 335.174)" >G</text>
<text fill="#cccccc"  xml:space="preserve" font-size="3.59543" transform="translate(1085.71, 332.298)" >pfet_01v8</text>
<text fill="#aaaa00"  xml:space="preserve" font-size="3.59543" transform="translate(1086.14, 344.201)" >1 x 0.84 / 0.15</text>
<text fill="#aaaa00"  xml:space="preserve" font-size="3.59543" transform="translate(1086.14, 339.879)" >nf=1</text>
<text fill="#cccccc"  xml:space="preserve" font-size="3.59543" transform="translate(1071.06, 356.733)" >M6</text>
<text fill="#ff0000"  xml:space="preserve" font-size="2.69658" transform="translate(1083.11, 372.338)" >S</text>
<text fill="#ff0000"  xml:space="preserve" font-size="2.69658" transform="translate(1083.11, 357.145)" >D</text>
<text fill="#ff0000"  xml:space="preserve" font-size="2.69658" transform="translate(1082.25, 362.831)" >B</text>
<text fill="#ff0000"  xml:space="preserve" font-size="2.69658" transform="translate(1069.88, 362.831)" >G</text>
<text fill="#cccccc"  xml:space="preserve" font-size="3.59543" transform="translate(1085.71, 359.955)" >nfet_01v8</text>
<text fill="#aaaa00"  xml:space="preserve" font-size="3.59543" transform="translate(1086.14, 371.858)" >1 x 0.42 / 0.15</text>
<text fill="#aaaa00"  xml:space="preserve" font-size="3.59543" transform="translate(1086.14, 367.536)" >nf=1</text>
<text fill="#aaaa00"  xml:space="preserve" font-size="3.59543" transform="translate(1038.41, 308.797) rotate(270)" >1</text>
<text fill="#aaaa00"  xml:space="preserve" font-size="3.59543" transform="translate(1053.1, 308.797) rotate(270)" >2</text>
<text fill="#cccccc"  xml:space="preserve" font-size="3.59543" transform="translate(1041, 299.882) rotate(270)" >C2</text>
<text fill="#cccccc"  xml:space="preserve" font-size="3.59543" transform="translate(1045.33, 299.882) rotate(270)" >100f</text>
<text fill="#cccccc"  xml:space="preserve" font-size="3.59543" transform="translate(1049.65, 299.882) rotate(270)" >m=1</text>
<text fill="#aaaa00"  xml:space="preserve" font-size="3.59543" transform="translate(979.639, 485.111) rotate(270)" >1</text>
<text fill="#aaaa00"  xml:space="preserve" font-size="3.59543" transform="translate(994.332, 485.111) rotate(270)" >2</text>
<text fill="#cccccc"  xml:space="preserve" font-size="3.59543" transform="translate(982.232, 476.197) rotate(270)" >C3</text>
<text fill="#cccccc"  xml:space="preserve" font-size="3.59543" transform="translate(986.554, 476.197) rotate(270)" >100f</text>
<text fill="#cccccc"  xml:space="preserve" font-size="3.59543" transform="translate(990.875, 476.197) rotate(270)" >m=1</text>
<text fill="#cccccc"  xml:space="preserve" font-size="3.59543" transform="translate(995.007, 495.019)" >M8</text>
<text fill="#ff0000"  xml:space="preserve" font-size="2.69658" transform="translate(1007.06, 510.624)" >D</text>
<text fill="#ff0000"  xml:space="preserve" font-size="2.69658" transform="translate(1007.06, 495.431)" >S</text>
<text fill="#ff0000"  xml:space="preserve" font-size="2.69658" transform="translate(1006.19, 501.117)" >B</text>
<text fill="#ff0000"  xml:space="preserve" font-size="2.69658" transform="translate(993.821, 501.117)" >G</text>
<text fill="#cccccc"  xml:space="preserve" font-size="3.59543" transform="translate(1009.65, 498.241)" >pfet_01v8</text>
<text fill="#aaaa00"  xml:space="preserve" font-size="3.59543" transform="translate(1010.08, 510.144)" >1 x 0.84 / 0.15</text>
<text fill="#aaaa00"  xml:space="preserve" font-size="3.59543" transform="translate(1010.08, 505.822)" >nf=1</text>
<text fill="#cccccc"  xml:space="preserve" font-size="3.59543" transform="translate(995.007, 543.419)" >M9</text>
<text fill="#ff0000"  xml:space="preserve" font-size="2.69658" transform="translate(1007.06, 559.024)" >S</text>
<text fill="#ff0000"  xml:space="preserve" font-size="2.69658" transform="translate(1007.06, 543.831)" >D</text>
<text fill="#ff0000"  xml:space="preserve" font-size="2.69658" transform="translate(1006.19, 549.517)" >B</text>
<text fill="#ff0000"  xml:space="preserve" font-size="2.69658" transform="translate(993.821, 549.517)" >G</text>
<text fill="#cccccc"  xml:space="preserve" font-size="3.59543" transform="translate(1009.65, 546.641)" >nfet_01v8</text>
<text fill="#aaaa00"  xml:space="preserve" font-size="3.59543" transform="translate(1010.08, 558.544)" >1 x 0.42 / 0.15</text>
<text fill="#aaaa00"  xml:space="preserve" font-size="3.59543" transform="translate(1010.08, 554.222)" >nf=1</text>
<text fill="#cccccc"  xml:space="preserve" font-size="3.59543" transform="translate(1108.18, 450.076)" >M10</text>
<text fill="#ff0000"  xml:space="preserve" font-size="2.69658" transform="translate(1100.13, 465.681)" >D</text>
<text fill="#ff0000"  xml:space="preserve" font-size="2.69658" transform="translate(1100.13, 450.488)" >S</text>
<text fill="#ff0000"  xml:space="preserve" font-size="2.69658" transform="translate(1100.99, 456.174)" >B</text>
<text fill="#ff0000"  xml:space="preserve" font-size="2.69658" transform="translate(1113.36, 456.174)" >G</text>
<text fill="#cccccc"  xml:space="preserve" font-size="3.59543" transform="translate(1082.54, 453.298)" >pfet_01v8</text>
<text fill="#aaaa00"  xml:space="preserve" font-size="3.59543" transform="translate(1076.1, 465.201)" >1 x 0.84 / 0.15</text>
<text fill="#aaaa00"  xml:space="preserve" font-size="3.59543" transform="translate(1091.1, 460.879)" >nf=1</text>
<text fill="#cccccc"  xml:space="preserve" font-size="3.59543" transform="translate(1090.81, 495.019)" >M11</text>
<text fill="#ff0000"  xml:space="preserve" font-size="2.69658" transform="translate(1103.86, 510.624)" >D</text>
<text fill="#ff0000"  xml:space="preserve" font-size="2.69658" transform="translate(1103.86, 495.431)" >S</text>
<text fill="#ff0000"  xml:space="preserve" font-size="2.69658" transform="translate(1102.99, 501.117)" >B</text>
<text fill="#ff0000"  xml:space="preserve" font-size="2.69658" transform="translate(1090.62, 501.117)" >G</text>
<text fill="#cccccc"  xml:space="preserve" font-size="3.59543" transform="translate(1106.45, 498.241)" >pfet_01v8</text>
<text fill="#aaaa00"  xml:space="preserve" font-size="3.59543" transform="translate(1106.88, 510.144)" >1 x 0.84 / 0.15</text>
<text fill="#aaaa00"  xml:space="preserve" font-size="3.59543" transform="translate(1106.88, 505.822)" >nf=1</text>
<text fill="#cccccc"  xml:space="preserve" font-size="3.59543" transform="translate(1090.81, 522.676)" >M12</text>
<text fill="#ff0000"  xml:space="preserve" font-size="2.69658" transform="translate(1103.86, 538.281)" >S</text>
<text fill="#ff0000"  xml:space="preserve" font-size="2.69658" transform="translate(1103.86, 523.088)" >D</text>
<text fill="#ff0000"  xml:space="preserve" font-size="2.69658" transform="translate(1102.99, 528.774)" >B</text>
<text fill="#ff0000"  xml:space="preserve" font-size="2.69658" transform="translate(1090.62, 528.774)" >G</text>
<text fill="#cccccc"  xml:space="preserve" font-size="3.59543" transform="translate(1106.45, 525.898)" >nfet_01v8</text>
<text fill="#aaaa00"  xml:space="preserve" font-size="3.59543" transform="translate(1106.88, 537.801)" >1 x 0.42 / 0.15</text>
<text fill="#aaaa00"  xml:space="preserve" font-size="3.59543" transform="translate(1106.88, 533.479)" >nf=1</text>
<text fill="#aaaa00"  xml:space="preserve" font-size="3.59543" transform="translate(1059.15, 485.111) rotate(270)" >1</text>
<text fill="#aaaa00"  xml:space="preserve" font-size="3.59543" transform="translate(1073.85, 485.111) rotate(270)" >2</text>
<text fill="#cccccc"  xml:space="preserve" font-size="3.59543" transform="translate(1061.75, 476.197) rotate(270)" >C4</text>
<text fill="#cccccc"  xml:space="preserve" font-size="3.59543" transform="translate(1066.07, 476.197) rotate(270)" >100f</text>
<text fill="#cccccc"  xml:space="preserve" font-size="3.59543" transform="translate(1070.39, 476.197) rotate(270)" >m=1</text>
<text fill="#cccccc"  xml:space="preserve" font-size="3.59543" transform="translate(1011.38, 453.533)" >M7</text>
<text fill="#ff0000"  xml:space="preserve" font-size="2.69658" transform="translate(1003.33, 469.138)" >D</text>
<text fill="#ff0000"  xml:space="preserve" font-size="2.69658" transform="translate(1003.33, 453.945)" >S</text>
<text fill="#ff0000"  xml:space="preserve" font-size="2.69658" transform="translate(1004.19, 459.631)" >B</text>
<text fill="#ff0000"  xml:space="preserve" font-size="2.69658" transform="translate(1016.56, 459.631)" >G</text>
<text fill="#cccccc"  xml:space="preserve" font-size="3.59543" transform="translate(985.736, 456.755)" >pfet_01v8</text>
<text fill="#aaaa00"  xml:space="preserve" font-size="3.59543" transform="translate(979.303, 468.658)" >1 x 0.84 / 0.15</text>
<text fill="#aaaa00"  xml:space="preserve" font-size="3.59543" transform="translate(994.303, 464.337)" >nf=1</text>
<text fill="#cccccc"  xml:space="preserve" font-size="1.79772" transform="translate(937.05, 306.7)" >x4</text>
<text fill="#cccccc"  xml:space="preserve" font-size="1.79772" transform="translate(750.364, 355.1)" >x1</text>
<text fill="#cccccc"  xml:space="preserve" font-size="1.79772" transform="translate(805.678, 355.1)" >x2</text>
<text fill="#cccccc"  xml:space="preserve" font-size="1.79772" transform="translate(850.621, 355.1)" >x15</text>
<text fill="#cccccc"  xml:space="preserve" font-size="1.79772" transform="translate(847.164, 472.643)" >x21</text>
<text fill="#cccccc"  xml:space="preserve" font-size="1.79772" transform="translate(895.564, 472.643)" >x22</text>
<text fill="#cccccc"  xml:space="preserve" font-size="1.79772" transform="translate(940.507, 472.643)" >x23</text>
<text fill="#cccccc"  xml:space="preserve" font-size="5.39315" transform="translate(1211.89, 246.008)" >TT_MODELS</text>
<text fill="#cccccc"  xml:space="preserve" font-size="5.39315" transform="translate(1229.18, 403.308)" >SPICE</text>
<text fill="#cccccc"  xml:space="preserve" font-size="5.39315" transform="translate(1232.64, 411.951)" >.tran 10u 100m</text>
<text fill="#cccccc"  xml:space="preserve" font-size="5.39315" transform="translate(1232.64, 418.137)" >.save all</text>
<text fill="#cccccc"  xml:space="preserve" font-size="3.59543" transform="translate(342.42, 305.308)" >V3</text>
<text fill="#cccccc"  xml:space="preserve" font-size="3.59543" transform="translate(342.42, 309.629)" >250m</text>
<text fill="#cccccc"  xml:space="preserve" font-size="1.79772" transform="translate(425.392, 355.1)" >x3</text>
<text fill="#cccccc"  xml:space="preserve" font-size="1.79772" transform="translate(466.878, 355.1)" >x5</text>
<text fill="#cccccc"  xml:space="preserve" font-size="1.79772" transform="translate(508.363, 355.1)" >x6</text>
<text fill="#cccccc"  xml:space="preserve" font-size="1.79772" transform="translate(549.849, 355.1)" >x7</text>
<text fill="#cccccc"  xml:space="preserve" font-size="1.79772" transform="translate(594.792, 355.1)" >x8</text>
<text fill="#cccccc"  xml:space="preserve" font-size="3.59543" transform="translate(409.749, 308.333)" >M13</text>
<text fill="#ff0000"  xml:space="preserve" font-size="2.69658" transform="translate(422.799, 323.938)" >D</text>
<text fill="#ff0000"  xml:space="preserve" font-size="2.69658" transform="translate(422.799, 308.745)" >S</text>
<text fill="#ff0000"  xml:space="preserve" font-size="2.69658" transform="translate(421.935, 314.431)" >B</text>
<text fill="#ff0000"  xml:space="preserve" font-size="2.69658" transform="translate(409.563, 314.431)" >G</text>
<text fill="#cccccc"  xml:space="preserve" font-size="3.59543" transform="translate(425.392, 311.555)" >pfet_01v8</text>
<text fill="#aaaa00"  xml:space="preserve" font-size="3.59543" transform="translate(425.824, 323.458)" >1 x 0.63 / 0.15</text>
<text fill="#aaaa00"  xml:space="preserve" font-size="3.59543" transform="translate(425.824, 319.136)" >nf=1</text>
<text fill="#cccccc"  xml:space="preserve" font-size="3.59543" transform="translate(450.235, 308.333)" >M14</text>
<text fill="#ff0000"  xml:space="preserve" font-size="2.69658" transform="translate(464.285, 323.938)" >D</text>
<text fill="#ff0000"  xml:space="preserve" font-size="2.69658" transform="translate(464.285, 308.745)" >S</text>
<text fill="#ff0000"  xml:space="preserve" font-size="2.69658" transform="translate(463.42, 314.431)" >B</text>
<text fill="#ff0000"  xml:space="preserve" font-size="2.69658" transform="translate(451.049, 314.431)" >G</text>
<text fill="#cccccc"  xml:space="preserve" font-size="3.59543" transform="translate(466.878, 311.555)" >pfet_01v8</text>
<text fill="#aaaa00"  xml:space="preserve" font-size="3.59543" transform="translate(467.31, 323.458)" >1 x 0.63 / 0.15</text>
<text fill="#aaaa00"  xml:space="preserve" font-size="3.59543" transform="translate(467.31, 319.136)" >nf=1</text>
<text fill="#cccccc"  xml:space="preserve" font-size="3.59543" transform="translate(492.721, 308.333)" >M15</text>
<text fill="#ff0000"  xml:space="preserve" font-size="2.69658" transform="translate(505.771, 323.938)" >D</text>
<text fill="#ff0000"  xml:space="preserve" font-size="2.69658" transform="translate(505.771, 308.745)" >S</text>
<text fill="#ff0000"  xml:space="preserve" font-size="2.69658" transform="translate(504.906, 314.431)" >B</text>
<text fill="#ff0000"  xml:space="preserve" font-size="2.69658" transform="translate(492.535, 314.431)" >G</text>
<text fill="#cccccc"  xml:space="preserve" font-size="3.59543" transform="translate(508.363, 311.555)" >pfet_01v8</text>
<text fill="#aaaa00"  xml:space="preserve" font-size="3.59543" transform="translate(508.796, 323.458)" >1 x 0.63 / 0.15</text>
<text fill="#aaaa00"  xml:space="preserve" font-size="3.59543" transform="translate(508.796, 319.136)" >nf=1</text>
<text fill="#cccccc"  xml:space="preserve" font-size="3.59543" transform="translate(533.206, 308.333)" >M16</text>
<text fill="#ff0000"  xml:space="preserve" font-size="2.69658" transform="translate(547.256, 323.938)" >D</text>
<text fill="#ff0000"  xml:space="preserve" font-size="2.69658" transform="translate(547.256, 308.745)" >S</text>
<text fill="#ff0000"  xml:space="preserve" font-size="2.69658" transform="translate(546.392, 314.431)" >B</text>
<text fill="#ff0000"  xml:space="preserve" font-size="2.69658" transform="translate(534.021, 314.431)" >G</text>
<text fill="#cccccc"  xml:space="preserve" font-size="3.59543" transform="translate(549.849, 311.555)" >pfet_01v8</text>
<text fill="#aaaa00"  xml:space="preserve" font-size="3.59543" transform="translate(550.281, 323.458)" >1 x 0.63 / 0.15</text>
<text fill="#aaaa00"  xml:space="preserve" font-size="3.59543" transform="translate(550.281, 319.136)" >nf=1</text>
<text fill="#cccccc"  xml:space="preserve" font-size="3.59543" transform="translate(579.149, 308.333)" >M17</text>
<text fill="#ff0000"  xml:space="preserve" font-size="2.69658" transform="translate(592.199, 323.938)" >D</text>
<text fill="#ff0000"  xml:space="preserve" font-size="2.69658" transform="translate(592.199, 308.745)" >S</text>
<text fill="#ff0000"  xml:space="preserve" font-size="2.69658" transform="translate(591.335, 314.431)" >B</text>
<text fill="#ff0000"  xml:space="preserve" font-size="2.69658" transform="translate(578.963, 314.431)" >G</text>
<text fill="#cccccc"  xml:space="preserve" font-size="3.59543" transform="translate(594.792, 311.555)" >pfet_01v8</text>
<text fill="#aaaa00"  xml:space="preserve" font-size="3.59543" transform="translate(595.224, 323.458)" >1 x 0.63 / 0.15</text>
<text fill="#aaaa00"  xml:space="preserve" font-size="3.59543" transform="translate(595.224, 319.136)" >nf=1</text>
<text fill="#cccccc"  xml:space="preserve" font-size="3.59543" transform="translate(342.42, 360.622)" >V4</text>
<text fill="#cccccc"  xml:space="preserve" font-size="3.59543" transform="translate(342.42, 364.944)" >0</text>
<path class="l4" d="M966.436 315.439L975.078 315.439"/>
<path class="l4" d="M954.335 315.439L962.978 315.439"/>
<path class="l4" d="M962.978 311.982L962.978 318.897"/>
<path class="l4" d="M966.436 311.982L966.436 318.897"/>
<path class="l4" d="M956.928 312.847L956.928 314.575"/>
<path class="l4" d="M956.064 313.711L957.793 313.711"/>
<path class="l4" d="M989.771 273.089L989.771 288.647"/>
<path class="l4" d="M985.45 270.497L985.45 274.818"/>
<path class="l4" d="M985.45 286.918L985.45 291.239"/>
<path class="l4" d="M991.5 275.682L991.5 286.054"/>
<path class="l4" d="M985.45 286.918L989.771 286.918"/>
<path class="l4" d="M985.45 274.818L988.043 274.818"/>
<path class="l4" d="M994.957 280.868L999.278 280.868"/>
<path class="l4" d="M988.043 273.954L989.771 274.818L988.043 275.682L988.043 273.954"/>
<circle class="l4" cx="993.228" cy="280.868" r="1.72857" style="fill:none;"/>
<path class="l4" d="M981.128 328.404L981.128 343.961"/>
<path class="l4" d="M985.45 325.811L985.45 330.132"/>
<path class="l4" d="M985.45 342.232L985.45 346.554"/>
<path class="l4" d="M979.4 330.997L979.4 341.368"/>
<path class="l4" d="M981.128 342.232L985.45 342.232"/>
<path class="l4" d="M982.857 330.132L985.45 330.132"/>
<path class="l4" d="M971.621 336.182L975.943 336.182"/>
<path class="l4" d="M982.857 329.268L981.128 330.132L982.857 330.997L982.857 329.268"/>
<circle class="l4" cx="977.671" cy="336.182" r="1.72857" style="fill:none;"/>
<path class="l4" d="M981.128 369.89L981.128 385.447"/>
<path class="l4" d="M971.621 377.668L979.4 377.668"/>
<path class="l4" d="M985.45 367.297L985.45 371.618"/>
<path class="l4" d="M985.45 383.718L985.45 388.04"/>
<path class="l4" d="M979.4 372.482L979.4 382.854"/>
<path class="l4" d="M981.128 371.618L985.45 371.618"/>
<path class="l4" d="M981.128 383.718L983.721 383.718"/>
<path class="l4" d="M983.721 382.854L985.45 383.718L983.721 384.582L983.721 382.854"/>
<path class="l4" d="M1086.57 273.089L1086.57 288.647"/>
<path class="l4" d="M1082.25 270.497L1082.25 274.818"/>
<path class="l4" d="M1082.25 286.918L1082.25 291.239"/>
<path class="l4" d="M1088.3 275.682L1088.3 286.054"/>
<path class="l4" d="M1082.25 286.918L1086.57 286.918"/>
<path class="l4" d="M1082.25 274.818L1084.84 274.818"/>
<path class="l4" d="M1091.76 280.868L1096.08 280.868"/>
<path class="l4" d="M1084.84 273.954L1086.57 274.818L1084.84 275.682L1084.84 273.954"/>
<circle class="l4" cx="1090.03" cy="280.868" r="1.72857" style="fill:none;"/>
<path class="l4" d="M1077.93 328.404L1077.93 343.961"/>
<path class="l4" d="M1082.25 325.811L1082.25 330.132"/>
<path class="l4" d="M1082.25 342.232L1082.25 346.554"/>
<path class="l4" d="M1076.2 330.997L1076.2 341.368"/>
<path class="l4" d="M1077.93 342.232L1082.25 342.232"/>
<path class="l4" d="M1079.66 330.132L1082.25 330.132"/>
<path class="l4" d="M1068.42 336.182L1072.74 336.182"/>
<path class="l4" d="M1079.66 329.268L1077.93 330.132L1079.66 330.997L1079.66 329.268"/>
<circle class="l4" cx="1074.47" cy="336.182" r="1.72857" style="fill:none;"/>
<path class="l4" d="M1077.93 356.061L1077.93 371.618"/>
<path class="l4" d="M1068.42 363.84L1076.2 363.84"/>
<path class="l4" d="M1082.25 353.468L1082.25 357.79"/>
<path class="l4" d="M1082.25 369.89L1082.25 374.211"/>
<path class="l4" d="M1076.2 358.654L1076.2 369.025"/>
<path class="l4" d="M1077.93 357.79L1082.25 357.79"/>
<path class="l4" d="M1077.93 369.89L1080.52 369.89"/>
<path class="l4" d="M1080.52 369.025L1082.25 369.89L1080.52 370.754L1080.52 369.025"/>
<path class="l4" d="M1045.95 305.068L1054.59 305.068"/>
<path class="l4" d="M1033.85 305.068L1042.49 305.068"/>
<path class="l4" d="M1042.49 301.611L1042.49 308.525"/>
<path class="l4" d="M1045.95 301.611L1045.95 308.525"/>
<path class="l4" d="M1036.44 302.475L1036.44 304.204"/>
<path class="l4" d="M1035.58 303.339L1037.31 303.339"/>
<path class="l4" d="M987.178 481.383L995.821 481.383"/>
<path class="l4" d="M975.078 481.383L983.721 481.383"/>
<path class="l4" d="M983.721 477.925L983.721 484.84"/>
<path class="l4" d="M987.178 477.925L987.178 484.84"/>
<path class="l4" d="M977.671 478.79L977.671 480.518"/>
<path class="l4" d="M976.807 479.654L978.536 479.654"/>
<path class="l4" d="M1001.87 494.347L1001.87 509.904"/>
<path class="l4" d="M1006.19 491.754L1006.19 496.075"/>
<path class="l4" d="M1006.19 508.176L1006.19 512.497"/>
<path class="l4" d="M1000.14 496.94L1000.14 507.311"/>
<path class="l4" d="M1001.87 508.176L1006.19 508.176"/>
<path class="l4" d="M1003.6 496.075L1006.19 496.075"/>
<path class="l4" d="M992.364 502.125L996.686 502.125"/>
<path class="l4" d="M1003.6 495.211L1001.87 496.075L1003.6 496.94L1003.6 495.211"/>
<circle class="l4" cx="998.414" cy="502.125" r="1.72857" style="fill:none;"/>
<path class="l4" d="M1001.87 542.747L1001.87 558.304"/>
<path class="l4" d="M992.364 550.526L1000.14 550.526"/>
<path class="l4" d="M1006.19 540.154L1006.19 544.476"/>
<path class="l4" d="M1006.19 556.576L1006.19 560.897"/>
<path class="l4" d="M1000.14 545.34L1000.14 555.711"/>
<path class="l4" d="M1001.87 544.476L1006.19 544.476"/>
<path class="l4" d="M1001.87 556.576L1004.46 556.576"/>
<path class="l4" d="M1004.46 555.711L1006.19 556.576L1004.46 557.44L1004.46 555.711"/>
<path class="l4" d="M1107.31 449.404L1107.31 464.961"/>
<path class="l4" d="M1102.99 446.811L1102.99 451.133"/>
<path class="l4" d="M1102.99 463.233L1102.99 467.554"/>
<path class="l4" d="M1109.04 451.997L1109.04 462.368"/>
<path class="l4" d="M1102.99 463.233L1107.31 463.233"/>
<path class="l4" d="M1102.99 451.133L1105.59 451.133"/>
<path class="l4" d="M1112.5 457.183L1116.82 457.183"/>
<path class="l4" d="M1105.59 450.268L1107.31 451.133L1105.59 451.997L1105.59 450.268"/>
<circle class="l4" cx="1110.77" cy="457.183" r="1.72857" style="fill:none;"/>
<path class="l4" d="M1098.67 494.347L1098.67 509.904"/>
<path class="l4" d="M1102.99 491.754L1102.99 496.075"/>
<path class="l4" d="M1102.99 508.176L1102.99 512.497"/>
<path class="l4" d="M1096.94 496.94L1096.94 507.311"/>
<path class="l4" d="M1098.67 508.176L1102.99 508.176"/>
<path class="l4" d="M1100.4 496.075L1102.99 496.075"/>
<path class="l4" d="M1089.16 502.125L1093.49 502.125"/>
<path class="l4" d="M1100.4 495.211L1098.67 496.075L1100.4 496.94L1100.4 495.211"/>
<circle class="l4" cx="1095.21" cy="502.125" r="1.72857" style="fill:none;"/>
<path class="l4" d="M1098.67 522.004L1098.67 537.561"/>
<path class="l4" d="M1089.16 529.783L1096.94 529.783"/>
<path class="l4" d="M1102.99 519.411L1102.99 523.733"/>
<path class="l4" d="M1102.99 535.833L1102.99 540.154"/>
<path class="l4" d="M1096.94 524.597L1096.94 534.968"/>
<path class="l4" d="M1098.67 523.733L1102.99 523.733"/>
<path class="l4" d="M1098.67 535.833L1101.26 535.833"/>
<path class="l4" d="M1101.26 534.968L1102.99 535.833L1101.26 536.697L1101.26 534.968"/>
<path class="l4" d="M1066.69 481.383L1075.34 481.383"/>
<path class="l4" d="M1054.59 481.383L1063.24 481.383"/>
<path class="l4" d="M1063.24 477.925L1063.24 484.84"/>
<path class="l4" d="M1066.69 477.925L1066.69 484.84"/>
<path class="l4" d="M1057.19 478.79L1057.19 480.518"/>
<path class="l4" d="M1056.32 479.654L1058.05 479.654"/>
<path class="l4" d="M1006.19 595.468L1006.19 599.79"/>
<path class="l4" d="M1004.46 599.79L1007.92 599.79"/>
<path class="l4" d="M1006.19 601.519L1007.92 599.79"/>
<path class="l4" d="M1004.46 599.79L1006.19 601.519"/>
<path class="l4" d="M1010.51 452.861L1010.51 468.418"/>
<path class="l4" d="M1006.19 450.268L1006.19 454.59"/>
<path class="l4" d="M1006.19 466.69L1006.19 471.011"/>
<path class="l4" d="M1012.24 455.454L1012.24 465.825"/>
<path class="l4" d="M1006.19 466.69L1010.51 466.69"/>
<path class="l4" d="M1006.19 454.59L1008.79 454.59"/>
<path class="l4" d="M1015.7 460.64L1020.02 460.64"/>
<path class="l4" d="M1008.79 453.725L1010.51 454.59L1008.79 455.454L1008.79 453.725"/>
<circle class="l4" cx="1013.97" cy="460.64" r="1.72857" style="fill:none;"/>
<path class="l4" d="M926.678 308.525L926.678 325.811"/>
<path class="l4" d="M926.678 325.811L943.964 315.439"/>
<path class="l4" d="M926.678 305.068L943.964 315.439"/>
<path class="l4" d="M926.678 305.068L926.678 308.525"/>
<path class="l4" d="M926.678 311.982L930.135 308.525"/>
<path class="l4" d="M926.678 311.982L930.135 315.439"/>
<path class="l4" d="M926.678 318.897L930.135 315.439"/>
<path class="l4" d="M926.678 318.897L930.135 322.354"/>
<path class="l4" d="M930.135 315.439L933.593 311.982"/>
<path class="l4" d="M930.135 315.439L933.593 318.897"/>
<path class="l4" d="M933.593 311.982L937.05 311.982"/>
<path class="l4" d="M933.593 318.897L937.05 318.897"/>
<path class="l4" d="M930.135 308.525L933.593 311.982"/>
<path class="l4" d="M930.135 322.354L933.593 318.897"/>
<path class="l4" d="M937.05 311.982L940.507 315.439"/>
<path class="l4" d="M937.05 318.897L940.507 315.439"/>
<path class="l4" d="M950.878 315.439L954.335 315.439"/>
<path class="l4" d="M933.593 301.611L933.593 308.525"/>
<path class="l4" d="M933.593 322.354L933.593 329.268"/>
<path class="l4" d="M919.764 315.439L926.678 315.439"/>
<path class="l4" d="M933.593 308.525L933.593 311.982"/>
<path class="l4" d="M933.593 318.897L933.593 322.354"/>
<circle class="l4" cx="947.421" cy="315.439" r="3.45715" style="fill:none;"/>
<path class="l4" d="M739.992 356.925L739.992 374.211"/>
<path class="l4" d="M739.992 374.211L757.278 363.84"/>
<path class="l4" d="M739.992 353.468L757.278 363.84"/>
<path class="l4" d="M739.992 353.468L739.992 356.925"/>
<path class="l4" d="M739.992 360.382L743.449 356.925"/>
<path class="l4" d="M739.992 360.382L743.449 363.84"/>
<path class="l4" d="M739.992 367.297L743.449 363.84"/>
<path class="l4" d="M739.992 367.297L743.449 370.754"/>
<path class="l4" d="M743.449 363.84L746.907 360.382"/>
<path class="l4" d="M743.449 363.84L746.907 367.297"/>
<path class="l4" d="M746.907 360.382L750.364 360.382"/>
<path class="l4" d="M746.907 367.297L750.364 367.297"/>
<path class="l4" d="M743.449 356.925L746.907 360.382"/>
<path class="l4" d="M743.449 370.754L746.907 367.297"/>
<path class="l4" d="M750.364 360.382L753.821 363.84"/>
<path class="l4" d="M750.364 367.297L753.821 363.84"/>
<path class="l4" d="M764.192 363.84L767.649 363.84"/>
<path class="l4" d="M746.907 350.011L746.907 356.925"/>
<path class="l4" d="M746.907 370.754L746.907 377.668"/>
<path class="l4" d="M733.078 363.84L739.992 363.84"/>
<path class="l4" d="M746.907 356.925L746.907 360.382"/>
<path class="l4" d="M746.907 367.297L746.907 370.754"/>
<circle class="l4" cx="760.735" cy="363.84" r="3.45715" style="fill:none;"/>
<path class="l4" d="M795.307 356.925L795.307 374.211"/>
<path class="l4" d="M795.307 374.211L812.592 363.84"/>
<path class="l4" d="M795.307 353.468L812.592 363.84"/>
<path class="l4" d="M795.307 353.468L795.307 356.925"/>
<path class="l4" d="M795.307 360.382L798.764 356.925"/>
<path class="l4" d="M795.307 360.382L798.764 363.84"/>
<path class="l4" d="M795.307 367.297L798.764 363.84"/>
<path class="l4" d="M795.307 367.297L798.764 370.754"/>
<path class="l4" d="M798.764 363.84L802.221 360.382"/>
<path class="l4" d="M798.764 363.84L802.221 367.297"/>
<path class="l4" d="M802.221 360.382L805.678 360.382"/>
<path class="l4" d="M802.221 367.297L805.678 367.297"/>
<path class="l4" d="M798.764 356.925L802.221 360.382"/>
<path class="l4" d="M798.764 370.754L802.221 367.297"/>
<path class="l4" d="M805.678 360.382L809.135 363.84"/>
<path class="l4" d="M805.678 367.297L809.135 363.84"/>
<path class="l4" d="M819.507 363.84L822.964 363.84"/>
<path class="l4" d="M802.221 350.011L802.221 356.925"/>
<path class="l4" d="M802.221 370.754L802.221 377.668"/>
<path class="l4" d="M788.392 363.84L795.307 363.84"/>
<path class="l4" d="M802.221 356.925L802.221 360.382"/>
<path class="l4" d="M802.221 367.297L802.221 370.754"/>
<circle class="l4" cx="816.05" cy="363.84" r="3.45715" style="fill:none;"/>
<path class="l4" d="M840.25 356.925L840.25 374.211"/>
<path class="l4" d="M840.25 374.211L857.535 363.84"/>
<path class="l4" d="M840.25 353.468L857.535 363.84"/>
<path class="l4" d="M840.25 353.468L840.25 356.925"/>
<path class="l4" d="M840.25 360.382L843.707 356.925"/>
<path class="l4" d="M840.25 360.382L843.707 363.84"/>
<path class="l4" d="M840.25 367.297L843.707 363.84"/>
<path class="l4" d="M840.25 367.297L843.707 370.754"/>
<path class="l4" d="M843.707 363.84L847.164 360.382"/>
<path class="l4" d="M843.707 363.84L847.164 367.297"/>
<path class="l4" d="M847.164 360.382L850.621 360.382"/>
<path class="l4" d="M847.164 367.297L850.621 367.297"/>
<path class="l4" d="M843.707 356.925L847.164 360.382"/>
<path class="l4" d="M843.707 370.754L847.164 367.297"/>
<path class="l4" d="M850.621 360.382L854.078 363.84"/>
<path class="l4" d="M850.621 367.297L854.078 363.84"/>
<path class="l4" d="M864.45 363.84L867.907 363.84"/>
<path class="l4" d="M847.164 350.011L847.164 356.925"/>
<path class="l4" d="M847.164 370.754L847.164 377.668"/>
<path class="l4" d="M833.335 363.84L840.25 363.84"/>
<path class="l4" d="M847.164 356.925L847.164 360.382"/>
<path class="l4" d="M847.164 367.297L847.164 370.754"/>
<circle class="l4" cx="860.992" cy="363.84" r="3.45715" style="fill:none;"/>
<path class="l4" d="M836.792 474.468L836.792 491.754"/>
<path class="l4" d="M836.792 491.754L854.078 481.383"/>
<path class="l4" d="M836.792 471.011L854.078 481.383"/>
<path class="l4" d="M836.792 471.011L836.792 474.468"/>
<path class="l4" d="M836.792 477.925L840.25 474.468"/>
<path class="l4" d="M836.792 477.925L840.25 481.383"/>
<path class="l4" d="M836.792 484.84L840.25 481.383"/>
<path class="l4" d="M836.792 484.84L840.25 488.297"/>
<path class="l4" d="M840.25 481.383L843.707 477.925"/>
<path class="l4" d="M840.25 481.383L843.707 484.84"/>
<path class="l4" d="M843.707 477.925L847.164 477.925"/>
<path class="l4" d="M843.707 484.84L847.164 484.84"/>
<path class="l4" d="M840.25 474.468L843.707 477.925"/>
<path class="l4" d="M840.25 488.297L843.707 484.84"/>
<path class="l4" d="M847.164 477.925L850.621 481.383"/>
<path class="l4" d="M847.164 484.84L850.621 481.383"/>
<path class="l4" d="M860.992 481.383L864.45 481.383"/>
<path class="l4" d="M843.707 467.554L843.707 474.468"/>
<path class="l4" d="M843.707 488.297L843.707 495.211"/>
<path class="l4" d="M829.878 481.383L836.792 481.383"/>
<path class="l4" d="M843.707 474.468L843.707 477.925"/>
<path class="l4" d="M843.707 484.84L843.707 488.297"/>
<circle class="l4" cx="857.535" cy="481.383" r="3.45715" style="fill:none;"/>
<path class="l4" d="M885.193 474.468L885.193 491.754"/>
<path class="l4" d="M885.193 491.754L902.478 481.383"/>
<path class="l4" d="M885.193 471.011L902.478 481.383"/>
<path class="l4" d="M885.193 471.011L885.193 474.468"/>
<path class="l4" d="M885.193 477.925L888.65 474.468"/>
<path class="l4" d="M885.193 477.925L888.65 481.383"/>
<path class="l4" d="M885.193 484.84L888.65 481.383"/>
<path class="l4" d="M885.193 484.84L888.65 488.297"/>
<path class="l4" d="M888.65 481.383L892.107 477.925"/>
<path class="l4" d="M888.65 481.383L892.107 484.84"/>
<path class="l4" d="M892.107 477.925L895.564 477.925"/>
<path class="l4" d="M892.107 484.84L895.564 484.84"/>
<path class="l4" d="M888.65 474.468L892.107 477.925"/>
<path class="l4" d="M888.65 488.297L892.107 484.84"/>
<path class="l4" d="M895.564 477.925L899.021 481.383"/>
<path class="l4" d="M895.564 484.84L899.021 481.383"/>
<path class="l4" d="M909.393 481.383L912.85 481.383"/>
<path class="l4" d="M892.107 467.554L892.107 474.468"/>
<path class="l4" d="M892.107 488.297L892.107 495.211"/>
<path class="l4" d="M878.278 481.383L885.193 481.383"/>
<path class="l4" d="M892.107 474.468L892.107 477.925"/>
<path class="l4" d="M892.107 484.84L892.107 488.297"/>
<circle class="l4" cx="905.935" cy="481.383" r="3.45715" style="fill:none;"/>
<path class="l4" d="M930.135 474.468L930.135 491.754"/>
<path class="l4" d="M930.135 491.754L947.421 481.383"/>
<path class="l4" d="M930.135 471.011L947.421 481.383"/>
<path class="l4" d="M930.135 471.011L930.135 474.468"/>
<path class="l4" d="M930.135 477.925L933.593 474.468"/>
<path class="l4" d="M930.135 477.925L933.593 481.383"/>
<path class="l4" d="M930.135 484.84L933.593 481.383"/>
<path class="l4" d="M930.135 484.84L933.593 488.297"/>
<path class="l4" d="M933.593 481.383L937.05 477.925"/>
<path class="l4" d="M933.593 481.383L937.05 484.84"/>
<path class="l4" d="M937.05 477.925L940.507 477.925"/>
<path class="l4" d="M937.05 484.84L940.507 484.84"/>
<path class="l4" d="M933.593 474.468L937.05 477.925"/>
<path class="l4" d="M933.593 488.297L937.05 484.84"/>
<path class="l4" d="M940.507 477.925L943.964 481.383"/>
<path class="l4" d="M940.507 484.84L943.964 481.383"/>
<path class="l4" d="M954.335 481.383L957.793 481.383"/>
<path class="l4" d="M937.05 467.554L937.05 474.468"/>
<path class="l4" d="M937.05 488.297L937.05 495.211"/>
<path class="l4" d="M923.221 481.383L930.135 481.383"/>
<path class="l4" d="M937.05 474.468L937.05 477.925"/>
<path class="l4" d="M937.05 484.84L937.05 488.297"/>
<circle class="l4" cx="950.878" cy="481.383" r="3.45715" style="fill:none;"/>
<path class="l4" d="M1213.62 260.125L1227.45 260.125"/>
<path class="l4" d="M1213.62 263.582L1220.54 263.582"/>
<path class="l4" d="M1213.62 267.039L1227.45 267.039"/>
<path class="l4" d="M1213.62 270.497L1223.99 270.497"/>
<path class="l4" d="M1213.62 273.954L1223.99 273.954"/>
<path class="l4" d="M1213.62 277.411L1237.82 277.411"/>
<path class="l4" d="M1213.62 280.868L1220.54 280.868"/>
<path class="l4" d="M1213.62 256.668L1230.91 256.668"/>
<path class="l4" d="M1213.62 253.211L1220.54 253.211"/>
<path class="l4" d="M1241.28 253.211L1244.74 253.211"/>
<path class="l4" d="M1244.74 253.211L1244.74 287.782"/>
<path class="l4" d="M1213.62 287.782L1244.74 287.782"/>
<path class="l4" d="M1213.62 284.325L1213.62 287.782"/>
<path class="l4" d="M1241.28 249.754L1241.28 284.325"/>
<path class="l4" d="M1210.16 284.325L1241.28 284.325"/>
<path class="l4" d="M1210.16 249.754L1210.16 284.325"/>
<path class="l4" d="M1210.16 249.754L1241.28 249.754"/>
<path class="l4" d="M1227.45 405.325L1251.65 405.325"/>
<path class="l4" d="M1227.45 405.325L1227.45 412.24"/>
<path class="l4" d="M336.37 300.747L338.099 300.747"/>
<path class="l4" d="M337.235 299.882L337.235 301.611"/>
<path class="l4" d="M335.506 298.154L335.506 318.897"/>
<circle class="l4" cx="335.506" cy="308.525" r="5.18572" style="fill:none;"/>
<path class="l4" d="M335.506 318.897L335.506 323.218"/>
<path class="l4" d="M333.777 323.218L337.235 323.218"/>
<path class="l4" d="M335.506 324.947L337.235 323.218"/>
<path class="l4" d="M333.777 323.218L335.506 324.947"/>
<path class="l4" d="M491.078 384.582L491.078 388.904"/>
<path class="l4" d="M489.349 388.904L492.806 388.904"/>
<path class="l4" d="M491.078 390.632L492.806 388.904"/>
<path class="l4" d="M489.349 388.904L491.078 390.632"/>
<path class="l4" d="M415.02 356.925L415.02 374.211"/>
<path class="l4" d="M415.02 374.211L432.306 363.84"/>
<path class="l4" d="M415.02 353.468L432.306 363.84"/>
<path class="l4" d="M415.02 353.468L415.02 356.925"/>
<path class="l4" d="M415.02 360.382L418.478 356.925"/>
<path class="l4" d="M415.02 360.382L418.478 363.84"/>
<path class="l4" d="M415.02 367.297L418.478 363.84"/>
<path class="l4" d="M415.02 367.297L418.478 370.754"/>
<path class="l4" d="M418.478 363.84L421.935 360.382"/>
<path class="l4" d="M418.478 363.84L421.935 367.297"/>
<path class="l4" d="M421.935 360.382L425.392 360.382"/>
<path class="l4" d="M421.935 367.297L425.392 367.297"/>
<path class="l4" d="M418.478 356.925L421.935 360.382"/>
<path class="l4" d="M418.478 370.754L421.935 367.297"/>
<path class="l4" d="M425.392 360.382L428.849 363.84"/>
<path class="l4" d="M425.392 367.297L428.849 363.84"/>
<path class="l4" d="M439.22 363.84L442.678 363.84"/>
<path class="l4" d="M421.935 350.011L421.935 356.925"/>
<path class="l4" d="M421.935 370.754L421.935 377.668"/>
<path class="l4" d="M408.106 363.84L415.02 363.84"/>
<path class="l4" d="M421.935 356.925L421.935 360.382"/>
<path class="l4" d="M421.935 367.297L421.935 370.754"/>
<circle class="l4" cx="435.763" cy="363.84" r="3.45715" style="fill:none;"/>
<path class="l4" d="M456.506 356.925L456.506 374.211"/>
<path class="l4" d="M456.506 374.211L473.792 363.84"/>
<path class="l4" d="M456.506 353.468L473.792 363.84"/>
<path class="l4" d="M456.506 353.468L456.506 356.925"/>
<path class="l4" d="M456.506 360.382L459.963 356.925"/>
<path class="l4" d="M456.506 360.382L459.963 363.84"/>
<path class="l4" d="M456.506 367.297L459.963 363.84"/>
<path class="l4" d="M456.506 367.297L459.963 370.754"/>
<path class="l4" d="M459.963 363.84L463.42 360.382"/>
<path class="l4" d="M459.963 363.84L463.42 367.297"/>
<path class="l4" d="M463.42 360.382L466.878 360.382"/>
<path class="l4" d="M463.42 367.297L466.878 367.297"/>
<path class="l4" d="M459.963 356.925L463.42 360.382"/>
<path class="l4" d="M459.963 370.754L463.42 367.297"/>
<path class="l4" d="M466.878 360.382L470.335 363.84"/>
<path class="l4" d="M466.878 367.297L470.335 363.84"/>
<path class="l4" d="M480.706 363.84L484.163 363.84"/>
<path class="l4" d="M463.42 350.011L463.42 356.925"/>
<path class="l4" d="M463.42 370.754L463.42 377.668"/>
<path class="l4" d="M449.592 363.84L456.506 363.84"/>
<path class="l4" d="M463.42 356.925L463.42 360.382"/>
<path class="l4" d="M463.42 367.297L463.42 370.754"/>
<circle class="l4" cx="477.249" cy="363.84" r="3.45715" style="fill:none;"/>
<path class="l4" d="M497.992 356.925L497.992 374.211"/>
<path class="l4" d="M497.992 374.211L515.278 363.84"/>
<path class="l4" d="M497.992 353.468L515.278 363.84"/>
<path class="l4" d="M497.992 353.468L497.992 356.925"/>
<path class="l4" d="M497.992 360.382L501.449 356.925"/>
<path class="l4" d="M497.992 360.382L501.449 363.84"/>
<path class="l4" d="M497.992 367.297L501.449 363.84"/>
<path class="l4" d="M497.992 367.297L501.449 370.754"/>
<path class="l4" d="M501.449 363.84L504.906 360.382"/>
<path class="l4" d="M501.449 363.84L504.906 367.297"/>
<path class="l4" d="M504.906 360.382L508.363 360.382"/>
<path class="l4" d="M504.906 367.297L508.363 367.297"/>
<path class="l4" d="M501.449 356.925L504.906 360.382"/>
<path class="l4" d="M501.449 370.754L504.906 367.297"/>
<path class="l4" d="M508.363 360.382L511.821 363.84"/>
<path class="l4" d="M508.363 367.297L511.821 363.84"/>
<path class="l4" d="M522.192 363.84L525.649 363.84"/>
<path class="l4" d="M504.906 350.011L504.906 356.925"/>
<path class="l4" d="M504.906 370.754L504.906 377.668"/>
<path class="l4" d="M491.078 363.84L497.992 363.84"/>
<path class="l4" d="M504.906 356.925L504.906 360.382"/>
<path class="l4" d="M504.906 367.297L504.906 370.754"/>
<circle class="l4" cx="518.735" cy="363.84" r="3.45715" style="fill:none;"/>
<path class="l4" d="M539.478 356.925L539.478 374.211"/>
<path class="l4" d="M539.478 374.211L556.763 363.84"/>
<path class="l4" d="M539.478 353.468L556.763 363.84"/>
<path class="l4" d="M539.478 353.468L539.478 356.925"/>
<path class="l4" d="M539.478 360.382L542.935 356.925"/>
<path class="l4" d="M539.478 360.382L542.935 363.84"/>
<path class="l4" d="M539.478 367.297L542.935 363.84"/>
<path class="l4" d="M539.478 367.297L542.935 370.754"/>
<path class="l4" d="M542.935 363.84L546.392 360.382"/>
<path class="l4" d="M542.935 363.84L546.392 367.297"/>
<path class="l4" d="M546.392 360.382L549.849 360.382"/>
<path class="l4" d="M546.392 367.297L549.849 367.297"/>
<path class="l4" d="M542.935 356.925L546.392 360.382"/>
<path class="l4" d="M542.935 370.754L546.392 367.297"/>
<path class="l4" d="M549.849 360.382L553.306 363.84"/>
<path class="l4" d="M549.849 367.297L553.306 363.84"/>
<path class="l4" d="M563.678 363.84L567.135 363.84"/>
<path class="l4" d="M546.392 350.011L546.392 356.925"/>
<path class="l4" d="M546.392 370.754L546.392 377.668"/>
<path class="l4" d="M532.563 363.84L539.478 363.84"/>
<path class="l4" d="M546.392 356.925L546.392 360.382"/>
<path class="l4" d="M546.392 367.297L546.392 370.754"/>
<circle class="l4" cx="560.221" cy="363.84" r="3.45715" style="fill:none;"/>
<path class="l4" d="M584.421 356.925L584.421 374.211"/>
<path class="l4" d="M584.421 374.211L601.706 363.84"/>
<path class="l4" d="M584.421 353.468L601.706 363.84"/>
<path class="l4" d="M584.421 353.468L584.421 356.925"/>
<path class="l4" d="M584.421 360.382L587.878 356.925"/>
<path class="l4" d="M584.421 360.382L587.878 363.84"/>
<path class="l4" d="M584.421 367.297L587.878 363.84"/>
<path class="l4" d="M584.421 367.297L587.878 370.754"/>
<path class="l4" d="M587.878 363.84L591.335 360.382"/>
<path class="l4" d="M587.878 363.84L591.335 367.297"/>
<path class="l4" d="M591.335 360.382L594.792 360.382"/>
<path class="l4" d="M591.335 367.297L594.792 367.297"/>
<path class="l4" d="M587.878 356.925L591.335 360.382"/>
<path class="l4" d="M587.878 370.754L591.335 367.297"/>
<path class="l4" d="M594.792 360.382L598.249 363.84"/>
<path class="l4" d="M594.792 367.297L598.249 363.84"/>
<path class="l4" d="M608.621 363.84L612.078 363.84"/>
<path class="l4" d="M591.335 350.011L591.335 356.925"/>
<path class="l4" d="M591.335 370.754L591.335 377.668"/>
<path class="l4" d="M577.506 363.84L584.421 363.84"/>
<path class="l4" d="M591.335 356.925L591.335 360.382"/>
<path class="l4" d="M591.335 367.297L591.335 370.754"/>
<circle class="l4" cx="605.164" cy="363.84" r="3.45715" style="fill:none;"/>
<path class="l4" d="M417.613 307.661L417.613 323.218"/>
<path class="l4" d="M421.935 305.068L421.935 309.389"/>
<path class="l4" d="M421.935 321.49L421.935 325.811"/>
<path class="l4" d="M415.885 310.254L415.885 320.625"/>
<path class="l4" d="M417.613 321.49L421.935 321.49"/>
<path class="l4" d="M419.342 309.389L421.935 309.389"/>
<path class="l4" d="M408.106 315.439L412.428 315.439"/>
<path class="l4" d="M419.342 308.525L417.613 309.389L419.342 310.254L419.342 308.525"/>
<circle class="l4" cx="414.156" cy="315.439" r="1.72857" style="fill:none;"/>
<path class="l4" d="M459.099 307.661L459.099 323.218"/>
<path class="l4" d="M463.42 305.068L463.42 309.389"/>
<path class="l4" d="M463.42 321.49L463.42 325.811"/>
<path class="l4" d="M457.37 310.254L457.37 320.625"/>
<path class="l4" d="M459.099 321.49L463.42 321.49"/>
<path class="l4" d="M460.828 309.389L463.42 309.389"/>
<path class="l4" d="M449.592 315.439L453.913 315.439"/>
<path class="l4" d="M460.828 308.525L459.099 309.389L460.828 310.254L460.828 308.525"/>
<circle class="l4" cx="455.642" cy="315.439" r="1.72857" style="fill:none;"/>
<path class="l4" d="M500.585 307.661L500.585 323.218"/>
<path class="l4" d="M504.906 305.068L504.906 309.389"/>
<path class="l4" d="M504.906 321.49L504.906 325.811"/>
<path class="l4" d="M498.856 310.254L498.856 320.625"/>
<path class="l4" d="M500.585 321.49L504.906 321.49"/>
<path class="l4" d="M502.313 309.389L504.906 309.389"/>
<path class="l4" d="M491.078 315.439L495.399 315.439"/>
<path class="l4" d="M502.313 308.525L500.585 309.389L502.313 310.254L502.313 308.525"/>
<circle class="l4" cx="497.128" cy="315.439" r="1.72857" style="fill:none;"/>
<path class="l4" d="M542.071 307.661L542.071 323.218"/>
<path class="l4" d="M546.392 305.068L546.392 309.389"/>
<path class="l4" d="M546.392 321.49L546.392 325.811"/>
<path class="l4" d="M540.342 310.254L540.342 320.625"/>
<path class="l4" d="M542.071 321.49L546.392 321.49"/>
<path class="l4" d="M543.799 309.389L546.392 309.389"/>
<path class="l4" d="M532.563 315.439L536.885 315.439"/>
<path class="l4" d="M543.799 308.525L542.071 309.389L543.799 310.254L543.799 308.525"/>
<circle class="l4" cx="538.613" cy="315.439" r="1.72857" style="fill:none;"/>
<path class="l4" d="M587.013 307.661L587.013 323.218"/>
<path class="l4" d="M591.335 305.068L591.335 309.389"/>
<path class="l4" d="M591.335 321.49L591.335 325.811"/>
<path class="l4" d="M585.285 310.254L585.285 320.625"/>
<path class="l4" d="M587.013 321.49L591.335 321.49"/>
<path class="l4" d="M588.742 309.389L591.335 309.389"/>
<path class="l4" d="M577.506 315.439L581.828 315.439"/>
<path class="l4" d="M588.742 308.525L587.013 309.389L588.742 310.254L588.742 308.525"/>
<circle class="l4" cx="583.556" cy="315.439" r="1.72857" style="fill:none;"/>
<path class="l4" d="M336.37 356.061L338.099 356.061"/>
<path class="l4" d="M337.235 355.197L337.235 356.925"/>
<path class="l4" d="M335.506 353.468L335.506 374.211"/>
<circle class="l4" cx="335.506" cy="363.84" r="5.18572" style="fill:none;"/>
<path class="l4" d="M335.506 374.211L335.506 378.532"/>
<path class="l4" d="M333.777 378.532L337.235 378.532"/>
<path class="l4" d="M335.506 380.261L337.235 378.532"/>
<path class="l4" d="M333.777 378.532L335.506 380.261"/>
<path class="l5" d="M953.471 314.575L955.2 314.575L955.2 316.304L953.471 316.304L953.471 314.575z"/>
<path class="l5" d="M974.214 314.575L975.943 314.575L975.943 316.304L974.214 316.304L974.214 314.575z"/>
<path class="l5" d="M987.178 280.004L985.45 280.868L987.178 281.732L987.178 280.004"/>
<path class="l5" d="M984.586 290.375L986.314 290.375L986.314 292.104L984.586 292.104L984.586 290.375z"/>
<path class="l5" d="M998.414 280.004L1000.14 280.004L1000.14 281.732L998.414 281.732L998.414 280.004z"/>
<path class="l5" d="M984.586 269.632L986.314 269.632L986.314 271.361L984.586 271.361L984.586 269.632z"/>
<path class="l5" d="M985.423 280.841L985.477 280.841L985.477 280.895L985.423 280.895L985.423 280.841z"/>
<path class="l5" d="M983.721 335.318L985.45 336.182L983.721 337.047L983.721 335.318"/>
<path class="l5" d="M984.586 345.69L986.314 345.69L986.314 347.418L984.586 347.418L984.586 345.69z"/>
<path class="l5" d="M970.757 335.318L972.486 335.318L972.486 337.047L970.757 337.047L970.757 335.318z"/>
<path class="l5" d="M984.586 324.947L986.314 324.947L986.314 326.675L984.586 326.675L984.586 324.947z"/>
<path class="l5" d="M985.423 336.155L985.477 336.155L985.477 336.209L985.423 336.209L985.423 336.155z"/>
<path class="l5" d="M985.45 376.804L983.721 377.668L985.45 378.532L985.45 376.804"/>
<path class="l5" d="M984.586 366.432L986.314 366.432L986.314 368.161L984.586 368.161L984.586 366.432z"/>
<path class="l5" d="M970.757 376.804L972.486 376.804L972.486 378.532L970.757 378.532L970.757 376.804z"/>
<path class="l5" d="M984.586 387.175L986.314 387.175L986.314 388.904L984.586 388.904L984.586 387.175z"/>
<path class="l5" d="M985.423 377.641L985.477 377.641L985.477 377.695L985.423 377.695L985.423 377.641z"/>
<path class="l5" d="M1083.98 280.004L1082.25 280.868L1083.98 281.732L1083.98 280.004"/>
<path class="l5" d="M1081.39 290.375L1083.11 290.375L1083.11 292.104L1081.39 292.104L1081.39 290.375z"/>
<path class="l5" d="M1095.21 280.004L1096.94 280.004L1096.94 281.732L1095.21 281.732L1095.21 280.004z"/>
<path class="l5" d="M1081.39 269.632L1083.11 269.632L1083.11 271.361L1081.39 271.361L1081.39 269.632z"/>
<path class="l5" d="M1082.22 280.841L1082.28 280.841L1082.28 280.895L1082.22 280.895L1082.22 280.841z"/>
<path class="l5" d="M1080.52 335.318L1082.25 336.182L1080.52 337.047L1080.52 335.318"/>
<path class="l5" d="M1081.39 345.69L1083.11 345.69L1083.11 347.418L1081.39 347.418L1081.39 345.69z"/>
<path class="l5" d="M1067.56 335.318L1069.29 335.318L1069.29 337.047L1067.56 337.047L1067.56 335.318z"/>
<path class="l5" d="M1081.39 324.947L1083.11 324.947L1083.11 326.675L1081.39 326.675L1081.39 324.947z"/>
<path class="l5" d="M1082.22 336.155L1082.28 336.155L1082.28 336.209L1082.22 336.209L1082.22 336.155z"/>
<path class="l5" d="M1082.25 362.975L1080.52 363.84L1082.25 364.704L1082.25 362.975"/>
<path class="l5" d="M1081.39 352.604L1083.11 352.604L1083.11 354.332L1081.39 354.332L1081.39 352.604z"/>
<path class="l5" d="M1067.56 362.975L1069.29 362.975L1069.29 364.704L1067.56 364.704L1067.56 362.975z"/>
<path class="l5" d="M1081.39 373.347L1083.11 373.347L1083.11 375.075L1081.39 375.075L1081.39 373.347z"/>
<path class="l5" d="M1082.22 363.813L1082.28 363.813L1082.28 363.867L1082.22 363.867L1082.22 363.813z"/>
<path class="l5" d="M1032.99 304.204L1034.71 304.204L1034.71 305.932L1032.99 305.932L1032.99 304.204z"/>
<path class="l5" d="M1053.73 304.204L1055.46 304.204L1055.46 305.932L1053.73 305.932L1053.73 304.204z"/>
<path class="l5" d="M974.214 480.518L975.943 480.518L975.943 482.247L974.214 482.247L974.214 480.518z"/>
<path class="l5" d="M994.957 480.518L996.686 480.518L996.686 482.247L994.957 482.247L994.957 480.518z"/>
<path class="l5" d="M1004.46 501.261L1006.19 502.125L1004.46 502.99L1004.46 501.261"/>
<path class="l5" d="M1005.33 511.633L1007.06 511.633L1007.06 513.361L1005.33 513.361L1005.33 511.633z"/>
<path class="l5" d="M991.5 501.261L993.228 501.261L993.228 502.99L991.5 502.99L991.5 501.261z"/>
<path class="l5" d="M1005.33 490.89L1007.06 490.89L1007.06 492.618L1005.33 492.618L1005.33 490.89z"/>
<path class="l5" d="M1006.17 502.098L1006.22 502.098L1006.22 502.153L1006.17 502.153L1006.17 502.098z"/>
<path class="l5" d="M1006.19 549.661L1004.46 550.526L1006.19 551.39L1006.19 549.661"/>
<path class="l5" d="M1005.33 539.29L1007.06 539.29L1007.06 541.018L1005.33 541.018L1005.33 539.29z"/>
<path class="l5" d="M991.5 549.661L993.228 549.661L993.228 551.39L991.5 551.39L991.5 549.661z"/>
<path class="l5" d="M1005.33 560.033L1007.06 560.033L1007.06 561.761L1005.33 561.761L1005.33 560.033z"/>
<path class="l5" d="M1006.17 550.499L1006.22 550.499L1006.22 550.553L1006.17 550.553L1006.17 550.499z"/>
<path class="l5" d="M1104.72 456.318L1102.99 457.183L1104.72 458.047L1104.72 456.318"/>
<path class="l5" d="M1102.13 466.69L1103.86 466.69L1103.86 468.418L1102.13 468.418L1102.13 466.69z"/>
<path class="l5" d="M1115.96 456.318L1117.69 456.318L1117.69 458.047L1115.96 458.047L1115.96 456.318z"/>
<path class="l5" d="M1102.13 445.947L1103.86 445.947L1103.86 447.675L1102.13 447.675L1102.13 445.947z"/>
<path class="l5" d="M1102.97 457.156L1103.02 457.156L1103.02 457.21L1102.97 457.21L1102.97 457.156z"/>
<path class="l5" d="M1101.26 501.261L1102.99 502.125L1101.26 502.99L1101.26 501.261"/>
<path class="l5" d="M1102.13 511.633L1103.86 511.633L1103.86 513.361L1102.13 513.361L1102.13 511.633z"/>
<path class="l5" d="M1088.3 501.261L1090.03 501.261L1090.03 502.99L1088.3 502.99L1088.3 501.261z"/>
<path class="l5" d="M1102.13 490.89L1103.86 490.89L1103.86 492.618L1102.13 492.618L1102.13 490.89z"/>
<path class="l5" d="M1102.97 502.098L1103.02 502.098L1103.02 502.153L1102.97 502.153L1102.97 502.098z"/>
<path class="l5" d="M1102.99 528.918L1101.26 529.783L1102.99 530.647L1102.99 528.918"/>
<path class="l5" d="M1102.13 518.547L1103.86 518.547L1103.86 520.276L1102.13 520.276L1102.13 518.547z"/>
<path class="l5" d="M1088.3 528.918L1090.03 528.918L1090.03 530.647L1088.3 530.647L1088.3 528.918z"/>
<path class="l5" d="M1102.13 539.29L1103.86 539.29L1103.86 541.018L1102.13 541.018L1102.13 539.29z"/>
<path class="l5" d="M1102.97 529.756L1103.02 529.756L1103.02 529.81L1102.97 529.81L1102.97 529.756z"/>
<path class="l5" d="M1053.73 480.518L1055.46 480.518L1055.46 482.247L1053.73 482.247L1053.73 480.518z"/>
<path class="l5" d="M1074.47 480.518L1076.2 480.518L1076.2 482.247L1074.47 482.247L1074.47 480.518z"/>
<path class="l5" d="M1141.02 310.254L1141.02 313.711L1143.83 313.711L1145.99 311.982L1143.83 310.254L1141.02 310.254"/>
<path class="l5" d="M1141.02 311.979L1141.02 311.979L1141.02 311.986L1141.02 311.986L1141.02 311.979z"/>
<path class="l5" d="M1161.76 476.197L1161.76 479.654L1164.57 479.654L1166.73 477.925L1164.57 476.197L1161.76 476.197"/>
<path class="l5" d="M1161.76 477.922L1161.77 477.922L1161.77 477.929L1161.76 477.929L1161.76 477.922z"/>
<path class="l5" d="M1005.33 594.604L1007.06 594.604L1007.06 596.333L1005.33 596.333L1005.33 594.604z"/>
<path class="l5" d="M1007.92 459.775L1006.19 460.64L1007.92 461.504L1007.92 459.775"/>
<path class="l5" d="M1005.33 470.147L1007.06 470.147L1007.06 471.875L1005.33 471.875L1005.33 470.147z"/>
<path class="l5" d="M1019.16 459.775L1020.89 459.775L1020.89 461.504L1019.16 461.504L1019.16 459.775z"/>
<path class="l5" d="M1005.33 449.404L1007.06 449.404L1007.06 451.133L1005.33 451.133L1005.33 449.404z"/>
<path class="l5" d="M1006.17 460.613L1006.22 460.613L1006.22 460.667L1006.17 460.667L1006.17 460.613z"/>
<path class="l5" d="M918.9 314.575L920.628 314.575L920.628 316.304L918.9 316.304L918.9 314.575z"/>
<path class="l5" d="M953.471 314.575L955.2 314.575L955.2 316.304L953.471 316.304L953.471 314.575z"/>
<path class="l5" d="M932.728 300.747L934.457 300.747L934.457 302.475L932.728 302.475L932.728 300.747z"/>
<path class="l5" d="M932.728 328.404L934.457 328.404L934.457 330.132L932.728 330.132L932.728 328.404z"/>
<path class="l5" d="M732.214 362.975L733.942 362.975L733.942 364.704L732.214 364.704L732.214 362.975z"/>
<path class="l5" d="M766.785 362.975L768.514 362.975L768.514 364.704L766.785 364.704L766.785 362.975z"/>
<path class="l5" d="M746.042 349.147L747.771 349.147L747.771 350.875L746.042 350.875L746.042 349.147z"/>
<path class="l5" d="M746.042 376.804L747.771 376.804L747.771 378.532L746.042 378.532L746.042 376.804z"/>
<path class="l5" d="M787.528 362.975L789.257 362.975L789.257 364.704L787.528 364.704L787.528 362.975z"/>
<path class="l5" d="M822.1 362.975L823.828 362.975L823.828 364.704L822.1 364.704L822.1 362.975z"/>
<path class="l5" d="M801.357 349.147L803.085 349.147L803.085 350.875L801.357 350.875L801.357 349.147z"/>
<path class="l5" d="M801.357 376.804L803.085 376.804L803.085 378.532L801.357 378.532L801.357 376.804z"/>
<path class="l5" d="M832.471 362.975L834.2 362.975L834.2 364.704L832.471 364.704L832.471 362.975z"/>
<path class="l5" d="M867.042 362.975L868.771 362.975L868.771 364.704L867.042 364.704L867.042 362.975z"/>
<path class="l5" d="M846.3 349.147L848.028 349.147L848.028 350.875L846.3 350.875L846.3 349.147z"/>
<path class="l5" d="M846.3 376.804L848.028 376.804L848.028 378.532L846.3 378.532L846.3 376.804z"/>
<path class="l5" d="M829.014 480.518L830.742 480.518L830.742 482.247L829.014 482.247L829.014 480.518z"/>
<path class="l5" d="M863.585 480.518L865.314 480.518L865.314 482.247L863.585 482.247L863.585 480.518z"/>
<path class="l5" d="M842.842 466.69L844.571 466.69L844.571 468.418L842.842 468.418L842.842 466.69z"/>
<path class="l5" d="M842.842 494.347L844.571 494.347L844.571 496.075L842.842 496.075L842.842 494.347z"/>
<path class="l5" d="M877.414 480.518L879.143 480.518L879.143 482.247L877.414 482.247L877.414 480.518z"/>
<path class="l5" d="M911.985 480.518L913.714 480.518L913.714 482.247L911.985 482.247L911.985 480.518z"/>
<path class="l5" d="M891.243 466.69L892.971 466.69L892.971 468.418L891.243 468.418L891.243 466.69z"/>
<path class="l5" d="M891.243 494.347L892.971 494.347L892.971 496.075L891.243 496.075L891.243 494.347z"/>
<path class="l5" d="M922.357 480.518L924.085 480.518L924.085 482.247L922.357 482.247L922.357 480.518z"/>
<path class="l5" d="M956.928 480.518L958.657 480.518L958.657 482.247L956.928 482.247L956.928 480.518z"/>
<path class="l5" d="M936.185 466.69L937.914 466.69L937.914 468.418L936.185 468.418L936.185 466.69z"/>
<path class="l5" d="M936.185 494.347L937.914 494.347L937.914 496.075L936.185 496.075L936.185 494.347z"/>
<path class="l5" d="M1026.5 228.579L1027.37 228.579L1027.37 229.443L1026.5 229.443L1026.5 228.579z"/>
<path class="l5" d="M334.642 297.289L336.37 297.289L336.37 299.018L334.642 299.018L334.642 297.289z"/>
<path class="l5" d="M334.642 318.032L336.37 318.032L336.37 319.761L334.642 319.761L334.642 318.032z"/>
<path class="l5" d="M335.074 297.722L335.938 297.722L335.938 298.586L335.074 298.586L335.074 297.722z"/>
<path class="l5" d="M334.642 318.032L336.37 318.032L336.37 319.761L334.642 319.761L334.642 318.032z"/>
<path class="l5" d="M490.213 383.718L491.942 383.718L491.942 385.447L490.213 385.447L490.213 383.718z"/>
<path class="l5" d="M663.935 330.997L663.935 334.454L666.744 334.454L668.905 332.725L666.744 330.997L663.935 330.997"/>
<path class="l5" d="M663.932 332.722L663.938 332.722L663.938 332.729L663.932 332.729L663.932 332.722z"/>
<path class="l5" d="M407.242 362.975L408.97 362.975L408.97 364.704L407.242 364.704L407.242 362.975z"/>
<path class="l5" d="M441.813 362.975L443.542 362.975L443.542 364.704L441.813 364.704L441.813 362.975z"/>
<path class="l5" d="M421.07 349.147L422.799 349.147L422.799 350.875L421.07 350.875L421.07 349.147z"/>
<path class="l5" d="M421.07 376.804L422.799 376.804L422.799 378.532L421.07 378.532L421.07 376.804z"/>
<path class="l5" d="M448.728 362.975L450.456 362.975L450.456 364.704L448.728 364.704L448.728 362.975z"/>
<path class="l5" d="M483.299 362.975L485.028 362.975L485.028 364.704L483.299 364.704L483.299 362.975z"/>
<path class="l5" d="M462.556 349.147L464.285 349.147L464.285 350.875L462.556 350.875L462.556 349.147z"/>
<path class="l5" d="M462.556 376.804L464.285 376.804L464.285 378.532L462.556 378.532L462.556 376.804z"/>
<path class="l5" d="M490.213 362.975L491.942 362.975L491.942 364.704L490.213 364.704L490.213 362.975z"/>
<path class="l5" d="M524.785 362.975L526.513 362.975L526.513 364.704L524.785 364.704L524.785 362.975z"/>
<path class="l5" d="M504.042 349.147L505.771 349.147L505.771 350.875L504.042 350.875L504.042 349.147z"/>
<path class="l5" d="M504.042 376.804L505.771 376.804L505.771 378.532L504.042 378.532L504.042 376.804z"/>
<path class="l5" d="M531.699 362.975L533.428 362.975L533.428 364.704L531.699 364.704L531.699 362.975z"/>
<path class="l5" d="M566.271 362.975L567.999 362.975L567.999 364.704L566.271 364.704L566.271 362.975z"/>
<path class="l5" d="M545.528 349.147L547.256 349.147L547.256 350.875L545.528 350.875L545.528 349.147z"/>
<path class="l5" d="M545.528 376.804L547.256 376.804L547.256 378.532L545.528 378.532L545.528 376.804z"/>
<path class="l5" d="M576.642 362.975L578.371 362.975L578.371 364.704L576.642 364.704L576.642 362.975z"/>
<path class="l5" d="M611.214 362.975L612.942 362.975L612.942 364.704L611.214 364.704L611.214 362.975z"/>
<path class="l5" d="M590.471 349.147L592.199 349.147L592.199 350.875L590.471 350.875L590.471 349.147z"/>
<path class="l5" d="M590.471 376.804L592.199 376.804L592.199 378.532L590.471 378.532L590.471 376.804z"/>
<path class="l5" d="M420.206 314.575L421.935 315.439L420.206 316.304L420.206 314.575"/>
<path class="l5" d="M421.07 324.947L422.799 324.947L422.799 326.675L421.07 326.675L421.07 324.947z"/>
<path class="l5" d="M407.242 314.575L408.97 314.575L408.97 316.304L407.242 316.304L407.242 314.575z"/>
<path class="l5" d="M421.07 304.204L422.799 304.204L422.799 305.932L421.07 305.932L421.07 304.204z"/>
<path class="l5" d="M421.908 315.412L421.962 315.412L421.962 315.467L421.908 315.467L421.908 315.412z"/>
<path class="l5" d="M461.692 314.575L463.42 315.439L461.692 316.304L461.692 314.575"/>
<path class="l5" d="M462.556 324.947L464.285 324.947L464.285 326.675L462.556 326.675L462.556 324.947z"/>
<path class="l5" d="M448.728 314.575L450.456 314.575L450.456 316.304L448.728 316.304L448.728 314.575z"/>
<path class="l5" d="M462.556 304.204L464.285 304.204L464.285 305.932L462.556 305.932L462.556 304.204z"/>
<path class="l5" d="M463.393 315.412L463.447 315.412L463.447 315.467L463.393 315.467L463.393 315.412z"/>
<path class="l5" d="M503.178 314.575L504.906 315.439L503.178 316.304L503.178 314.575"/>
<path class="l5" d="M504.042 324.947L505.771 324.947L505.771 326.675L504.042 326.675L504.042 324.947z"/>
<path class="l5" d="M490.213 314.575L491.942 314.575L491.942 316.304L490.213 316.304L490.213 314.575z"/>
<path class="l5" d="M504.042 304.204L505.771 304.204L505.771 305.932L504.042 305.932L504.042 304.204z"/>
<path class="l5" d="M504.879 315.412L504.933 315.412L504.933 315.467L504.879 315.467L504.879 315.412z"/>
<path class="l5" d="M544.663 314.575L546.392 315.439L544.663 316.304L544.663 314.575"/>
<path class="l5" d="M545.528 324.947L547.256 324.947L547.256 326.675L545.528 326.675L545.528 324.947z"/>
<path class="l5" d="M531.699 314.575L533.428 314.575L533.428 316.304L531.699 316.304L531.699 314.575z"/>
<path class="l5" d="M545.528 304.204L547.256 304.204L547.256 305.932L545.528 305.932L545.528 304.204z"/>
<path class="l5" d="M546.365 315.412L546.419 315.412L546.419 315.467L546.365 315.467L546.365 315.412z"/>
<path class="l5" d="M589.606 314.575L591.335 315.439L589.606 316.304L589.606 314.575"/>
<path class="l5" d="M590.471 324.947L592.199 324.947L592.199 326.675L590.471 326.675L590.471 324.947z"/>
<path class="l5" d="M576.642 314.575L578.371 314.575L578.371 316.304L576.642 316.304L576.642 314.575z"/>
<path class="l5" d="M590.471 304.204L592.199 304.204L592.199 305.932L590.471 305.932L590.471 304.204z"/>
<path class="l5" d="M591.308 315.412L591.362 315.412L591.362 315.467L591.308 315.467L591.308 315.412z"/>
<path class="l5" d="M334.642 352.604L336.37 352.604L336.37 354.332L334.642 354.332L334.642 352.604z"/>
<path class="l5" d="M334.642 373.347L336.37 373.347L336.37 375.075L334.642 375.075L334.642 373.347z"/>
<path class="l5" d="M390.388 290.807L391.252 290.807L391.252 291.672L390.388 291.672L390.388 290.807z"/>
<path class="l5" d="M334.642 373.347L336.37 373.347L336.37 375.075L334.642 375.075L334.642 373.347z"/>
<path class="l5" d="M341.988 346.122L342.852 346.122L342.852 346.986L341.988 346.986L341.988 346.122z"/>
<path class="l5" d="M390.388 315.007L391.252 315.007L391.252 315.872L390.388 315.872L390.388 315.007z"/>
<path class="l5" d="M954.335 230.739L954.335 234.197L957.144 234.197L959.305 232.468L957.144 230.739L954.335 230.739"/>
<path class="l5" d="M954.332 232.465L954.339 232.465L954.339 232.471L954.332 232.471L954.332 232.465z"/>
<path class="l5" d="M1037.31 223.825L1037.31 227.282L1040.12 227.282L1042.28 225.554L1040.12 223.825L1037.31 223.825"/>
<path class="l5" d="M1037.3 225.55L1037.31 225.55L1037.31 225.557L1037.3 225.557L1037.3 225.55z"/>
<path class="l1" d="M767.649 363.84L788.392 363.84"/>
<path class="l1" d="M822.964 363.84L833.335 363.84"/>
<path class="l1" d="M826.421 363.84L826.421 419.154"/>
<path class="l1" d="M864.45 481.383L878.278 481.383"/>
<path class="l1" d="M912.85 481.383L923.221 481.383"/>
<path class="l1" d="M909.393 363.84L919.764 363.84"/>
<path class="l1" d="M919.764 315.439L919.764 363.84"/>
<path class="l1" d="M985.45 291.239L985.45 315.439"/>
<path class="l1" d="M975.078 315.439L985.45 315.439"/>
<path class="l1" d="M985.45 315.439L985.45 325.811"/>
<path class="l1" d="M957.793 336.182L971.621 336.182"/>
<path class="l1" d="M957.793 336.182L957.793 363.84"/>
<path class="l1" d="M919.764 363.84L957.793 363.84"/>
<path class="l1" d="M985.45 346.554L985.45 353.468"/>
<path class="l1" d="M1082.25 291.239L1082.25 315.439"/>
<path class="l1" d="M1082.25 315.439L1082.25 325.811"/>
<path class="l1" d="M1054.59 336.182L1068.42 336.182"/>
<path class="l1" d="M1054.59 336.182L1054.59 363.84"/>
<path class="l1" d="M1054.59 363.84L1068.42 363.84"/>
<path class="l1" d="M1082.25 346.554L1082.25 353.468"/>
<path class="l1" d="M999.278 280.868L1016.56 280.868"/>
<path class="l1" d="M1016.56 280.868L1016.56 350.011"/>
<path class="l1" d="M985.45 350.011L1016.56 350.011"/>
<path class="l1" d="M1016.56 305.068L1033.85 305.068"/>
<path class="l1" d="M1054.59 305.068L1071.88 305.068"/>
<path class="l1" d="M1096.08 280.868L1113.36 280.868"/>
<path class="l1" d="M1113.36 280.868L1113.36 350.011"/>
<path class="l1" d="M1082.25 350.011L1113.36 350.011"/>
<path class="l1" d="M1113.36 311.982L1141.02 311.982"/>
<path class="l1" d="M995.821 481.383L1006.19 481.383"/>
<path class="l1" d="M1006.19 481.383L1006.19 491.754"/>
<path class="l1" d="M978.536 502.125L992.364 502.125"/>
<path class="l1" d="M978.536 502.125L978.536 529.783"/>
<path class="l1" d="M1006.19 512.497L1006.19 519.411"/>
<path class="l1" d="M1092.62 481.383L1102.99 481.383"/>
<path class="l1" d="M1102.99 481.383L1102.99 491.754"/>
<path class="l1" d="M1075.34 502.125L1089.16 502.125"/>
<path class="l1" d="M1075.34 502.125L1075.34 529.783"/>
<path class="l1" d="M1075.34 529.783L1089.16 529.783"/>
<path class="l1" d="M1102.99 512.497L1102.99 519.411"/>
<path class="l1" d="M1006.19 515.954L1037.31 515.954"/>
<path class="l1" d="M1037.31 481.383L1054.59 481.383"/>
<path class="l1" d="M1075.34 481.383L1092.62 481.383"/>
<path class="l1" d="M1102.99 515.954L1134.11 515.954"/>
<path class="l1" d="M1061.51 515.954L1075.34 515.954"/>
<path class="l1" d="M1134.11 477.925L1161.76 477.925"/>
<path class="l1" d="M957.793 481.383L975.078 481.383"/>
<path class="l1" d="M1102.99 540.154L1102.99 550.526"/>
<path class="l1" d="M1102.99 550.526L1113.36 550.526"/>
<path class="l1" d="M1113.36 529.783L1113.36 550.526"/>
<path class="l1" d="M1102.99 529.783L1113.36 529.783"/>
<path class="l1" d="M1082.25 384.582L1092.62 384.582"/>
<path class="l1" d="M1092.62 363.84L1092.62 384.582"/>
<path class="l1" d="M1082.25 363.84L1092.62 363.84"/>
<path class="l1" d="M985.45 353.468L985.45 367.297"/>
<path class="l1" d="M985.45 388.04L985.45 394.954"/>
<path class="l1" d="M985.45 394.954L995.821 394.954"/>
<path class="l1" d="M995.821 377.668L995.821 394.954"/>
<path class="l1" d="M985.45 377.668L995.821 377.668"/>
<path class="l1" d="M957.793 356.925L1040.76 356.925"/>
<path class="l1" d="M985.45 394.954L985.45 398.411"/>
<path class="l1" d="M1082.25 381.125L1082.25 394.954"/>
<path class="l1" d="M1006.19 519.411L1006.19 540.154"/>
<path class="l1" d="M1061.51 515.954L1061.51 529.783"/>
<path class="l1" d="M992.364 529.783L1061.51 529.783"/>
<path class="l1" d="M919.764 481.383L919.764 529.783"/>
<path class="l1" d="M919.764 529.783L985.45 529.783"/>
<path class="l1" d="M978.536 550.526L992.364 550.526"/>
<path class="l1" d="M978.536 529.783L978.536 550.526"/>
<path class="l1" d="M1006.19 550.526L1016.56 550.526"/>
<path class="l1" d="M1016.56 550.526L1016.56 574.726"/>
<path class="l1" d="M1006.19 574.726L1016.56 574.726"/>
<path class="l1" d="M1006.19 560.897L1006.19 574.726"/>
<path class="l1" d="M1006.19 574.726L1006.19 581.64"/>
<path class="l1" d="M1102.99 550.526L1102.99 557.44"/>
<path class="l1" d="M691.592 363.84L733.078 363.84"/>
<path class="l1" d="M985.45 263.582L985.45 270.497"/>
<path class="l1" d="M968.164 263.582L985.45 263.582"/>
<path class="l1" d="M968.164 263.582L968.164 280.868"/>
<path class="l1" d="M968.164 280.868L985.45 280.868"/>
<path class="l1" d="M1068.42 263.582L1082.25 263.582"/>
<path class="l1" d="M1068.42 263.582L1068.42 280.868"/>
<path class="l1" d="M1068.42 280.868L1082.25 280.868"/>
<path class="l1" d="M985.45 336.182L995.821 336.182"/>
<path class="l1" d="M1082.25 336.182L1092.62 336.182"/>
<path class="l1" d="M1006.19 432.983L1006.19 450.268"/>
<path class="l1" d="M995.821 439.897L1006.19 439.897"/>
<path class="l1" d="M995.821 439.897L995.821 460.64"/>
<path class="l1" d="M995.821 460.64L1006.19 460.64"/>
<path class="l1" d="M1089.16 439.897L1102.99 439.897"/>
<path class="l1" d="M1089.16 439.897L1089.16 457.183"/>
<path class="l1" d="M1089.16 457.183L1102.99 457.183"/>
<path class="l1" d="M1006.19 502.125L1016.56 502.125"/>
<path class="l1" d="M1102.99 502.125L1116.82 502.125"/>
<path class="l1" d="M1037.31 460.64L1037.31 471.011"/>
<path class="l1" d="M1020.02 460.64L1037.31 460.64"/>
<path class="l1" d="M1037.31 471.011L1037.31 515.954"/>
<path class="l1" d="M1134.11 457.183L1134.11 477.925"/>
<path class="l1" d="M1120.28 457.183L1134.11 457.183"/>
<path class="l1" d="M1134.11 477.925L1134.11 515.954"/>
<path class="l1" d="M1116.82 457.183L1120.28 457.183"/>
<path class="l1" d="M1102.99 467.554L1102.99 481.383"/>
<path class="l1" d="M1006.19 471.011L1006.19 477.925"/>
<path class="l1" d="M826.421 419.154L826.421 460.64"/>
<path class="l1" d="M826.421 460.64L826.421 481.383"/>
<path class="l1" d="M826.421 481.383L829.878 481.383"/>
<path class="l1" d="M843.707 432.983L843.707 467.554"/>
<path class="l1" d="M843.707 432.983L1006.19 432.983"/>
<path class="l1" d="M1006.19 432.983L1102.99 432.983"/>
<path class="l1" d="M1102.99 432.983L1102.99 439.897"/>
<path class="l1" d="M1102.99 439.897L1102.99 446.811"/>
<path class="l1" d="M892.107 432.983L892.107 467.554"/>
<path class="l1" d="M937.05 432.983L937.05 467.554"/>
<path class="l1" d="M746.907 336.182L746.907 350.011"/>
<path class="l1" d="M746.907 336.182L847.164 336.182"/>
<path class="l1" d="M847.164 336.182L847.164 350.011"/>
<path class="l1" d="M802.221 336.182L802.221 350.011"/>
<path class="l1" d="M847.164 294.697L847.164 336.182"/>
<path class="l1" d="M847.164 294.697L892.107 294.697"/>
<path class="l1" d="M933.593 294.697L933.593 301.611"/>
<path class="l1" d="M933.593 256.668L933.593 294.697"/>
<path class="l1" d="M933.593 256.668L1082.25 256.668"/>
<path class="l1" d="M1082.25 256.668L1082.25 270.497"/>
<path class="l1" d="M985.45 256.668L985.45 263.582"/>
<path class="l1" d="M892.107 294.697L933.593 294.697"/>
<path class="l1" d="M867.907 363.84L909.393 363.84"/>
<path class="l1" d="M892.107 294.697L892.107 432.983"/>
<path class="l1" d="M1026.94 229.011L1026.94 256.668"/>
<path class="l1" d="M746.907 377.668L746.907 388.04"/>
<path class="l1" d="M746.907 388.04L847.164 388.04"/>
<path class="l1" d="M847.164 377.668L847.164 388.04"/>
<path class="l1" d="M802.221 377.668L802.221 388.04"/>
<path class="l1" d="M847.164 388.04L847.164 405.325"/>
<path class="l1" d="M847.164 405.325L985.45 405.325"/>
<path class="l1" d="M985.45 398.411L985.45 405.325"/>
<path class="l1" d="M985.45 405.325L1082.25 405.325"/>
<path class="l1" d="M1082.25 394.954L1082.25 405.325"/>
<path class="l1" d="M802.221 388.04L802.221 502.125"/>
<path class="l1" d="M802.221 502.125L937.05 502.125"/>
<path class="l1" d="M937.05 495.211L937.05 502.125"/>
<path class="l1" d="M892.107 495.211L892.107 502.125"/>
<path class="l1" d="M843.707 495.211L843.707 502.125"/>
<path class="l1" d="M933.593 329.268L933.593 405.325"/>
<path class="l1" d="M937.05 502.125L937.05 578.183"/>
<path class="l1" d="M937.05 578.183L937.05 581.64"/>
<path class="l1" d="M937.05 581.64L1102.99 581.64"/>
<path class="l1" d="M1102.99 557.44L1102.99 581.64"/>
<path class="l1" d="M1006.19 581.64L1006.19 595.468"/>
<path class="l1" d="M1006.19 477.925L1006.19 481.383"/>
<path class="l1" d="M1016.56 502.125L1023.48 502.125"/>
<path class="l1" d="M1023.48 432.983L1023.48 502.125"/>
<path class="l1" d="M1116.82 502.125L1123.74 502.125"/>
<path class="l1" d="M1123.74 432.983L1123.74 502.125"/>
<path class="l1" d="M1102.99 432.983L1123.74 432.983"/>
<path class="l1" d="M1092.62 336.182L1102.99 336.182"/>
<path class="l1" d="M1102.99 256.668L1102.99 336.182"/>
<path class="l1" d="M1082.25 256.668L1102.99 256.668"/>
<path class="l1" d="M995.821 336.182L1002.74 336.182"/>
<path class="l1" d="M1002.74 256.668L1002.74 336.182"/>
<path class="l1" d="M957.793 363.84L957.793 377.668"/>
<path class="l1" d="M957.793 377.668L971.621 377.668"/>
<path class="l1" d="M1040.76 356.925L1054.59 356.925"/>
<path class="l1" d="M1071.88 305.068L1082.25 305.068"/>
<path class="l1" d="M1082.25 374.211L1082.25 381.125"/>
<path class="l1" d="M985.45 529.783L992.364 529.783"/>
<path class="l1" d="M688.135 363.84L691.592 363.84"/>
<path class="l1" d="M660.478 363.84L688.135 363.84"/>
<path class="l1" d="M442.678 363.84L449.592 363.84"/>
<path class="l1" d="M484.163 363.84L491.078 363.84"/>
<path class="l1" d="M525.649 363.84L532.563 363.84"/>
<path class="l1" d="M567.135 363.84L577.506 363.84"/>
<path class="l1" d="M421.935 377.668L421.935 381.125"/>
<path class="l1" d="M421.935 381.125L591.335 381.125"/>
<path class="l1" d="M591.335 377.668L591.335 381.125"/>
<path class="l1" d="M546.392 377.668L546.392 381.125"/>
<path class="l1" d="M504.906 377.668L504.906 381.125"/>
<path class="l1" d="M463.42 377.668L463.42 381.125"/>
<path class="l1" d="M401.192 363.84L408.106 363.84"/>
<path class="l1" d="M401.192 363.84L401.192 398.411"/>
<path class="l1" d="M612.078 363.84L629.364 363.84"/>
<path class="l1" d="M612.078 363.84L629.364 363.84"/>
<path class="l1" d="M591.335 343.097L591.335 350.011"/>
<path class="l1" d="M546.392 343.097L546.392 350.011"/>
<path class="l1" d="M504.906 343.097L504.906 350.011"/>
<path class="l1" d="M463.42 343.097L463.42 350.011"/>
<path class="l1" d="M421.935 343.097L421.935 350.011"/>
<path class="l1" d="M491.078 381.125L491.078 384.582"/>
<path class="l1" d="M629.364 363.84L639.735 363.84"/>
<path class="l1" d="M629.364 363.84L629.364 398.411"/>
<path class="l1" d="M401.192 398.411L629.364 398.411"/>
<path class="l1" d="M421.935 325.811L421.935 343.097"/>
<path class="l1" d="M463.42 325.811L463.42 343.097"/>
<path class="l1" d="M504.906 325.811L504.906 343.097"/>
<path class="l1" d="M546.392 325.811L546.392 343.097"/>
<path class="l1" d="M591.335 325.811L591.335 343.097"/>
<path class="l1" d="M390.82 315.439L408.106 315.439"/>
<path class="l1" d="M397.735 315.439L397.735 332.725"/>
<path class="l1" d="M397.735 332.725L577.506 332.725"/>
<path class="l1" d="M577.506 315.439L577.506 332.725"/>
<path class="l1" d="M532.563 315.439L532.563 332.725"/>
<path class="l1" d="M491.078 315.439L491.078 332.725"/>
<path class="l1" d="M449.592 315.439L449.592 332.725"/>
<path class="l1" d="M390.82 291.239L587.878 291.239"/>
<path class="l1" d="M587.878 291.239L591.335 291.239"/>
<path class="l1" d="M591.335 291.239L591.335 305.068"/>
<path class="l1" d="M546.392 291.239L546.392 305.068"/>
<path class="l1" d="M504.906 291.239L504.906 305.068"/>
<path class="l1" d="M463.42 291.239L463.42 305.068"/>
<path class="l1" d="M421.935 291.239L421.935 305.068"/>
<path class="l1" d="M335.506 346.554L342.42 346.554"/>
<path class="l1" d="M335.506 346.554L335.506 353.468"/>
<path class="l1" d="M421.935 315.439L428.849 315.439"/>
<path class="l1" d="M428.849 301.611L428.849 315.439"/>
<path class="l1" d="M421.935 301.611L428.849 301.611"/>
<path class="l1" d="M463.42 315.439L470.335 315.439"/>
<path class="l1" d="M470.335 301.611L470.335 315.439"/>
<path class="l1" d="M463.42 301.611L470.335 301.611"/>
<path class="l1" d="M504.906 315.439L511.821 315.439"/>
<path class="l1" d="M511.821 301.611L511.821 315.439"/>
<path class="l1" d="M504.906 301.611L511.821 301.611"/>
<path class="l1" d="M546.392 315.439L553.306 315.439"/>
<path class="l1" d="M553.306 301.611L553.306 315.439"/>
<path class="l1" d="M546.392 301.611L553.306 301.611"/>
<path class="l1" d="M591.335 315.439L598.249 315.439"/>
<path class="l1" d="M598.249 301.611L598.249 315.439"/>
<path class="l1" d="M591.335 301.611L598.249 301.611"/>
<path class="l1" d="M660.478 332.725L663.935 332.725"/>
<path class="l1" d="M660.478 332.725L660.478 363.84"/>
<path class="l1" d="M639.735 363.84L660.478 363.84"/>
<path class="l1" d="M954.335 232.468L954.335 315.439"/>
<path class="l1" d="M985.45 315.439L1026.94 315.439"/>
<path class="l1" d="M1026.94 280.868L1026.94 315.439"/>
<path class="l1" d="M1026.94 280.868L1037.31 280.868"/>
<path class="l1" d="M1037.31 225.554L1037.31 280.868"/>
<circle class="l1" cx="421.935" cy="301.611" r="1.38286"/>
<circle class="l1" cx="421.935" cy="291.239" r="1.38286"/>
<circle class="l1" cx="397.735" cy="315.439" r="1.38286"/>
<circle class="l1" cx="546.392" cy="301.611" r="1.38286"/>
<circle class="l1" cx="504.906" cy="301.611" r="1.38286"/>
<circle class="l1" cx="463.42" cy="301.611" r="1.38286"/>
<circle class="l1" cx="463.42" cy="291.239" r="1.38286"/>
<circle class="l1" cx="504.906" cy="291.239" r="1.38286"/>
<circle class="l1" cx="546.392" cy="291.239" r="1.38286"/>
<circle class="l1" cx="449.592" cy="332.725" r="1.38286"/>
<circle class="l1" cx="491.078" cy="332.725" r="1.38286"/>
<circle class="l1" cx="532.563" cy="332.725" r="1.38286"/>
<circle class="l1" cx="491.078" cy="381.125" r="1.38286"/>
<circle class="l1" cx="463.42" cy="381.125" r="1.38286"/>
<circle class="l1" cx="504.906" cy="381.125" r="1.38286"/>
<circle class="l1" cx="546.392" cy="381.125" r="1.38286"/>
<circle class="l1" cx="591.335" cy="301.611" r="1.38286"/>
<circle class="l1" cx="660.478" cy="363.84" r="1.38286"/>
<circle class="l1" cx="660.478" cy="363.84" r="1.38286"/>
<circle class="l1" cx="629.364" cy="363.84" r="1.38286"/>
<circle class="l1" cx="629.364" cy="363.84" r="1.38286"/>
<circle class="l1" cx="629.364" cy="363.84" r="1.38286"/>
<circle class="l1" cx="629.364" cy="363.84" r="1.38286"/>
<circle class="l1" cx="660.478" cy="363.84" r="1.38286"/>
<circle class="l1" cx="892.107" cy="294.697" r="1.38286"/>
<circle class="l1" cx="847.164" cy="336.182" r="1.38286"/>
<circle class="l1" cx="802.221" cy="388.04" r="1.38286"/>
<circle class="l1" cx="985.45" cy="405.325" r="1.38286"/>
<circle class="l1" cx="847.164" cy="388.04" r="1.38286"/>
<circle class="l1" cx="802.221" cy="388.04" r="1.38286"/>
<circle class="l1" cx="847.164" cy="388.04" r="1.38286"/>
<circle class="l1" cx="847.164" cy="388.04" r="1.38286"/>
<circle class="l1" cx="802.221" cy="336.182" r="1.38286"/>
<circle class="l1" cx="847.164" cy="336.182" r="1.38286"/>
<circle class="l1" cx="847.164" cy="336.182" r="1.38286"/>
<circle class="l1" cx="1006.19" cy="432.983" r="1.38286"/>
<circle class="l1" cx="826.421" cy="363.84" r="1.38286"/>
<circle class="l1" cx="843.707" cy="502.125" r="1.38286"/>
<circle class="l1" cx="937.05" cy="502.125" r="1.38286"/>
<circle class="l1" cx="985.45" cy="315.439" r="1.38286"/>
<circle class="l1" cx="892.107" cy="294.697" r="1.38286"/>
<circle class="l1" cx="892.107" cy="432.983" r="1.38286"/>
<circle class="l1" cx="892.107" cy="294.697" r="1.38286"/>
<circle class="l1" cx="933.593" cy="294.697" r="1.38286"/>
<circle class="l1" cx="985.45" cy="256.668" r="1.38286"/>
<circle class="l1" cx="985.45" cy="263.582" r="1.38286"/>
<circle class="l1" cx="1082.25" cy="256.668" r="1.38286"/>
<circle class="l1" cx="933.593" cy="294.697" r="1.38286"/>
<circle class="l1" cx="933.593" cy="294.697" r="1.38286"/>
<circle class="l1" cx="985.45" cy="263.582" r="1.38286"/>
<circle class="l1" cx="985.45" cy="263.582" r="1.38286"/>
<circle class="l1" cx="985.45" cy="315.439" r="1.38286"/>
<circle class="l1" cx="985.45" cy="315.439" r="1.38286"/>
<circle class="l1" cx="985.45" cy="315.439" r="1.38286"/>
<circle class="l1" cx="919.764" cy="363.84" r="1.38286"/>
<circle class="l1" cx="957.793" cy="363.84" r="1.38286"/>
<circle class="l1" cx="933.593" cy="405.325" r="1.38286"/>
<circle class="l1" cx="985.45" cy="405.325" r="1.38286"/>
<circle class="l1" cx="985.45" cy="405.325" r="1.38286"/>
<circle class="l1" cx="937.05" cy="432.983" r="1.38286"/>
<circle class="l1" cx="892.107" cy="432.983" r="1.38286"/>
<circle class="l1" cx="1006.19" cy="439.897" r="1.38286"/>
<circle class="l1" cx="985.45" cy="394.954" r="1.38286"/>
<circle class="l1" cx="957.793" cy="356.925" r="1.38286"/>
<circle class="l1" cx="985.45" cy="394.954" r="1.38286"/>
<circle class="l1" cx="985.45" cy="394.954" r="1.38286"/>
<circle class="l1" cx="985.45" cy="350.011" r="1.38286"/>
<circle class="l1" cx="919.764" cy="363.84" r="1.38286"/>
<circle class="l1" cx="957.793" cy="363.84" r="1.38286"/>
<circle class="l1" cx="957.793" cy="363.84" r="1.38286"/>
<circle class="l1" cx="919.764" cy="363.84" r="1.38286"/>
<circle class="l1" cx="937.05" cy="502.125" r="1.38286"/>
<circle class="l1" cx="892.107" cy="502.125" r="1.38286"/>
<circle class="l1" cx="937.05" cy="502.125" r="1.38286"/>
<circle class="l1" cx="978.536" cy="529.783" r="1.38286"/>
<circle class="l1" cx="919.764" cy="481.383" r="1.38286"/>
<circle class="l1" cx="978.536" cy="529.783" r="1.38286"/>
<circle class="l1" cx="1006.19" cy="481.383" r="1.38286"/>
<circle class="l1" cx="1082.25" cy="305.068" r="1.38286"/>
<circle class="l1" cx="1002.74" cy="256.668" r="1.38286"/>
<circle class="l1" cx="1082.25" cy="256.668" r="1.38286"/>
<circle class="l1" cx="1026.94" cy="256.668" r="1.38286"/>
<circle class="l1" cx="1082.25" cy="256.668" r="1.38286"/>
<circle class="l1" cx="1082.25" cy="263.582" r="1.38286"/>
<circle class="l1" cx="1113.36" cy="311.982" r="1.38286"/>
<circle class="l1" cx="1016.56" cy="305.068" r="1.38286"/>
<circle class="l1" cx="1054.59" cy="356.925" r="1.38286"/>
<circle class="l1" cx="1102.99" cy="432.983" r="1.38286"/>
<circle class="l1" cx="1023.48" cy="432.983" r="1.38286"/>
<circle class="l1" cx="1102.99" cy="439.897" r="1.38286"/>
<circle class="l1" cx="1102.99" cy="432.983" r="1.38286"/>
<circle class="l1" cx="1102.99" cy="439.897" r="1.38286"/>
<circle class="l1" cx="1006.19" cy="432.983" r="1.38286"/>
<circle class="l1" cx="1102.99" cy="432.983" r="1.38286"/>
<circle class="l1" cx="1134.11" cy="477.925" r="1.38286"/>
<circle class="l1" cx="1102.99" cy="439.897" r="1.38286"/>
<circle class="l1" cx="1006.19" cy="432.983" r="1.38286"/>
<circle class="l1" cx="1082.25" cy="384.582" r="1.38286"/>
<circle class="l1" cx="1082.25" cy="350.011" r="1.38286"/>
<circle class="l1" cx="1006.19" cy="481.383" r="1.38286"/>
<circle class="l1" cx="1006.19" cy="581.64" r="1.38286"/>
<circle class="l1" cx="1102.99" cy="481.383" r="1.38286"/>
<circle class="l1" cx="1134.11" cy="477.925" r="1.38286"/>
<circle class="l1" cx="1102.99" cy="550.526" r="1.38286"/>
<circle class="l1" cx="1006.19" cy="574.726" r="1.38286"/>
<circle class="l1" cx="1006.19" cy="581.64" r="1.38286"/>
<circle class="l1" cx="1006.19" cy="574.726" r="1.38286"/>
<circle class="l1" cx="1006.19" cy="574.726" r="1.38286"/>
<circle class="l1" cx="1102.99" cy="550.526" r="1.38286"/>
<circle class="l1" cx="1102.99" cy="550.526" r="1.38286"/>
<circle class="l1" cx="1134.11" cy="477.925" r="1.38286"/>
<circle class="l1" cx="1075.34" cy="515.954" r="1.38286"/>
<circle class="l1" cx="1102.99" cy="515.954" r="1.38286"/>
<circle class="l1" cx="1037.31" cy="481.383" r="1.38286"/>
<circle class="l1" cx="1006.19" cy="515.954" r="1.38286"/>
<circle class="l1" cx="1102.99" cy="481.383" r="1.38286"/>
<circle class="l1" cx="1102.99" cy="481.383" r="1.38286"/>
<circle class="l1" cx="1006.19" cy="481.383" r="1.38286"/>
</svg>
